<svg width="620" height="380" viewBox="0 0 620 380" fill="none" xmlns="http://www.w3.org/2000/svg">
<g clip-path="url(#clip0)">
<rect width="620" height="380" fill="#D3C8FF"/>
<line y1="-0.5" x2="386" y2="-0.5" transform="rotate(90)" stroke="#C0AAEF"/>
<line y1="-0.5" x2="386" y2="-0.5" transform="translate(27) rotate(90)" stroke="#C0AAEF"/>
<line y1="-0.5" x2="386" y2="-0.5" transform="translate(54) rotate(90)" stroke="#C0AAEF"/>
<line y1="-0.5" x2="386" y2="-0.5" transform="translate(81) rotate(90)" stroke="#C0AAEF"/>
<line y1="-0.5" x2="386" y2="-0.5" transform="translate(108) rotate(90)" stroke="#C0AAEF"/>
<line y1="-0.5" x2="386" y2="-0.5" transform="translate(135) rotate(90)" stroke="#C0AAEF"/>
<line y1="-0.5" x2="386" y2="-0.5" transform="translate(162) rotate(90)" stroke="#C0AAEF"/>
<line y1="-0.5" x2="386" y2="-0.5" transform="translate(189) rotate(90)" stroke="#C0AAEF"/>
<line y1="-0.5" x2="386" y2="-0.5" transform="translate(216) rotate(90)" stroke="#C0AAEF"/>
<line y1="-0.5" x2="386" y2="-0.5" transform="translate(243) rotate(90)" stroke="#C0AAEF"/>
<line y1="-0.5" x2="386" y2="-0.5" transform="translate(270) rotate(90)" stroke="#C0AAEF"/>
<line y1="-0.5" x2="386" y2="-0.5" transform="translate(297) rotate(90)" stroke="#C0AAEF"/>
<line y1="-0.5" x2="386" y2="-0.5" transform="translate(324) rotate(90)" stroke="#C0AAEF"/>
<line y1="-0.5" x2="386" y2="-0.5" transform="translate(351) rotate(90)" stroke="#C0AAEF"/>
<line y1="-0.5" x2="386" y2="-0.5" transform="translate(378) rotate(90)" stroke="#C0AAEF"/>
<line y1="-0.5" x2="386" y2="-0.5" transform="translate(405) rotate(90)" stroke="#C0AAEF"/>
<line y1="-0.5" x2="386" y2="-0.5" transform="translate(432) rotate(90)" stroke="#C0AAEF"/>
<line y1="-0.5" x2="386" y2="-0.5" transform="translate(459) rotate(90)" stroke="#C0AAEF"/>
<line y1="-0.5" x2="386" y2="-0.5" transform="translate(486) rotate(90)" stroke="#C0AAEF"/>
<line y1="-0.5" x2="386" y2="-0.5" transform="translate(513) rotate(90)" stroke="#C0AAEF"/>
<line y1="-0.5" x2="386" y2="-0.5" transform="translate(540) rotate(90)" stroke="#C0AAEF"/>
<line y1="-0.5" x2="386" y2="-0.5" transform="translate(567) rotate(90)" stroke="#C0AAEF"/>
<line y1="-0.5" x2="386" y2="-0.5" transform="translate(594) rotate(90)" stroke="#C0AAEF"/>
<line y1="-0.5" x2="621" y2="-0.5" transform="translate(621 16) rotate(-180)" stroke="#C0AAEF"/>
<line y1="-0.5" x2="621" y2="-0.5" transform="translate(621 43) rotate(-180)" stroke="#C0AAEF"/>
<line y1="-0.5" x2="621" y2="-0.5" transform="translate(621 70) rotate(-180)" stroke="#C0AAEF"/>
<line y1="-0.5" x2="621" y2="-0.5" transform="translate(621 97) rotate(-180)" stroke="#C0AAEF"/>
<line y1="-0.5" x2="621" y2="-0.5" transform="translate(621 124) rotate(-180)" stroke="#C0AAEF"/>
<line y1="-0.5" x2="621" y2="-0.5" transform="translate(621 151) rotate(-180)" stroke="#C0AAEF"/>
<line y1="-0.5" x2="621" y2="-0.5" transform="translate(621 178) rotate(-180)" stroke="#C0AAEF"/>
<line y1="-0.5" x2="621" y2="-0.5" transform="translate(621 205) rotate(-180)" stroke="#C0AAEF"/>
<path d="M6.986 2.75C7.182 2.75 7.35 2.82 7.49 2.96C7.63933 3.09067 7.714 3.226 7.714 3.366C7.714 3.49667 7.57867 3.674 7.308 3.898C7.04667 4.122 6.72 4.374 6.328 4.654C5.936 4.934 5.50667 5.298 5.04 5.746C4.57333 6.194 4.144 6.67 3.752 7.174C3.36 7.678 3.02867 8.29867 2.758 9.036C2.49667 9.77333 2.366 10.4873 2.366 11.178C2.366 11.8593 2.45933 12.4333 2.646 12.9C2.842 13.3573 3.08 13.726 3.36 14.006C3.64933 14.286 3.962 14.5427 4.298 14.776C4.634 15 4.94667 15.1773 5.236 15.308C5.89867 15.6253 6.23 15.882 6.23 16.078C6.23 16.2833 6.09467 16.386 5.824 16.386C5.376 16.386 4.89067 16.2693 4.368 16.036C3.84533 15.812 3.33667 15.4947 2.842 15.084C2.34733 14.6733 1.93667 14.1273 1.61 13.446C1.28333 12.7553 1.12 11.9713 1.12 11.094C1.12 10.2073 1.29267 9.30667 1.638 8.392C1.98333 7.468 2.408 6.67933 2.912 6.026C3.416 5.36333 3.948 4.78 4.508 4.276C5.068 3.76267 5.572 3.38 6.02 3.128C6.47733 2.876 6.79933 2.75 6.986 2.75ZM13.3749 7.874C13.3749 8.06067 13.2536 8.462 13.0109 9.078C12.7776 9.694 12.5863 10.2213 12.4369 10.66C12.2969 11.0987 12.1383 11.7193 11.9609 12.522C11.7929 13.3153 11.6529 13.9173 11.5409 14.328C11.4383 14.7293 11.3263 14.93 11.2049 14.93C10.8876 14.93 10.7289 14.5567 10.7289 13.81C10.7289 13.0633 10.9809 11.8733 11.4849 10.24C10.8036 10.7627 10.2063 11.024 9.69292 11.024C9.17959 11.024 8.72692 10.8233 8.33492 10.422C7.95226 10.0207 7.76092 9.55867 7.76092 9.036C7.76092 8.51333 7.94292 7.92067 8.30692 7.258C8.67092 6.586 9.14226 6.01667 9.72092 5.55C10.3089 5.074 10.8643 4.836 11.3869 4.836C11.9096 4.836 12.3109 5.01333 12.5909 5.368C12.8709 5.71333 13.0109 6.068 13.0109 6.432C13.0109 6.796 12.9783 7.08067 12.9129 7.286C13.2209 7.342 13.3749 7.538 13.3749 7.874ZM11.8069 7.664L11.9329 6.726C11.9329 6.52067 11.8816 6.35267 11.7789 6.222C11.6856 6.082 11.5503 6.012 11.3729 6.012C10.8783 6.012 10.3369 6.404 9.74892 7.188C9.16092 7.972 8.86692 8.63933 8.86692 9.19C8.86692 9.42333 8.94626 9.61 9.10492 9.75C9.27292 9.89 9.44092 9.96 9.60892 9.96C9.78626 9.96 9.93092 9.946 10.0429 9.918C10.1549 9.89 10.2669 9.848 10.3789 9.792C10.4909 9.72667 10.5889 9.666 10.6729 9.61C10.7663 9.554 10.8643 9.47 10.9669 9.358C11.0789 9.246 11.1676 9.15733 11.2329 9.092C11.2983 9.02667 11.3823 8.924 11.4849 8.784C11.5969 8.644 11.6763 8.546 11.7229 8.49C11.9003 8.24733 12.0356 8.056 12.1289 7.916C11.9143 7.888 11.8069 7.804 11.8069 7.664ZM16.0249 14.888C16.0249 15.476 15.7729 16.0967 15.2689 16.75C14.7649 17.4033 14.3309 17.73 13.9669 17.73C13.7802 17.73 13.6869 17.66 13.6869 17.52C13.6869 17.4267 13.7849 17.2633 13.9809 17.03C14.5689 16.33 14.8629 15.742 14.8629 15.266C14.8629 15.1167 14.8022 14.9953 14.6809 14.902C14.5595 14.7993 14.4382 14.7107 14.3169 14.636C14.2049 14.552 14.1489 14.4493 14.1489 14.328C14.1489 14.1973 14.2282 14.034 14.3869 13.838C14.5455 13.642 14.7135 13.544 14.8909 13.544C15.1895 13.544 15.4509 13.684 15.6749 13.964C15.9082 14.2347 16.0249 14.5427 16.0249 14.888ZM16.6129 10.296C16.3982 10.296 16.1415 10.1047 15.8429 9.722C15.5535 9.33933 15.4089 9.04067 15.4089 8.826C15.4089 8.602 15.4742 8.38267 15.6049 8.168C15.7449 7.944 15.8802 7.832 16.0109 7.832C16.2349 7.832 16.4589 8.098 16.6829 8.63C16.9069 9.162 17.0189 9.53067 17.0189 9.736C17.0189 9.94133 16.9769 10.086 16.8929 10.17C16.8182 10.254 16.7249 10.296 16.6129 10.296ZM28.1213 9.834C28.9706 9.946 29.6473 10.156 30.1513 10.464C30.6553 10.772 30.9073 11.1827 30.9073 11.696C30.9073 12.2 30.6086 12.6993 30.0113 13.194C29.4233 13.6887 28.7046 14.076 27.8553 14.356C27.0153 14.636 26.1613 14.776 25.2933 14.776C24.4346 14.776 24.0053 14.6173 24.0053 14.3C24.0053 14.216 24.2806 14.1087 24.8313 13.978C25.3913 13.838 26.0026 13.6933 26.6653 13.544C27.328 13.3853 27.9346 13.138 28.4853 12.802C29.0453 12.4567 29.3253 12.06 29.3253 11.612C29.3253 11.3693 29.1573 11.1733 28.8213 11.024C28.4853 10.8653 28.112 10.7533 27.7013 10.688C26.6186 10.5293 26.0773 10.3427 26.0773 10.128C26.0773 10.0533 26.0913 9.99733 26.1193 9.96C26.194 9.82933 26.432 9.64733 26.8333 9.414C27.2346 9.18067 27.6406 8.952 28.0513 8.728C28.4713 8.504 28.854 8.21 29.1993 7.846C29.5446 7.482 29.7173 7.11333 29.7173 6.74C29.7173 6.30133 29.4793 6.082 29.0033 6.082C28.6206 6.082 28.1353 6.236 27.5473 6.544C26.9593 6.84267 26.6233 6.992 26.5393 6.992C26.4646 6.992 26.32 6.894 26.1053 6.698C25.8906 6.49267 25.7833 6.33867 25.7833 6.236C25.7833 5.956 26.1613 5.66667 26.9173 5.368C27.6826 5.06933 28.3593 4.92 28.9473 4.92C29.5353 4.92 30.03 5.12067 30.4313 5.522C30.842 5.92333 31.0473 6.38533 31.0473 6.908C31.0473 7.42133 30.7533 7.94867 30.1653 8.49C29.5773 9.022 28.896 9.47 28.1213 9.834ZM37.4913 7.006C37.4913 7.902 37.3607 8.784 37.0993 9.652C36.8473 10.5107 36.5207 11.2667 36.1193 11.92C35.718 12.564 35.2747 13.166 34.7893 13.726C34.3133 14.2767 33.8467 14.7293 33.3893 15.084C32.4187 15.84 31.756 16.218 31.4013 16.218C31.1867 16.218 31.0793 16.1387 31.0793 15.98C31.0793 15.812 31.518 15.3453 32.3953 14.58C33.2633 13.8333 34.0847 12.8907 34.8593 11.752C35.242 11.192 35.5593 10.5387 35.8113 9.792C36.0633 9.036 36.1893 8.32667 36.1893 7.664C36.1893 6.992 36.11 6.446 35.9513 6.026C35.802 5.606 35.6153 5.27933 35.3913 5.046C35.1767 4.81267 34.9573 4.612 34.7333 4.444C34.5093 4.276 34.318 4.122 34.1593 3.982C34.01 3.83267 33.9353 3.688 33.9353 3.548C33.9353 3.14667 34.1967 2.946 34.7193 2.946C35.3447 2.946 35.9607 3.34733 36.5673 4.15C37.1833 4.95267 37.4913 5.90467 37.4913 7.006Z" transform="translate(332 208)" fill="#360C90"/>
<path d="M6.986 2.75C7.182 2.75 7.35 2.82 7.49 2.96C7.63933 3.09067 7.714 3.226 7.714 3.366C7.714 3.49667 7.57867 3.674 7.308 3.898C7.04667 4.122 6.72 4.374 6.328 4.654C5.936 4.934 5.50667 5.298 5.04 5.746C4.57333 6.194 4.144 6.67 3.752 7.174C3.36 7.678 3.02867 8.29867 2.758 9.036C2.49667 9.77333 2.366 10.4873 2.366 11.178C2.366 11.8593 2.45933 12.4333 2.646 12.9C2.842 13.3573 3.08 13.726 3.36 14.006C3.64933 14.286 3.962 14.5427 4.298 14.776C4.634 15 4.94667 15.1773 5.236 15.308C5.89867 15.6253 6.23 15.882 6.23 16.078C6.23 16.2833 6.09467 16.386 5.824 16.386C5.376 16.386 4.89067 16.2693 4.368 16.036C3.84533 15.812 3.33667 15.4947 2.842 15.084C2.34733 14.6733 1.93667 14.1273 1.61 13.446C1.28333 12.7553 1.12 11.9713 1.12 11.094C1.12 10.2073 1.29267 9.30667 1.638 8.392C1.98333 7.468 2.408 6.67933 2.912 6.026C3.416 5.36333 3.948 4.78 4.508 4.276C5.068 3.76267 5.572 3.38 6.02 3.128C6.47733 2.876 6.79933 2.75 6.986 2.75ZM10.5889 5.886C10.5889 6.88467 10.3509 8.322 9.87492 10.198C9.77226 10.5713 9.65559 11.0333 9.52492 11.584C9.39426 12.1347 9.28692 12.578 9.20292 12.914C9.11892 13.2407 9.02559 13.572 8.92292 13.908C8.73626 14.5707 8.55426 14.902 8.37692 14.902C8.24626 14.902 8.10626 14.8087 7.95692 14.622C7.81692 14.4353 7.74692 14.244 7.74692 14.048C7.74692 13.8427 7.84492 13.3573 8.04092 12.592C8.24626 11.8267 8.47492 10.7813 8.72692 9.456C8.97892 8.13067 9.15159 6.73533 9.24492 5.27C9.27292 4.98067 9.38026 4.836 9.56692 4.836C9.77226 4.836 9.99159 4.96667 10.2249 5.228C10.4676 5.48933 10.5889 5.70867 10.5889 5.886ZM15.7893 9.834C16.6386 9.946 17.3153 10.156 17.8193 10.464C18.3233 10.772 18.5753 11.1827 18.5753 11.696C18.5753 12.2 18.2766 12.6993 17.6793 13.194C17.0913 13.6887 16.3726 14.076 15.5233 14.356C14.6833 14.636 13.8293 14.776 12.9613 14.776C12.1026 14.776 11.6733 14.6173 11.6733 14.3C11.6733 14.216 11.9486 14.1087 12.4993 13.978C13.0593 13.838 13.6706 13.6933 14.3333 13.544C14.9959 13.3853 15.6026 13.138 16.1533 12.802C16.7133 12.4567 16.9933 12.06 16.9933 11.612C16.9933 11.3693 16.8253 11.1733 16.4893 11.024C16.1533 10.8653 15.7799 10.7533 15.3693 10.688C14.2866 10.5293 13.7453 10.3427 13.7453 10.128C13.7453 10.0533 13.7593 9.99733 13.7873 9.96C13.8619 9.82933 14.0999 9.64733 14.5013 9.414C14.9026 9.18067 15.3086 8.952 15.7193 8.728C16.1393 8.504 16.5219 8.21 16.8673 7.846C17.2126 7.482 17.3853 7.11333 17.3853 6.74C17.3853 6.30133 17.1473 6.082 16.6713 6.082C16.2886 6.082 15.8033 6.236 15.2153 6.544C14.6273 6.84267 14.2913 6.992 14.2073 6.992C14.1326 6.992 13.9879 6.894 13.7733 6.698C13.5586 6.49267 13.4513 6.33867 13.4513 6.236C13.4513 5.956 13.8293 5.66667 14.5853 5.368C15.3506 5.06933 16.0273 4.92 16.6153 4.92C17.2033 4.92 17.6979 5.12067 18.0993 5.522C18.5099 5.92333 18.7153 6.38533 18.7153 6.908C18.7153 7.42133 18.4213 7.94867 17.8333 8.49C17.2453 9.022 16.5639 9.47 15.7893 9.834ZM21.5893 14.888C21.5893 15.476 21.3373 16.0967 20.8333 16.75C20.3293 17.4033 19.8953 17.73 19.5313 17.73C19.3446 17.73 19.2513 17.66 19.2513 17.52C19.2513 17.4267 19.3493 17.2633 19.5453 17.03C20.1333 16.33 20.4273 15.742 20.4273 15.266C20.4273 15.1167 20.3666 14.9953 20.2453 14.902C20.124 14.7993 20.0026 14.7107 19.8813 14.636C19.7693 14.552 19.7133 14.4493 19.7133 14.328C19.7133 14.1973 19.7926 14.034 19.9513 13.838C20.11 13.642 20.278 13.544 20.4553 13.544C20.754 13.544 21.0153 13.684 21.2393 13.964C21.4726 14.2347 21.5893 14.5427 21.5893 14.888ZM22.1773 10.296C21.9626 10.296 21.706 10.1047 21.4073 9.722C21.118 9.33933 20.9733 9.04067 20.9733 8.826C20.9733 8.602 21.0386 8.38267 21.1693 8.168C21.3093 7.944 21.4446 7.832 21.5753 7.832C21.7993 7.832 22.0233 8.098 22.2473 8.63C22.4713 9.162 22.5833 9.53067 22.5833 9.736C22.5833 9.94133 22.5413 10.086 22.4573 10.17C22.3826 10.254 22.2893 10.296 22.1773 10.296ZM32.8878 5.886C32.8878 6.88467 32.6498 8.322 32.1738 10.198C32.0711 10.5713 31.9544 11.0333 31.8238 11.584C31.6931 12.1347 31.5858 12.578 31.5018 12.914C31.4178 13.2407 31.3244 13.572 31.2218 13.908C31.0351 14.5707 30.8531 14.902 30.6758 14.902C30.5451 14.902 30.4051 14.8087 30.2558 14.622C30.1158 14.4353 30.0458 14.244 30.0458 14.048C30.0458 13.8427 30.1438 13.3573 30.3398 12.592C30.5451 11.8267 30.7738 10.7813 31.0258 9.456C31.2778 8.13067 31.4504 6.73533 31.5438 5.27C31.5718 4.98067 31.6791 4.836 31.8658 4.836C32.0711 4.836 32.2904 4.96667 32.5238 5.228C32.7664 5.48933 32.8878 5.70867 32.8878 5.886ZM39.4601 7.006C39.4601 7.902 39.3294 8.784 39.0681 9.652C38.8161 10.5107 38.4894 11.2667 38.0881 11.92C37.6868 12.564 37.2434 13.166 36.7581 13.726C36.2821 14.2767 35.8154 14.7293 35.3581 15.084C34.3874 15.84 33.7248 16.218 33.3701 16.218C33.1554 16.218 33.0481 16.1387 33.0481 15.98C33.0481 15.812 33.4868 15.3453 34.3641 14.58C35.2321 13.8333 36.0534 12.8907 36.8281 11.752C37.2108 11.192 37.5281 10.5387 37.7801 9.792C38.0321 9.036 38.1581 8.32667 38.1581 7.664C38.1581 6.992 38.0788 6.446 37.9201 6.026C37.7708 5.606 37.5841 5.27933 37.3601 5.046C37.1454 4.81267 36.9261 4.612 36.7021 4.444C36.4781 4.276 36.2868 4.122 36.1281 3.982C35.9788 3.83267 35.9041 3.688 35.9041 3.548C35.9041 3.14667 36.1654 2.946 36.6881 2.946C37.3134 2.946 37.9294 3.34733 38.5361 4.15C39.1521 4.95267 39.4601 5.90467 39.4601 7.006Z" transform="translate(437 290)" fill="#360C90"/>
<line y1="-0.5" x2="621" y2="-0.5" transform="translate(621 232) rotate(-180)" stroke="#C0AAEF"/>
<line y1="-0.5" x2="621" y2="-0.5" transform="translate(621 259) rotate(-180)" stroke="#C0AAEF"/>
<line y1="-0.5" x2="621" y2="-0.5" transform="translate(621 286) rotate(-180)" stroke="#C0AAEF"/>
<line y1="-0.5" x2="621" y2="-0.5" transform="translate(621 313) rotate(-180)" stroke="#C0AAEF"/>
<line y1="-0.5" x2="621" y2="-0.5" transform="translate(621 340) rotate(-180)" stroke="#C0AAEF"/>
<line y1="-0.5" x2="621" y2="-0.5" transform="translate(621 367) rotate(-180)" stroke="#C0AAEF"/>
<line y1="-1.5" x2="189" y2="-1.5" transform="translate(108 153)" stroke="#388EF3" stroke-width="3"/>
<line y1="-1.5" x2="189" y2="-1.5" transform="translate(298 261)" stroke="#FF9649" stroke-width="3"/>
<line y1="-1.5" x2="54" y2="-1.5" transform="translate(134 152) rotate(90)" stroke="#388EF3" stroke-width="3" stroke-dasharray="10 10"/>
<line y1="-1.5" x2="54" y2="-1.5" transform="translate(188 97) rotate(90)" stroke="#388EF3" stroke-width="3" stroke-dasharray="10 10"/>
<line y1="-1.5" x2="24" y2="-1.5" transform="translate(350 235) rotate(90)" stroke="#FF9649" stroke-width="3" stroke-dasharray="10 10"/>
<line y1="-1.5" x2="24" y2="-1.5" transform="translate(458 260) rotate(90)" stroke="#FF9649" stroke-width="3" stroke-dasharray="10 10"/>
<circle cx="2.5" cy="2.5" r="2.5" transform="translate(187 95)" fill="#360C90"/>
<circle cx="2.5" cy="2.5" r="2.5" transform="translate(241 149)" fill="#360C90"/>
<circle cx="2.5" cy="2.5" r="2.5" transform="translate(133 203)" fill="#360C90"/>
<circle cx="2.5" cy="2.5" r="2.5" transform="translate(349 230)" fill="#360C90"/>
<circle cx="2.5" cy="2.5" r="2.5" transform="translate(457 284)" fill="#360C90"/>
<path d="M432.707 0.707107C433.098 0.316582 433.098 -0.316582 432.707 -0.707107L426.343 -7.07107C425.953 -7.46159 425.319 -7.46159 424.929 -7.07107C424.538 -6.68054 424.538 -6.04738 424.929 -5.65685L430.586 0L424.929 5.65685C424.538 6.04738 424.538 6.68054 424.929 7.07107C425.319 7.46159 425.953 7.46159 426.343 7.07107L432.707 0.707107ZM0 1H432V-1H0V1Z" transform="translate(81 314)" fill="#360C90"/>
<path d="M298.707 0.707107C299.098 0.316582 299.098 -0.316582 298.707 -0.707107L292.343 -7.07107C291.953 -7.46159 291.319 -7.46159 290.929 -7.07107C290.538 -6.68054 290.538 -6.04738 290.929 -5.65685L296.586 0L290.929 5.65685C290.538 6.04738 290.538 6.68054 290.929 7.07107C291.319 7.46159 291.953 7.46159 292.343 7.07107L298.707 0.707107ZM0 1H298V-1H0V1Z" transform="translate(108 342) rotate(-90)" fill="#360C90"/>
<line y1="-0.5" x2="298" y2="-0.5" transform="translate(297 43) rotate(90)" stroke="#360C90"/>
<line y1="-0.5" x2="298" y2="-0.5" transform="translate(216 43) rotate(90)" stroke="#360C90" stroke-dasharray="10 10"/>
<line y1="-0.5" x2="298" y2="-0.5" transform="translate(405 43) rotate(90)" stroke="#360C90" stroke-dasharray="10 10"/>
<line y1="-0.5" x2="298" y2="-0.5" transform="translate(162 43) rotate(90)" stroke="#360C90" stroke-dasharray="10 10"/>
<path d="M6.986 2.75C7.182 2.75 7.35 2.82 7.49 2.96C7.63933 3.09067 7.714 3.226 7.714 3.366C7.714 3.49667 7.57867 3.674 7.308 3.898C7.04667 4.122 6.72 4.374 6.328 4.654C5.936 4.934 5.50667 5.298 5.04 5.746C4.57333 6.194 4.144 6.67 3.752 7.174C3.36 7.678 3.02867 8.29867 2.758 9.036C2.49667 9.77333 2.366 10.4873 2.366 11.178C2.366 11.8593 2.45933 12.4333 2.646 12.9C2.842 13.3573 3.08 13.726 3.36 14.006C3.64933 14.286 3.962 14.5427 4.298 14.776C4.634 15 4.94667 15.1773 5.236 15.308C5.89867 15.6253 6.23 15.882 6.23 16.078C6.23 16.2833 6.09467 16.386 5.824 16.386C5.376 16.386 4.89067 16.2693 4.368 16.036C3.84533 15.812 3.33667 15.4947 2.842 15.084C2.34733 14.6733 1.93667 14.1273 1.61 13.446C1.28333 12.7553 1.12 11.9713 1.12 11.094C1.12 10.2073 1.29267 9.30667 1.638 8.392C1.98333 7.468 2.408 6.67933 2.912 6.026C3.416 5.36333 3.948 4.78 4.508 4.276C5.068 3.76267 5.572 3.38 6.02 3.128C6.47733 2.876 6.79933 2.75 6.986 2.75ZM10.5889 5.886C10.5889 6.88467 10.3509 8.322 9.87492 10.198C9.77226 10.5713 9.65559 11.0333 9.52492 11.584C9.39426 12.1347 9.28692 12.578 9.20292 12.914C9.11892 13.2407 9.02559 13.572 8.92292 13.908C8.73626 14.5707 8.55426 14.902 8.37692 14.902C8.24626 14.902 8.10626 14.8087 7.95692 14.622C7.81692 14.4353 7.74692 14.244 7.74692 14.048C7.74692 13.8427 7.84492 13.3573 8.04092 12.592C8.24626 11.8267 8.47492 10.7813 8.72692 9.456C8.97892 8.13067 9.15159 6.73533 9.24492 5.27C9.27292 4.98067 9.38026 4.836 9.56692 4.836C9.77226 4.836 9.99159 4.96667 10.2249 5.228C10.4676 5.48933 10.5889 5.70867 10.5889 5.886ZM13.5913 14.888C13.5913 15.476 13.3393 16.0967 12.8353 16.75C12.3313 17.4033 11.8973 17.73 11.5333 17.73C11.3466 17.73 11.2533 17.66 11.2533 17.52C11.2533 17.4267 11.3513 17.2633 11.5473 17.03C12.1353 16.33 12.4293 15.742 12.4293 15.266C12.4293 15.1167 12.3686 14.9953 12.2473 14.902C12.1259 14.7993 12.0046 14.7107 11.8833 14.636C11.7713 14.552 11.7153 14.4493 11.7153 14.328C11.7153 14.1973 11.7946 14.034 11.9533 13.838C12.1119 13.642 12.2799 13.544 12.4573 13.544C12.7559 13.544 13.0173 13.684 13.2413 13.964C13.4746 14.2347 13.5913 14.5427 13.5913 14.888ZM14.1793 10.296C13.9646 10.296 13.7079 10.1047 13.4093 9.722C13.1199 9.33933 12.9753 9.04067 12.9753 8.826C12.9753 8.602 13.0406 8.38267 13.1713 8.168C13.3113 7.944 13.4466 7.832 13.5773 7.832C13.8013 7.832 14.0253 8.098 14.2493 8.63C14.4733 9.162 14.5853 9.53067 14.5853 9.736C14.5853 9.94133 14.5433 10.086 14.4593 10.17C14.3846 10.254 14.2913 10.296 14.1793 10.296ZM27.2697 7.552C27.419 7.552 27.615 7.664 27.8577 7.888C28.1004 8.10267 28.2217 8.30333 28.2217 8.49C28.2217 9.33 27.951 10.6553 27.4097 12.466C26.8684 14.2673 26.4437 15.168 26.1357 15.168C26.033 15.168 25.9304 15.1027 25.8277 14.972C25.7344 14.832 25.6877 14.6873 25.6877 14.538C25.6877 14.3793 25.7297 14.1553 25.8137 13.866C25.8977 13.5767 26.0144 13.194 26.1637 12.718C26.3224 12.242 26.453 11.7987 26.5557 11.388C25.669 11.7893 24.8244 11.99 24.0217 11.99C23.4804 11.99 23.023 11.8313 22.6497 11.514C22.2857 11.1873 22.1037 10.7393 22.1037 10.17C22.1037 9.75933 22.2577 9.24133 22.5657 8.616C22.883 7.98133 23.2424 7.398 23.6437 6.866C24.045 6.32467 24.4417 5.858 24.8337 5.466C25.2257 5.06467 25.4964 4.864 25.6457 4.864C25.8044 4.864 25.9537 4.92 26.0937 5.032C26.243 5.144 26.3177 5.27 26.3177 5.41C26.3177 5.54067 26.0704 5.9 25.5757 6.488C25.081 7.06667 24.5864 7.71067 24.0917 8.42C23.597 9.12933 23.3497 9.694 23.3497 10.114C23.3497 10.6273 23.611 10.884 24.1337 10.884C24.5817 10.884 25.1324 10.7627 25.7857 10.52C26.4484 10.2773 26.789 10.1513 26.8077 10.142C26.9197 9.386 26.9757 8.672 26.9757 8C26.9757 7.70133 27.0737 7.552 27.2697 7.552ZM34.7706 7.006C34.7706 7.902 34.64 8.784 34.3786 9.652C34.1266 10.5107 33.8 11.2667 33.3986 11.92C32.9973 12.564 32.554 13.166 32.0686 13.726C31.5926 14.2767 31.126 14.7293 30.6686 15.084C29.698 15.84 29.0353 16.218 28.6806 16.218C28.466 16.218 28.3586 16.1387 28.3586 15.98C28.3586 15.812 28.7973 15.3453 29.6746 14.58C30.5426 13.8333 31.364 12.8907 32.1386 11.752C32.5213 11.192 32.8386 10.5387 33.0906 9.792C33.3426 9.036 33.4686 8.32667 33.4686 7.664C33.4686 6.992 33.3893 6.446 33.2306 6.026C33.0813 5.606 32.8946 5.27933 32.6706 5.046C32.456 4.81267 32.2366 4.612 32.0126 4.444C31.7886 4.276 31.5973 4.122 31.4386 3.982C31.2893 3.83267 31.2146 3.688 31.2146 3.548C31.2146 3.14667 31.476 2.946 31.9986 2.946C32.624 2.946 33.24 3.34733 33.8466 4.15C34.4626 4.95267 34.7706 5.90467 34.7706 7.006Z" transform="translate(117 214)" fill="#360C90"/>
<path d="M6.986 2.75C7.182 2.75 7.35 2.82 7.49 2.96C7.63933 3.09067 7.714 3.226 7.714 3.366C7.714 3.49667 7.57867 3.674 7.308 3.898C7.04667 4.122 6.72 4.374 6.328 4.654C5.936 4.934 5.50667 5.298 5.04 5.746C4.57333 6.194 4.144 6.67 3.752 7.174C3.36 7.678 3.02867 8.29867 2.758 9.036C2.49667 9.77333 2.366 10.4873 2.366 11.178C2.366 11.8593 2.45933 12.4333 2.646 12.9C2.842 13.3573 3.08 13.726 3.36 14.006C3.64933 14.286 3.962 14.5427 4.298 14.776C4.634 15 4.94667 15.1773 5.236 15.308C5.89867 15.6253 6.23 15.882 6.23 16.078C6.23 16.2833 6.09467 16.386 5.824 16.386C5.376 16.386 4.89067 16.2693 4.368 16.036C3.84533 15.812 3.33667 15.4947 2.842 15.084C2.34733 14.6733 1.93667 14.1273 1.61 13.446C1.28333 12.7553 1.12 11.9713 1.12 11.094C1.12 10.2073 1.29267 9.30667 1.638 8.392C1.98333 7.468 2.408 6.67933 2.912 6.026C3.416 5.36333 3.948 4.78 4.508 4.276C5.068 3.76267 5.572 3.38 6.02 3.128C6.47733 2.876 6.79933 2.75 6.986 2.75ZM11.3869 9.834C12.2363 9.946 12.9129 10.156 13.4169 10.464C13.9209 10.772 14.1729 11.1827 14.1729 11.696C14.1729 12.2 13.8743 12.6993 13.2769 13.194C12.6889 13.6887 11.9703 14.076 11.1209 14.356C10.2809 14.636 9.42692 14.776 8.55892 14.776C7.70026 14.776 7.27092 14.6173 7.27092 14.3C7.27092 14.216 7.54626 14.1087 8.09692 13.978C8.65692 13.838 9.26826 13.6933 9.93092 13.544C10.5936 13.3853 11.2003 13.138 11.7509 12.802C12.3109 12.4567 12.5909 12.06 12.5909 11.612C12.5909 11.3693 12.4229 11.1733 12.0869 11.024C11.7509 10.8653 11.3776 10.7533 10.9669 10.688C9.88426 10.5293 9.34292 10.3427 9.34292 10.128C9.34292 10.0533 9.35692 9.99733 9.38492 9.96C9.45959 9.82933 9.69759 9.64733 10.0989 9.414C10.5003 9.18067 10.9063 8.952 11.3169 8.728C11.7369 8.504 12.1196 8.21 12.4649 7.846C12.8103 7.482 12.9829 7.11333 12.9829 6.74C12.9829 6.30133 12.7449 6.082 12.2689 6.082C11.8863 6.082 11.4009 6.236 10.8129 6.544C10.2249 6.84267 9.88892 6.992 9.80492 6.992C9.73026 6.992 9.58559 6.894 9.37092 6.698C9.15626 6.49267 9.04892 6.33867 9.04892 6.236C9.04892 5.956 9.42692 5.66667 10.1829 5.368C10.9483 5.06933 11.6249 4.92 12.2129 4.92C12.8009 4.92 13.2956 5.12067 13.6969 5.522C14.1076 5.92333 14.3129 6.38533 14.3129 6.908C14.3129 7.42133 14.0189 7.94867 13.4309 8.49C12.8429 9.022 12.1616 9.47 11.3869 9.834ZM17.187 14.888C17.187 15.476 16.935 16.0967 16.431 16.75C15.927 17.4033 15.493 17.73 15.129 17.73C14.9423 17.73 14.849 17.66 14.849 17.52C14.849 17.4267 14.947 17.2633 15.143 17.03C15.731 16.33 16.025 15.742 16.025 15.266C16.025 15.1167 15.9643 14.9953 15.843 14.902C15.7216 14.7993 15.6003 14.7107 15.479 14.636C15.367 14.552 15.311 14.4493 15.311 14.328C15.311 14.1973 15.3903 14.034 15.549 13.838C15.7076 13.642 15.8756 13.544 16.053 13.544C16.3516 13.544 16.613 13.684 16.837 13.964C17.0703 14.2347 17.187 14.5427 17.187 14.888ZM17.775 10.296C17.5603 10.296 17.3036 10.1047 17.005 9.722C16.7156 9.33933 16.571 9.04067 16.571 8.826C16.571 8.602 16.6363 8.38267 16.767 8.168C16.907 7.944 17.0423 7.832 17.173 7.832C17.397 7.832 17.621 8.098 17.845 8.63C18.069 9.162 18.181 9.53067 18.181 9.736C18.181 9.94133 18.139 10.086 18.055 10.17C17.9803 10.254 17.887 10.296 17.775 10.296ZM30.9074 4.794C31.6354 4.794 32.1861 4.94333 32.5594 5.242C32.9327 5.54067 33.1194 5.942 33.1194 6.446C33.1194 6.94067 32.8767 7.46333 32.3914 8.014C31.9061 8.55533 31.2294 9.17133 30.3614 9.862C31.2294 10.6833 31.6634 11.3833 31.6634 11.962C31.6634 12.4193 31.4581 12.8673 31.0474 13.306C30.6461 13.7353 30.1561 14.076 29.5774 14.328C29.0081 14.5707 28.4901 14.692 28.0234 14.692C27.5567 14.692 27.0947 14.524 26.6374 14.188C26.1894 13.8427 25.9654 13.4553 25.9654 13.026C25.9654 12.5967 26.1941 12.1207 26.6514 11.598C27.1087 11.066 27.7434 10.4687 28.5554 9.806C27.2021 8.76067 26.4087 8.06533 26.1754 7.72C26.0447 7.53333 25.9794 7.36067 25.9794 7.202C25.9794 7.034 26.0027 6.87067 26.0494 6.712C26.1054 6.544 26.1754 6.46 26.2594 6.46C26.3434 6.46 26.4601 6.53933 26.6094 6.698C26.7587 6.84733 26.8941 6.98267 27.0154 7.104C27.1461 7.22533 27.3514 7.40267 27.6314 7.636C27.9207 7.86933 28.2474 8.126 28.6114 8.406C28.9754 8.686 29.2554 8.91 29.4514 9.078C30.0021 8.63933 30.4174 8.29867 30.6974 8.056C30.9774 7.81333 31.2434 7.538 31.4954 7.23C31.7567 6.922 31.8874 6.66533 31.8874 6.46C31.8874 6.10533 31.6494 5.928 31.1734 5.928C30.7067 5.928 30.1701 6.04467 29.5634 6.278C28.9567 6.502 28.5881 6.614 28.4574 6.614C28.3267 6.614 28.1587 6.544 27.9534 6.404C27.7574 6.264 27.6594 6.12867 27.6594 5.998C27.6594 5.718 28.0187 5.44733 28.7374 5.186C29.4561 4.92467 30.1794 4.794 30.9074 4.794ZM30.4034 11.78C30.4034 11.5187 30.0954 11.1127 29.4794 10.562C28.9754 10.9633 28.5881 11.2807 28.3174 11.514C28.0467 11.738 27.7947 11.99 27.5614 12.27C27.3281 12.55 27.2114 12.7787 27.2114 12.956C27.2114 13.124 27.2907 13.278 27.4494 13.418C27.6174 13.558 27.7994 13.628 27.9954 13.628C28.5087 13.628 29.0361 13.4413 29.5774 13.068C30.1281 12.6853 30.4034 12.256 30.4034 11.78ZM39.0773 7.006C39.0773 7.902 38.9466 8.784 38.6853 9.652C38.4333 10.5107 38.1066 11.2667 37.7053 11.92C37.3039 12.564 36.8606 13.166 36.3753 13.726C35.8993 14.2767 35.4326 14.7293 34.9753 15.084C34.0046 15.84 33.3419 16.218 32.9873 16.218C32.7726 16.218 32.6653 16.1387 32.6653 15.98C32.6653 15.812 33.1039 15.3453 33.9813 14.58C34.8493 13.8333 35.6706 12.8907 36.4453 11.752C36.8279 11.192 37.1453 10.5387 37.3973 9.792C37.6493 9.036 37.7753 8.32667 37.7753 7.664C37.7753 6.992 37.6959 6.446 37.5373 6.026C37.3879 5.606 37.2013 5.27933 36.9773 5.046C36.7626 4.81267 36.5433 4.612 36.3193 4.444C36.0953 4.276 35.9039 4.122 35.7453 3.982C35.5959 3.83267 35.5213 3.688 35.5213 3.548C35.5213 3.14667 35.7826 2.946 36.3053 2.946C36.9306 2.946 37.5466 3.34733 38.1533 4.15C38.7693 4.95267 39.0773 5.90467 39.0773 7.006Z" transform="translate(170 75)" fill="#360C90"/>
<path d="M6.986 2.75C7.182 2.75 7.35 2.82 7.49 2.96C7.63933 3.09067 7.714 3.226 7.714 3.366C7.714 3.49667 7.57867 3.674 7.308 3.898C7.04667 4.122 6.72 4.374 6.328 4.654C5.936 4.934 5.50667 5.298 5.04 5.746C4.57333 6.194 4.144 6.67 3.752 7.174C3.36 7.678 3.02867 8.29867 2.758 9.036C2.49667 9.77333 2.366 10.4873 2.366 11.178C2.366 11.8593 2.45933 12.4333 2.646 12.9C2.842 13.3573 3.08 13.726 3.36 14.006C3.64933 14.286 3.962 14.5427 4.298 14.776C4.634 15 4.94667 15.1773 5.236 15.308C5.89867 15.6253 6.23 15.882 6.23 16.078C6.23 16.2833 6.09467 16.386 5.824 16.386C5.376 16.386 4.89067 16.2693 4.368 16.036C3.84533 15.812 3.33667 15.4947 2.842 15.084C2.34733 14.6733 1.93667 14.1273 1.61 13.446C1.28333 12.7553 1.12 11.9713 1.12 11.094C1.12 10.2073 1.29267 9.30667 1.638 8.392C1.98333 7.468 2.408 6.67933 2.912 6.026C3.416 5.36333 3.948 4.78 4.508 4.276C5.068 3.76267 5.572 3.38 6.02 3.128C6.47733 2.876 6.79933 2.75 6.986 2.75ZM13.0109 4.976C14.3736 4.976 15.0549 5.12067 15.0549 5.41C15.0549 5.61533 14.2523 5.844 12.6469 6.096C11.9376 6.208 11.4896 6.28733 11.3029 6.334C11.1256 6.37133 10.9109 6.61867 10.6589 7.076C10.4163 7.524 10.2949 7.85067 10.2949 8.056C10.2949 8.252 10.3929 8.462 10.5889 8.686C10.7849 8.90067 11.0229 9.11533 11.3029 9.33C11.5923 9.53533 11.8816 9.75 12.1709 9.974C12.8429 10.506 13.1789 11.024 13.1789 11.528C13.1789 12.312 12.8056 13.04 12.0589 13.712C11.3123 14.384 10.5283 14.72 9.70692 14.72C9.06292 14.72 8.48426 14.5007 7.97092 14.062C7.45759 13.6233 7.20092 13.1893 7.20092 12.76C7.20092 12.4893 7.27559 12.354 7.42492 12.354C7.48092 12.354 7.61626 12.4613 7.83092 12.676C8.46559 13.3107 9.01626 13.628 9.48292 13.628C9.95892 13.628 10.4723 13.4087 11.0229 12.97C11.5829 12.5313 11.8629 12.0927 11.8629 11.654C11.8629 11.2527 11.5176 10.814 10.8269 10.338C10.5469 10.142 10.2623 9.94133 9.97292 9.736C9.69292 9.52133 9.45026 9.26933 9.24492 8.98C9.04892 8.69067 8.95092 8.35933 8.95092 7.986C8.95092 7.60333 9.16559 7.06667 9.59492 6.376C10.0243 5.676 10.3789 5.29333 10.6589 5.228C11.2376 5.06 12.0216 4.976 13.0109 4.976ZM16.7085 14.888C16.7085 15.476 16.4565 16.0967 15.9525 16.75C15.4485 17.4033 15.0145 17.73 14.6505 17.73C14.4638 17.73 14.3705 17.66 14.3705 17.52C14.3705 17.4267 14.4685 17.2633 14.6645 17.03C15.2525 16.33 15.5465 15.742 15.5465 15.266C15.5465 15.1167 15.4858 14.9953 15.3645 14.902C15.2431 14.7993 15.1218 14.7107 15.0005 14.636C14.8885 14.552 14.8325 14.4493 14.8325 14.328C14.8325 14.1973 14.9118 14.034 15.0705 13.838C15.2291 13.642 15.3971 13.544 15.5745 13.544C15.8731 13.544 16.1345 13.684 16.3585 13.964C16.5918 14.2347 16.7085 14.5427 16.7085 14.888ZM17.2965 10.296C17.0818 10.296 16.8251 10.1047 16.5265 9.722C16.2371 9.33933 16.0925 9.04067 16.0925 8.826C16.0925 8.602 16.1578 8.38267 16.2885 8.168C16.4285 7.944 16.5638 7.832 16.6945 7.832C16.9185 7.832 17.1425 8.098 17.3665 8.63C17.5905 9.162 17.7025 9.53067 17.7025 9.736C17.7025 9.94133 17.6605 10.086 17.5765 10.17C17.5018 10.254 17.4085 10.296 17.2965 10.296ZM31.0869 11.402C31.0869 12.186 30.6342 12.9373 29.7289 13.656C28.8236 14.3653 27.8762 14.72 26.8869 14.72C26.2989 14.72 25.8136 14.524 25.4309 14.132C25.0576 13.7307 24.8709 13.194 24.8709 12.522C24.8709 11.8407 25.0902 11.0287 25.5289 10.086C25.9769 9.14333 26.4856 8.30333 27.0549 7.566C27.6242 6.82867 28.1702 6.20333 28.6929 5.69C29.2249 5.17667 29.5842 4.92 29.7709 4.92C29.9669 4.92 30.1582 4.97133 30.3449 5.074C30.5316 5.16733 30.6249 5.26533 30.6249 5.368C30.6249 5.46133 30.4662 5.676 30.1489 6.012C28.8889 7.34667 27.9976 8.392 27.4749 9.148C28.5109 9.24133 29.3696 9.51667 30.0509 9.974C30.7416 10.422 31.0869 10.898 31.0869 11.402ZM27.0129 13.586C27.6289 13.586 28.2309 13.3667 28.8189 12.928C29.4162 12.4893 29.7149 12.018 29.7149 11.514C29.7149 11.1593 29.4629 10.8327 28.9589 10.534C28.4642 10.2353 27.8016 10.0347 26.9709 9.932C26.4016 10.9307 26.1169 11.8313 26.1169 12.634C26.1169 12.9513 26.1962 13.1893 26.3549 13.348C26.5229 13.5067 26.7422 13.586 27.0129 13.586ZM37.9562 7.006C37.9562 7.902 37.8255 8.784 37.5642 9.652C37.3122 10.5107 36.9855 11.2667 36.5842 11.92C36.1829 12.564 35.7395 13.166 35.2542 13.726C34.7782 14.2767 34.3115 14.7293 33.8542 15.084C32.8835 15.84 32.2209 16.218 31.8662 16.218C31.6515 16.218 31.5442 16.1387 31.5442 15.98C31.5442 15.812 31.9829 15.3453 32.8602 14.58C33.7282 13.8333 34.5495 12.8907 35.3242 11.752C35.7069 11.192 36.0242 10.5387 36.2762 9.792C36.5282 9.036 36.6542 8.32667 36.6542 7.664C36.6542 6.992 36.5749 6.446 36.4162 6.026C36.2669 5.606 36.0802 5.27933 35.8562 5.046C35.6415 4.81267 35.4222 4.612 35.1982 4.444C34.9742 4.276 34.7829 4.122 34.6242 3.982C34.4749 3.83267 34.4002 3.688 34.4002 3.548C34.4002 3.14667 34.6615 2.946 35.1842 2.946C35.8095 2.946 36.4255 3.34733 37.0322 4.15C37.6482 4.95267 37.9562 5.90467 37.9562 7.006Z" transform="translate(223 125)" fill="#360C90"/>
<path d="M4.608 25.64C3.68 25.64 2.808 25.28 1.992 24.56C1.176 23.824 0.768 22.96 0.768 21.968C0.768 20.96 1.104 19.8 1.776 18.488C2.448 17.176 3.312 16.056 4.368 15.128C5.44 14.2 6.48 13.736 7.488 13.736C8.144 13.736 8.72 14.032 9.216 14.624C9.712 15.216 9.96 15.736 9.96 16.184C9.96 16.312 9.92 16.424 9.84 16.52C9.76 16.6 9.64 16.64 9.48 16.64C9.336 16.64 9.072 16.496 8.688 16.208C8.304 15.92 7.96 15.776 7.656 15.776C6.792 15.776 5.784 16.536 4.632 18.056C3.48 19.576 2.904 20.904 2.904 22.04C2.904 22.536 3.056 22.928 3.36 23.216C3.68 23.504 4.184 23.648 4.872 23.648C5.576 23.648 6.216 23.568 6.792 23.408C7.384 23.232 7.84 23.064 8.16 22.904C8.48 22.728 8.728 22.64 8.904 22.64C9.208 22.64 9.36 22.792 9.36 23.096C9.36 23.56 8.8 24.104 7.68 24.728C6.576 25.336 5.552 25.64 4.608 25.64ZM12.0555 20.24C12.0555 19.968 13.5755 19.656 16.6155 19.304C19.6555 18.952 21.7035 18.776 22.7595 18.776C23.8315 18.776 24.3675 18.976 24.3675 19.376C24.3675 19.968 22.5035 20.512 18.7755 21.008C16.0875 21.344 14.1515 21.512 12.9675 21.512C12.7595 21.496 12.5515 21.336 12.3435 21.032C12.1515 20.712 12.0555 20.448 12.0555 20.24ZM12.8235 15.536C12.8395 15.2 14.0795 14.904 16.5435 14.648C19.0235 14.392 21.0555 14.264 22.6395 14.264C24.2235 14.264 25.0155 14.512 25.0155 15.008C25.0155 15.28 24.6635 15.496 23.9595 15.656C23.2715 15.816 21.6155 16.048 18.9915 16.352C16.3675 16.656 14.6235 16.808 13.7595 16.808C13.5515 16.808 13.3435 16.656 13.1355 16.352C12.9275 16.032 12.8235 15.76 12.8235 15.536ZM28.2041 9.56C28.2041 9.4 28.8601 9.224 30.1721 9.032C31.5001 8.84 32.7961 8.744 34.0601 8.744C35.3401 8.744 36.1481 8.856 36.4841 9.08C36.7561 9.288 36.9881 9.624 37.1801 10.088C37.3881 10.536 37.4921 10.904 37.4921 11.192C37.4921 11.48 37.4121 11.808 37.2521 12.176C37.1081 12.528 36.8921 12.96 36.6041 13.472C36.3161 13.968 36.0281 14.448 35.7401 14.912C35.4681 15.36 35.1401 15.896 34.7561 16.52C34.3721 17.128 34.0041 17.736 33.6521 18.344C33.3001 18.936 32.7081 19.992 31.8761 21.512C31.0601 23.032 30.4521 24.112 30.0521 24.752C29.6681 25.376 29.3721 25.688 29.1641 25.688C28.9561 25.688 28.7561 25.544 28.5641 25.256C28.3721 24.952 28.2761 24.656 28.2761 24.368C28.2761 23.84 28.8681 22.576 30.0521 20.576C31.2361 18.56 32.4201 16.584 33.6041 14.648C34.8041 12.696 35.4041 11.552 35.4041 11.216C35.4041 10.928 35.1321 10.784 34.5881 10.784C34.0601 10.784 33.2041 10.872 32.0201 11.048C30.8521 11.224 30.1081 11.312 29.7881 11.312C29.4681 11.312 29.1241 11.096 28.7561 10.664C28.3881 10.216 28.2041 9.848 28.2041 9.56Z" transform="translate(279 338)" fill="#360C90"/>
<path d="M7.128 13.736C7.848 13.736 8.512 14.104 9.12 14.84C9.728 15.56 10.032 16.216 10.032 16.808C10.032 17.384 9.832 17.976 9.432 18.584C9.624 18.824 9.72 19.032 9.72 19.208C9.72 19.656 9.616 20.424 9.408 21.512C9.216 22.6 9.096 23.312 9.048 23.648C9.016 23.984 8.984 24.256 8.952 24.464C8.92 24.656 8.88 24.848 8.832 25.04C8.768 25.44 8.624 25.64 8.4 25.64C8.112 25.64 7.872 25.392 7.68 24.896C7.504 24.384 7.4 23.728 7.368 22.928C5.944 24.736 4.624 25.64 3.408 25.64C2.672 25.64 1.944 25.328 1.224 24.704C0.52 24.064 0.168 23.408 0.168 22.736C0.168 21.776 0.52 20.592 1.224 19.184C1.928 17.76 2.84 16.496 3.96 15.392C5.08 14.288 6.136 13.736 7.128 13.736ZM8.232 17.96C8.232 16.472 7.936 15.728 7.344 15.728C6.72 15.728 5.992 16.176 5.16 17.072C4.328 17.952 3.624 18.952 3.048 20.072C2.472 21.192 2.184 22.08 2.184 22.736C2.184 23.008 2.296 23.232 2.52 23.408C2.744 23.568 3.008 23.648 3.312 23.648C4.064 23.648 4.912 23.144 5.856 22.136C6.8 21.112 7.456 19.872 7.824 18.416C7.872 18.176 8.008 18.032 8.232 17.984V17.96ZM12.618 20.24C12.618 19.968 14.138 19.656 17.178 19.304C20.218 18.952 22.266 18.776 23.322 18.776C24.394 18.776 24.93 18.976 24.93 19.376C24.93 19.968 23.066 20.512 19.338 21.008C16.65 21.344 14.714 21.512 13.53 21.512C13.322 21.496 13.114 21.336 12.906 21.032C12.714 20.712 12.618 20.448 12.618 20.24ZM13.386 15.536C13.402 15.2 14.642 14.904 17.106 14.648C19.586 14.392 21.618 14.264 23.202 14.264C24.786 14.264 25.578 14.512 25.578 15.008C25.578 15.28 25.226 15.496 24.522 15.656C23.834 15.816 22.178 16.048 19.554 16.352C16.93 16.656 15.186 16.808 14.322 16.808C14.114 16.808 13.906 16.656 13.698 16.352C13.49 16.032 13.386 15.76 13.386 15.536ZM38.1746 19.832C38.1746 21.176 37.3986 22.464 35.8466 23.696C34.2946 24.912 32.6706 25.52 30.9746 25.52C29.9666 25.52 29.1346 25.184 28.4786 24.512C27.8386 23.824 27.5186 22.904 27.5186 21.752C27.5186 20.584 27.8946 19.192 28.6466 17.576C29.4146 15.96 30.2866 14.52 31.2626 13.256C32.2386 11.992 33.1746 10.92 34.0706 10.04C34.9826 9.16 35.5986 8.72 35.9186 8.72C36.2546 8.72 36.5826 8.808 36.9026 8.984C37.2226 9.144 37.3826 9.312 37.3826 9.488C37.3826 9.648 37.1106 10.016 36.5666 10.592C34.4066 12.88 32.8786 14.672 31.9826 15.968C33.7586 16.128 35.2306 16.6 36.3986 17.384C37.5826 18.152 38.1746 18.968 38.1746 19.832ZM31.1906 23.576C32.2466 23.576 33.2786 23.2 34.2866 22.448C35.3106 21.696 35.8226 20.888 35.8226 20.024C35.8226 19.416 35.3906 18.856 34.5266 18.344C33.6786 17.832 32.5426 17.488 31.1186 17.312C30.1426 19.024 29.6546 20.568 29.6546 21.944C29.6546 22.488 29.7906 22.896 30.0626 23.168C30.3506 23.44 30.7266 23.576 31.1906 23.576Z" transform="translate(61 134)" fill="#360C90"/>
<path d="M1.776 25.64C1.552 25.64 1.288 25.472 0.984 25.136C0.68 24.784 0.528 24.456 0.528 24.152C0.528 23.848 0.776 22.808 1.272 21.032C1.784 19.256 2.288 17.12 2.784 14.624C3.296 12.112 3.552 9.816 3.552 7.736C3.552 7.256 3.728 7.016 4.08 7.016C4.336 7.016 4.648 7.256 5.016 7.736C5.384 8.2 5.568 8.656 5.568 9.104C5.568 11.072 5.136 13.88 4.272 17.528C6.176 14.952 7.904 13.664 9.456 13.664C10.208 13.664 10.84 14.032 11.352 14.768C11.88 15.504 12.144 16.384 12.144 17.408C12.144 18.416 11.848 19.576 11.256 20.888C10.68 22.2 9.896 23.328 8.904 24.272C7.912 25.2 6.872 25.664 5.784 25.664C4.696 25.664 3.624 25.112 2.568 24.008L2.544 24.032C2.192 25.104 1.936 25.64 1.776 25.64ZM5.592 23.792C6.632 23.792 7.648 23.088 8.64 21.68C9.648 20.256 10.152 18.76 10.152 17.192C10.152 16.248 9.864 15.776 9.288 15.776C8.36 15.776 7.32 16.424 6.168 17.72C5.032 19.016 4.048 20.56 3.216 22.352C3.968 23.312 4.76 23.792 5.592 23.792ZM13.9774 20.24C13.9774 19.968 15.4974 19.656 18.5374 19.304C21.5774 18.952 23.6254 18.776 24.6814 18.776C25.7534 18.776 26.2894 18.976 26.2894 19.376C26.2894 19.968 24.4254 20.512 20.6974 21.008C18.0094 21.344 16.0734 21.512 14.8894 21.512C14.6814 21.496 14.4734 21.336 14.2654 21.032C14.0734 20.712 13.9774 20.448 13.9774 20.24ZM14.7454 15.536C14.7614 15.2 16.0014 14.904 18.4654 14.648C20.9454 14.392 22.9774 14.264 24.5614 14.264C26.1454 14.264 26.9374 14.512 26.9374 15.008C26.9374 15.28 26.5854 15.496 25.8814 15.656C25.1934 15.816 23.5374 16.048 20.9134 16.352C18.2894 16.656 16.5454 16.808 15.6814 16.808C15.4734 16.808 15.2654 16.656 15.0574 16.352C14.8494 16.032 14.7454 15.76 14.7454 15.536ZM33.294 23.24C34.542 23.048 35.63 22.888 36.558 22.76C37.502 22.632 38.19 22.568 38.622 22.568C39.07 22.568 39.406 22.608 39.63 22.688C39.87 22.752 39.99 22.896 39.99 23.12C39.99 23.568 38.782 24.08 36.366 24.656C33.966 25.216 32.206 25.496 31.086 25.496C30.59 25.496 30.07 25.28 29.526 24.848C28.998 24.4 28.734 23.936 28.734 23.456C28.734 23.072 29.502 22.304 31.038 21.152C32.478 20.096 33.894 18.864 35.286 17.456C35.942 16.784 36.486 16.048 36.918 15.248C37.366 14.432 37.59 13.688 37.59 13.016C37.59 12.328 37.438 11.792 37.134 11.408C36.83 11.024 36.414 10.832 35.886 10.832C35.358 10.832 34.862 10.992 34.398 11.312C33.934 11.632 33.558 11.952 33.27 12.272C32.982 12.576 32.798 12.728 32.718 12.728C32.446 12.728 32.126 12.608 31.758 12.368C31.39 12.128 31.206 11.888 31.206 11.648C31.206 11.056 31.694 10.4 32.67 9.68C33.662 8.96 34.718 8.6 35.838 8.6C36.958 8.6 37.886 9 38.622 9.8C39.374 10.584 39.75 11.56 39.75 12.728C39.75 16.184 36.79 19.808 30.87 23.6C31.254 23.552 32.062 23.432 33.294 23.24Z" transform="translate(499 242)" fill="#360C90"/>
</g>
<defs>
<clipPath id="clip0">
<rect width="620" height="380" fill="white"/>
</clipPath>
</defs>
</svg>
