<svg width="620" height="380" viewBox="0 0 620 380" fill="none" xmlns="http://www.w3.org/2000/svg">
<g clip-path="url(#clip0)">
<rect width="620" height="380" fill="#D3C8FF"/>
<line y1="-0.5" x2="386" y2="-0.5" transform="rotate(90)" stroke="#C0AAEF"/>
<line y1="-0.5" x2="386" y2="-0.5" transform="translate(27) rotate(90)" stroke="#C0AAEF"/>
<line y1="-0.5" x2="386" y2="-0.5" transform="translate(54) rotate(90)" stroke="#C0AAEF"/>
<line y1="-0.5" x2="386" y2="-0.5" transform="translate(81) rotate(90)" stroke="#C0AAEF"/>
<line y1="-0.5" x2="386" y2="-0.5" transform="translate(108) rotate(90)" stroke="#C0AAEF"/>
<line y1="-0.5" x2="386" y2="-0.5" transform="translate(135) rotate(90)" stroke="#C0AAEF"/>
<line y1="-0.5" x2="386" y2="-0.5" transform="translate(162) rotate(90)" stroke="#C0AAEF"/>
<line y1="-0.5" x2="386" y2="-0.5" transform="translate(189) rotate(90)" stroke="#C0AAEF"/>
<line y1="-0.5" x2="386" y2="-0.5" transform="translate(216) rotate(90)" stroke="#C0AAEF"/>
<line y1="-0.5" x2="386" y2="-0.5" transform="translate(243) rotate(90)" stroke="#C0AAEF"/>
<line y1="-0.5" x2="386" y2="-0.5" transform="translate(270) rotate(90)" stroke="#C0AAEF"/>
<line y1="-0.5" x2="386" y2="-0.5" transform="translate(297) rotate(90)" stroke="#C0AAEF"/>
<line y1="-0.5" x2="386" y2="-0.5" transform="translate(324) rotate(90)" stroke="#C0AAEF"/>
<line y1="-0.5" x2="386" y2="-0.5" transform="translate(351) rotate(90)" stroke="#C0AAEF"/>
<line y1="-0.5" x2="386" y2="-0.5" transform="translate(378) rotate(90)" stroke="#C0AAEF"/>
<line y1="-0.5" x2="386" y2="-0.5" transform="translate(405) rotate(90)" stroke="#C0AAEF"/>
<line y1="-0.5" x2="386" y2="-0.5" transform="translate(432) rotate(90)" stroke="#C0AAEF"/>
<line y1="-0.5" x2="386" y2="-0.5" transform="translate(459) rotate(90)" stroke="#C0AAEF"/>
<line y1="-0.5" x2="386" y2="-0.5" transform="translate(486) rotate(90)" stroke="#C0AAEF"/>
<line y1="-0.5" x2="386" y2="-0.5" transform="translate(513) rotate(90)" stroke="#C0AAEF"/>
<line y1="-0.5" x2="386" y2="-0.5" transform="translate(540) rotate(90)" stroke="#C0AAEF"/>
<line y1="-0.5" x2="386" y2="-0.5" transform="translate(567) rotate(90)" stroke="#C0AAEF"/>
<line y1="-0.5" x2="386" y2="-0.5" transform="translate(594) rotate(90)" stroke="#C0AAEF"/>
<line y1="-0.5" x2="621" y2="-0.5" transform="translate(621 16) rotate(-180)" stroke="#C0AAEF"/>
<line y1="-0.5" x2="621" y2="-0.5" transform="translate(621 43) rotate(-180)" stroke="#C0AAEF"/>
<line y1="-0.5" x2="621" y2="-0.5" transform="translate(621 70) rotate(-180)" stroke="#C0AAEF"/>
<line y1="-0.5" x2="621" y2="-0.5" transform="translate(621 97) rotate(-180)" stroke="#C0AAEF"/>
<line y1="-0.5" x2="621" y2="-0.5" transform="translate(621 124) rotate(-180)" stroke="#C0AAEF"/>
<line y1="-0.5" x2="621" y2="-0.5" transform="translate(621 151) rotate(-180)" stroke="#C0AAEF"/>
<line y1="-0.5" x2="621" y2="-0.5" transform="translate(621 178) rotate(-180)" stroke="#C0AAEF"/>
<line y1="-0.5" x2="621" y2="-0.5" transform="translate(621 205) rotate(-180)" stroke="#C0AAEF"/>
<line y1="-0.5" x2="621" y2="-0.5" transform="translate(621 232) rotate(-180)" stroke="#C0AAEF"/>
<line y1="-0.5" x2="621" y2="-0.5" transform="translate(621 259) rotate(-180)" stroke="#C0AAEF"/>
<line y1="-0.5" x2="621" y2="-0.5" transform="translate(621 286) rotate(-180)" stroke="#C0AAEF"/>
<line y1="-0.5" x2="621" y2="-0.5" transform="translate(621 313) rotate(-180)" stroke="#C0AAEF"/>
<line y1="-0.5" x2="621" y2="-0.5" transform="translate(621 340) rotate(-180)" stroke="#C0AAEF"/>
<line y1="-0.5" x2="621" y2="-0.5" transform="translate(621 367) rotate(-180)" stroke="#C0AAEF"/>
<rect width="243" height="162" transform="translate(108 152)" fill="#C0AAEF" fill-opacity="0.59" stroke="#7C53D2" stroke-width="2" stroke-dasharray="10 10"/>
<circle cx="2.5" cy="2.5" r="2.5" transform="translate(187 149)" fill="#360C90"/>
<circle cx="2.5" cy="2.5" r="2.5" transform="translate(214 122)" fill="#360C90"/>
<circle cx="2.5" cy="2.5" r="2.5" transform="translate(133 203)" fill="#360C90"/>
<circle cx="2.5" cy="2.5" r="2.5" transform="translate(268 230)" fill="#360C90"/>
<circle cx="2.5" cy="2.5" r="2.5" transform="translate(349 149)" fill="#360C90"/>
<circle cx="2.5" cy="2.5" r="2.5" transform="translate(295 95)" fill="#360C90"/>
<circle cx="2.5" cy="2.5" r="2.5" transform="translate(376 257)" fill="#360C90"/>
<circle cx="2.5" cy="2.5" r="2.5" transform="translate(268 176)" fill="#360C90"/>
<circle cx="2.5" cy="2.5" r="2.5" transform="translate(403 95)" fill="#360C90"/>
<path d="M432.707 0.707107C433.098 0.316582 433.098 -0.316582 432.707 -0.707107L426.343 -7.07107C425.953 -7.46159 425.319 -7.46159 424.929 -7.07107C424.538 -6.68054 424.538 -6.04738 424.929 -5.65685L430.586 0L424.929 5.65685C424.538 6.04738 424.538 6.68054 424.929 7.07107C425.319 7.46159 425.953 7.46159 426.343 7.07107L432.707 0.707107ZM0 1H432V-1H0V1Z" transform="translate(81 314)" fill="#360C90"/>
<path d="M298.707 0.707107C299.098 0.316582 299.098 -0.316582 298.707 -0.707107L292.343 -7.07107C291.953 -7.46159 291.319 -7.46159 290.929 -7.07107C290.538 -6.68054 290.538 -6.04738 290.929 -5.65685L296.586 0L290.929 5.65685C290.538 6.04738 290.538 6.68054 290.929 7.07107C291.319 7.46159 291.953 7.46159 292.343 7.07107L298.707 0.707107ZM0 1H298V-1H0V1Z" transform="translate(108 342) rotate(-90)" fill="#360C90"/>
<path d="M8.982 3.25C9.234 3.25 9.45 3.34 9.63 3.52C9.822 3.688 9.918 3.862 9.918 4.042C9.918 4.21 9.744 4.438 9.396 4.726C9.06 5.014 8.64 5.338 8.136 5.698C7.632 6.058 7.08 6.526 6.48 7.102C5.88 7.678 5.328 8.29 4.824 8.938C4.32 9.586 3.894 10.384 3.546 11.332C3.21 12.28 3.042 13.198 3.042 14.086C3.042 14.962 3.162 15.7 3.402 16.3C3.654 16.888 3.96 17.362 4.32 17.722C4.692 18.082 5.094 18.412 5.526 18.712C5.958 19 6.36 19.228 6.732 19.396C7.584 19.804 8.01 20.134 8.01 20.386C8.01 20.65 7.836 20.782 7.488 20.782C6.912 20.782 6.288 20.632 5.616 20.332C4.944 20.044 4.29 19.636 3.654 19.108C3.018 18.58 2.49 17.878 2.07 17.002C1.65 16.114 1.44 15.106 1.44 13.978C1.44 12.838 1.662 11.68 2.106 10.504C2.55 9.316 3.096 8.302 3.744 7.462C4.392 6.61 5.076 5.86 5.796 5.212C6.516 4.552 7.164 4.06 7.74 3.736C8.328 3.412 8.742 3.25 8.982 3.25ZM11.3103 16.93C11.3103 17.158 11.4423 17.272 11.7063 17.272C12.1623 17.272 12.7143 17.146 13.3623 16.894C14.0223 16.63 14.3883 16.498 14.4603 16.498C14.6763 16.498 14.7843 16.612 14.7843 16.84C14.7843 17.188 14.4243 17.59 13.7043 18.046C12.9963 18.502 12.3483 18.73 11.7603 18.73C11.1843 18.73 10.7043 18.574 10.3203 18.262C9.93633 17.938 9.74433 17.608 9.74433 17.272C9.74433 16.936 9.81633 16.51 9.96033 15.994C10.1043 15.466 10.3083 14.776 10.5723 13.924C10.8483 13.06 11.0643 12.346 11.2203 11.782C10.6563 11.914 10.2783 11.98 10.0863 11.98C9.89433 11.98 9.70233 11.884 9.51033 11.692C9.33033 11.488 9.24033 11.296 9.24033 11.116C9.24033 10.828 10.0203 10.552 11.5803 10.288C11.7963 9.292 11.9043 8.41 11.9043 7.642C11.9043 7.282 12.0243 7.102 12.2643 7.102C12.4683 7.102 12.7203 7.234 13.0203 7.498C13.3203 7.75 13.4703 8.038 13.4703 8.362C13.4703 8.686 13.3683 9.256 13.1643 10.072C13.8483 10.012 14.3943 9.982 14.8023 9.982C15.5223 9.982 15.8823 10.138 15.8823 10.45C15.8823 10.63 15.6843 10.78 15.2883 10.9C14.9043 11.02 14.0883 11.206 12.8403 11.458C12.5883 12.406 12.2703 13.492 11.8863 14.716C11.5023 15.928 11.3103 16.666 11.3103 16.93ZM25.9999 18.856C25.9999 19.612 25.6759 20.41 25.0279 21.25C24.3799 22.09 23.8219 22.51 23.3539 22.51C23.1139 22.51 22.9939 22.42 22.9939 22.24C22.9939 22.12 23.1199 21.91 23.3719 21.61C24.1279 20.71 24.5059 19.954 24.5059 19.342C24.5059 19.15 24.4279 18.994 24.2719 18.874C24.1159 18.742 23.9599 18.628 23.8039 18.532C23.6599 18.424 23.5879 18.292 23.5879 18.136C23.5879 17.968 23.6899 17.758 23.8939 17.506C24.0979 17.254 24.3139 17.128 24.5419 17.128C24.9259 17.128 25.2619 17.308 25.5499 17.668C25.8499 18.016 25.9999 18.412 25.9999 18.856ZM26.7559 12.952C26.4799 12.952 26.1499 12.706 25.7659 12.214C25.3939 11.722 25.2079 11.338 25.2079 11.062C25.2079 10.774 25.2919 10.492 25.4599 10.216C25.6399 9.928 25.8139 9.784 25.9819 9.784C26.2699 9.784 26.5579 10.126 26.8459 10.81C27.1339 11.494 27.2779 11.968 27.2779 12.232C27.2779 12.496 27.2239 12.682 27.1159 12.79C27.0199 12.898 26.8999 12.952 26.7559 12.952ZM43.2444 9.802C43.4364 9.802 43.6404 9.946 43.8564 10.234C44.0844 10.51 44.1984 10.822 44.1984 11.17C44.1984 11.41 43.9524 12.226 43.4604 13.618C42.9684 15.01 42.6324 15.958 42.4524 16.462C42.2844 16.954 42.0504 17.614 41.7504 18.442C41.4624 19.258 41.1804 20.056 40.9044 20.836C40.3044 22.552 39.4044 23.41 38.2044 23.41C37.5204 23.41 36.8664 23.2 36.2424 22.78C35.6184 22.372 35.3064 21.946 35.3064 21.502C35.3064 21.334 35.3844 21.148 35.5404 20.944C35.6844 20.74 35.8104 20.638 35.9184 20.638C36.0264 20.638 36.2004 20.77 36.4404 21.034C37.1364 21.826 37.7304 22.222 38.2224 22.222C38.5944 22.222 38.9304 21.892 39.2304 21.232C39.5304 20.584 39.8124 19.846 40.0764 19.018C40.3524 18.202 40.5024 17.752 40.5264 17.668C40.5624 17.584 40.5984 17.476 40.6344 17.344C40.6824 17.212 40.7244 17.092 40.7604 16.984C39.9084 18.148 39.0684 18.73 38.2404 18.73C37.7364 18.73 37.2684 18.496 36.8364 18.028C36.4164 17.56 36.2064 17.008 36.2064 16.372C36.2064 15.736 36.3624 14.878 36.6744 13.798C36.9864 12.718 37.3524 11.782 37.7724 10.99C38.1924 10.198 38.5344 9.802 38.7984 9.802C39.0144 9.802 39.2124 9.904 39.3924 10.108C39.5844 10.3 39.6804 10.498 39.6804 10.702C39.6804 10.906 39.5244 11.332 39.2124 11.98C38.2404 13.972 37.7544 15.52 37.7544 16.624C37.7544 16.816 37.8144 16.978 37.9344 17.11C38.0544 17.23 38.1984 17.29 38.3664 17.29C38.7984 17.29 39.3144 16.906 39.9144 16.138C40.5144 15.37 41.0664 14.458 41.5704 13.402C41.9904 12.514 42.4284 11.38 42.8844 10C42.9324 9.868 43.0524 9.802 43.2444 9.802ZM58.9785 8.722C58.9785 9.874 58.8105 11.008 58.4745 12.124C58.1505 13.228 57.7305 14.2 57.2145 15.04C56.6985 15.868 56.1285 16.642 55.5045 17.362C54.8925 18.07 54.2925 18.652 53.7045 19.108C52.4565 20.08 51.6045 20.566 51.1485 20.566C50.8725 20.566 50.7345 20.464 50.7345 20.26C50.7345 20.044 51.2985 19.444 52.4265 18.46C53.5425 17.5 54.5985 16.288 55.5945 14.824C56.0865 14.104 56.4945 13.264 56.8185 12.304C57.1425 11.332 57.3045 10.42 57.3045 9.568C57.3045 8.704 57.2025 8.002 56.9985 7.462C56.8065 6.922 56.5665 6.502 56.2785 6.202C56.0025 5.902 55.7205 5.644 55.4325 5.428C55.1445 5.212 54.8985 5.014 54.6945 4.834C54.5025 4.642 54.4065 4.456 54.4065 4.276C54.4065 3.76 54.7425 3.502 55.4145 3.502C56.2185 3.502 57.0105 4.018 57.7905 5.05C58.5825 6.082 58.9785 7.306 58.9785 8.722Z" transform="translate(239 234)" fill="#360C90"/>
<path d="M-1.788 14.452C-1.444 14.892 -1.16 15.112 -0.936 15.112C-0.712 15.112 -0.524 14.992 -0.372 14.752C-0.22 14.512 -0.072 14.132 0.072 13.612C0.216 13.1 0.352 12.572 0.48 12.028C0.608 11.484 0.772 10.764 0.972 9.868C1.18 8.972 1.38 8.168 1.572 7.456C1.692 7.064 1.808 6.868 1.92 6.868C2.056 6.868 2.196 6.956 2.34 7.132C2.484 7.3 2.556 7.484 2.556 7.684C2.556 7.868 2.432 8.428 2.184 9.364C1.936 10.292 1.716 11.128 1.524 11.872C1.332 12.616 1.144 13.344 0.96 14.056C0.616 15.312 -0.00800002 15.94 -0.912 15.94C-1.312 15.94 -1.7 15.772 -2.076 15.436C-2.46 15.1 -2.652 14.812 -2.652 14.572C-2.652 14.468 -2.608 14.344 -2.52 14.2C-2.44 14.064 -2.364 13.996 -2.292 13.996C-2.204 13.996 -2.112 14.052 -2.016 14.164C-1.92 14.284 -1.844 14.38 -1.788 14.452ZM2.064 5.164C2.064 5.004 2.128 4.852 2.256 4.708C2.384 4.564 2.516 4.492 2.652 4.492C2.788 4.492 2.944 4.656 3.12 4.984C3.304 5.304 3.396 5.572 3.396 5.788C3.396 5.868 3.36 5.94 3.288 6.004C3.216 6.068 3.144 6.1 3.072 6.1C2.88 6.1 2.664 5.984 2.424 5.752C2.184 5.52 2.064 5.324 2.064 5.164Z" transform="translate(255 244)" fill="#360C90"/>
<path d="M3.432 23.24C3.432 23.544 3.608 23.696 3.96 23.696C4.568 23.696 5.304 23.528 6.168 23.192C7.048 22.84 7.536 22.664 7.632 22.664C7.92 22.664 8.064 22.816 8.064 23.12C8.064 23.584 7.584 24.12 6.624 24.728C5.68 25.336 4.816 25.64 4.032 25.64C3.264 25.64 2.624 25.432 2.112 25.016C1.6 24.584 1.344 24.144 1.344 23.696C1.344 23.248 1.44 22.68 1.632 21.992C1.824 21.288 2.096 20.368 2.448 19.232C2.816 18.08 3.104 17.128 3.312 16.376C2.56 16.552 2.056 16.64 1.8 16.64C1.544 16.64 1.288 16.512 1.032 16.256C0.792 15.984 0.672 15.728 0.672 15.488C0.672 15.104 1.712 14.736 3.792 14.384C4.08 13.056 4.224 11.88 4.224 10.856C4.224 10.376 4.384 10.136 4.704 10.136C4.976 10.136 5.312 10.312 5.712 10.664C6.112 11 6.312 11.384 6.312 11.816C6.312 12.248 6.176 13.008 5.904 14.096C6.816 14.016 7.544 13.976 8.088 13.976C9.048 13.976 9.528 14.184 9.528 14.6C9.528 14.84 9.264 15.04 8.736 15.2C8.224 15.36 7.136 15.608 5.472 15.944C5.136 17.208 4.712 18.656 4.2 20.288C3.688 21.904 3.432 22.888 3.432 23.24Z" transform="translate(345 309)" fill="#360C90"/>
<path d="M2.226 5.858C2.226 5.67133 2.30067 5.494 2.45 5.326C2.59933 5.158 2.74867 5.074 2.898 5.074C3.05667 5.074 3.24333 5.26533 3.458 5.648C3.67267 6.02133 3.78 6.334 3.78 6.586C3.78 6.67933 3.738 6.76333 3.654 6.838C3.57 6.91267 3.48133 6.95 3.388 6.95C3.164 6.95 2.912 6.81467 2.632 6.544C2.36133 6.27333 2.226 6.04467 2.226 5.858ZM2.156 7.846C2.33333 7.846 2.50133 7.95333 2.66 8.168C2.81867 8.38267 2.898 8.59267 2.898 8.798C2.898 9.00333 2.76267 9.61933 2.492 10.646C2.22133 11.6633 1.88067 12.8067 1.47 14.076C1.31133 14.5427 1.11067 14.776 0.868 14.776C0.737333 14.776 0.625333 14.7247 0.532 14.622C0.438667 14.51 0.392 14.3887 0.392 14.258C0.392 14.118 0.424667 13.9033 0.49 13.614C0.564667 13.3153 0.667333 12.9233 0.798 12.438C0.938 11.9433 1.04533 11.542 1.12 11.234C1.204 10.926 1.288 10.5807 1.372 10.198C1.456 9.806 1.52133 9.49333 1.568 9.26C1.624 9.01733 1.68467 8.77467 1.75 8.532C1.88067 8.07467 2.016 7.846 2.156 7.846Z" transform="translate(355 325)" fill="black"/>
<path d="M10.128 13.736C10.384 13.736 10.656 13.928 10.944 14.312C11.248 14.68 11.4 15.096 11.4 15.56C11.4 15.88 11.072 16.968 10.416 18.824C9.76 20.68 9.312 21.944 9.072 22.616C8.848 23.272 8.536 24.152 8.136 25.256C7.752 26.344 7.376 27.408 7.008 28.448C6.208 30.736 5.008 31.88 3.408 31.88C2.496 31.88 1.624 31.6 0.792 31.04C-0.04 30.496 -0.456 29.928 -0.456 29.336C-0.456 29.112 -0.352 28.864 -0.144 28.592C0.048 28.32 0.216 28.184 0.36 28.184C0.504 28.184 0.736 28.36 1.056 28.712C1.984 29.768 2.776 30.296 3.432 30.296C3.928 30.296 4.376 29.856 4.776 28.976C5.176 28.112 5.552 27.128 5.904 26.024C6.272 24.936 6.472 24.336 6.504 24.224C6.552 24.112 6.6 23.968 6.648 23.792C6.712 23.616 6.768 23.456 6.816 23.312C5.68 24.864 4.56 25.64 3.456 25.64C2.784 25.64 2.16 25.328 1.584 24.704C1.024 24.08 0.744 23.344 0.744 22.496C0.744 21.648 0.952 20.504 1.368 19.064C1.784 17.624 2.272 16.376 2.832 15.32C3.392 14.264 3.848 13.736 4.2 13.736C4.488 13.736 4.752 13.872 4.992 14.144C5.248 14.4 5.376 14.664 5.376 14.936C5.376 15.208 5.168 15.776 4.752 16.64C3.456 19.296 2.808 21.36 2.808 22.832C2.808 23.088 2.888 23.304 3.048 23.48C3.208 23.64 3.4 23.72 3.624 23.72C4.2 23.72 4.888 23.208 5.688 22.184C6.488 21.16 7.224 19.944 7.896 18.536C8.456 17.352 9.04 15.84 9.648 14C9.712 13.824 9.872 13.736 10.128 13.736Z" transform="translate(81 130)" fill="#360C90"/>
<path d="M2.226 5.858C2.226 5.67133 2.30067 5.494 2.45 5.326C2.59933 5.158 2.74867 5.074 2.898 5.074C3.05667 5.074 3.24333 5.26533 3.458 5.648C3.67267 6.02133 3.78 6.334 3.78 6.586C3.78 6.67933 3.738 6.76333 3.654 6.838C3.57 6.91267 3.48133 6.95 3.388 6.95C3.164 6.95 2.912 6.81467 2.632 6.544C2.36133 6.27333 2.226 6.04467 2.226 5.858ZM2.156 7.846C2.33333 7.846 2.50133 7.95333 2.66 8.168C2.81867 8.38267 2.898 8.59267 2.898 8.798C2.898 9.00333 2.76267 9.61933 2.492 10.646C2.22133 11.6633 1.88067 12.8067 1.47 14.076C1.31133 14.5427 1.11067 14.776 0.868 14.776C0.737333 14.776 0.625333 14.7247 0.532 14.622C0.438667 14.51 0.392 14.3887 0.392 14.258C0.392 14.118 0.424667 13.9033 0.49 13.614C0.564667 13.3153 0.667333 12.9233 0.798 12.438C0.938 11.9433 1.04533 11.542 1.12 11.234C1.204 10.926 1.288 10.5807 1.372 10.198C1.456 9.806 1.52133 9.49333 1.568 9.26C1.624 9.01733 1.68467 8.77467 1.75 8.532C1.88067 8.07467 2.016 7.846 2.156 7.846Z" transform="translate(91 151)" fill="#360C90"/>
<path d="M-1.788 14.452C-1.444 14.892 -1.16 15.112 -0.936 15.112C-0.712 15.112 -0.524 14.992 -0.372 14.752C-0.22 14.512 -0.072 14.132 0.072 13.612C0.216 13.1 0.352 12.572 0.48 12.028C0.608 11.484 0.772 10.764 0.972 9.868C1.18 8.972 1.38 8.168 1.572 7.456C1.692 7.064 1.808 6.868 1.92 6.868C2.056 6.868 2.196 6.956 2.34 7.132C2.484 7.3 2.556 7.484 2.556 7.684C2.556 7.868 2.432 8.428 2.184 9.364C1.936 10.292 1.716 11.128 1.524 11.872C1.332 12.616 1.144 13.344 0.96 14.056C0.616 15.312 -0.00800002 15.94 -0.912 15.94C-1.312 15.94 -1.7 15.772 -2.076 15.436C-2.46 15.1 -2.652 14.812 -2.652 14.572C-2.652 14.468 -2.608 14.344 -2.52 14.2C-2.44 14.064 -2.364 13.996 -2.292 13.996C-2.204 13.996 -2.112 14.052 -2.016 14.164C-1.92 14.284 -1.844 14.38 -1.788 14.452ZM2.064 5.164C2.064 5.004 2.128 4.852 2.256 4.708C2.384 4.564 2.516 4.492 2.652 4.492C2.788 4.492 2.944 4.656 3.12 4.984C3.304 5.304 3.396 5.572 3.396 5.788C3.396 5.868 3.36 5.94 3.288 6.004C3.216 6.068 3.144 6.1 3.072 6.1C2.88 6.1 2.664 5.984 2.424 5.752C2.184 5.52 2.064 5.324 2.064 5.164Z" transform="translate(283 244)" fill="#360C90"/>
</g>
<defs>
<clipPath id="clip0">
<rect width="620" height="380" fill="white"/>
</clipPath>
</defs>
</svg>
