<svg width="620" height="380" viewBox="0 0 620 380" fill="none" xmlns="http://www.w3.org/2000/svg">
<rect width="620" height="380" fill="white"/>
<path d="M0 380H620V0H0V380Z" fill="#D3C8FF"/>
<path d="M0 304.6H591.4V0H0V304.6Z" transform="translate(14.3 57.1)" fill="#D3C8FF"/>
<path d="M2.5 5C3.16301 5 3.79895 4.73658 4.26777 4.26777C4.73658 3.79895 5 3.16301 5 2.5C5 1.83699 4.73658 1.20105 4.26777 0.732233C3.79895 0.263416 3.16301 0 2.5 0C1.83699 0 1.20105 0.263416 0.732233 0.732233C0.263416 1.20105 0 1.83699 0 2.5C0 3.16301 0.263416 3.79895 0.732233 4.26777C1.20105 4.73658 1.83699 5 2.5 5Z" transform="translate(384.639 333.817)" fill="#FF9649" stroke="#FF9649"/>
<path d="M2.5 5C3.16301 5 3.79895 4.73658 4.26777 4.26777C4.73658 3.79895 5 3.16301 5 2.5C5 1.83699 4.73658 1.20105 4.26777 0.732233C3.79895 0.263416 3.16301 0 2.5 0C1.83699 0 1.20105 0.263416 0.732233 0.732233C0.263416 1.20105 0 1.83699 0 2.5C0 3.16301 0.263416 3.79895 0.732233 4.26777C1.20105 4.73658 1.83699 5 2.5 5Z" transform="translate(230.361 333.817)" fill="#FF9649" stroke="#FF9649"/>
<path d="M2.5 5C3.16301 5 3.79895 4.73658 4.26777 4.26777C4.73658 3.79895 5 3.16301 5 2.5C5 1.83699 4.73658 1.20105 4.26777 0.732233C3.79895 0.263416 3.16301 0 2.5 0C1.83699 0 1.20105 0.263416 0.732233 0.732233C0.263416 1.20105 0 1.83699 0 2.5C0 3.16301 0.263416 3.79895 0.732233 4.26777C1.20105 4.73658 1.83699 5 2.5 5Z" transform="translate(204.648 283.05)" fill="#FF9649" stroke="#FF9649"/>
<path d="M2.5 5C3.16301 5 3.79895 4.73658 4.26777 4.26777C4.73658 3.79895 5 3.16301 5 2.5C5 1.83699 4.73658 1.20105 4.26777 0.732233C3.79895 0.263416 3.16301 0 2.5 0C1.83699 0 1.20105 0.263416 0.732233 0.732233C0.263416 1.20105 0 1.83699 0 2.5C0 3.16301 0.263416 3.79895 0.732233 4.26777C1.20105 4.73658 1.83699 5 2.5 5Z" transform="translate(410.352 79.9833)" fill="#388EF3" stroke="#388EF3"/>
<path d="M2.5 5C3.16301 5 3.79895 4.73658 4.26777 4.26777C4.73658 3.79895 5 3.16301 5 2.5C5 1.83699 4.73658 1.20105 4.26777 0.732233C3.79895 0.263416 3.16301 0 2.5 0C1.83699 0 1.20105 0.263416 0.732233 0.732233C0.263416 1.20105 0 1.83699 0 2.5C0 3.16301 0.263416 3.79895 0.732233 4.26777C1.20105 4.73658 1.83699 5 2.5 5Z" transform="translate(436.065 130.75)" fill="#388EF3" stroke="#388EF3"/>
<path d="M2.5 5C3.16301 5 3.79895 4.73658 4.26777 4.26777C4.73658 3.79895 5 3.16301 5 2.5C5 1.83699 4.73658 1.20105 4.26777 0.732233C3.79895 0.263416 3.16301 0 2.5 0C1.83699 0 1.20105 0.263416 0.732233 0.732233C0.263416 1.20105 0 1.83699 0 2.5C0 3.16301 0.263416 3.79895 0.732233 4.26777C1.20105 4.73658 1.83699 5 2.5 5Z" transform="translate(358.926 79.9833)" fill="#388EF3" stroke="#388EF3"/>
<path d="M2.5 5C3.16301 5 3.79895 4.73658 4.26777 4.26777C4.73658 3.79895 5 3.16301 5 2.5C5 1.83699 4.73658 1.20105 4.26777 0.732233C3.79895 0.263416 3.16301 0 2.5 0C1.83699 0 1.20105 0.263416 0.732233 0.732233C0.263416 1.20105 0 1.83699 0 2.5C0 3.16301 0.263416 3.79895 0.732233 4.26777C1.20105 4.73658 1.83699 5 2.5 5Z" transform="translate(410.352 232.283)" fill="#388EF3" stroke="#388EF3"/>
<path d="M2.5 5C3.16301 5 3.79895 4.73658 4.26777 4.26777C4.73658 3.79895 5 3.16301 5 2.5C5 1.83699 4.73658 1.20105 4.26777 0.732233C3.79895 0.263416 3.16301 0 2.5 0C1.83699 0 1.20105 0.263416 0.732233 0.732233C0.263416 1.20105 0 1.83699 0 2.5C0 3.16301 0.263416 3.79895 0.732233 4.26777C1.20105 4.73658 1.83699 5 2.5 5Z" transform="translate(281.787 130.75)" fill="#388EF3" stroke="#388EF3"/>
<path opacity="0.1" d="M0 304.6V0" transform="translate(27.1565 57.1)" stroke="#360C90" stroke-dasharray="3 3"/>
<path d="M0 0V3.5Z" transform="translate(27.1565 209.4)" fill="#360C90"/>
<path d="M0 0V3.5" transform="translate(27.1565 209.4)" stroke="#360C90" stroke-width="0.8"/>
<path d="M55.0938 8.20312C55.0938 5.79688 49.4583 3.82812 38.1875 2.29688C26.9271 0.765625 16.2656 0 6.20312 0C4.59896 0 3.16146 0.666667 1.89062 2C0.630208 3.33333 0 4.69792 0 6.09375C0 7.5 0.901042 8.20312 2.70312 8.20312C9.03646 8.20312 13.8854 8.23438 17.25 8.29688C20.6146 8.36979 26.2604 8.73958 34.1875 9.40625C42.125 10.0729 46.7969 10.4062 48.2031 10.4062C52.7969 10.4062 55.0938 9.67188 55.0938 8.20312Z" transform="translate(20.2678 222.531) scale(0.12 -0.12)" fill="#360C90"/>
<path d="M20.2969 64.3906C20.2969 57.2656 18.599 47 15.2031 33.5938C14.474 30.9271 13.6406 27.625 12.7031 23.6875C11.7656 19.7604 10.9948 16.6146 10.3906 14.25C9.79688 11.8854 9.13542 9.5 8.40625 7.09375C7.07292 2.36458 5.77083 0 4.5 0C3.57292 0 2.58854 0.666667 1.54688 2C0.515625 3.33333 0 4.71354 0 6.14062C0 7.57812 0.713542 11.0312 2.14062 16.5C3.57812 21.9688 5.19792 29.4323 7 38.8906C8.80208 48.3594 10.0365 58.3281 10.7031 68.7969C10.901 70.8594 11.6667 71.8906 13 71.8906C14.4688 71.8906 16.0521 70.9583 17.75 69.0938C19.4479 67.2292 20.2969 65.6615 20.2969 64.3906Z" transform="translate(27.8034 225.807) scale(0.12 -0.12)" fill="#360C90"/>
<path d="M20.2969 64.3906C20.2969 57.2656 18.599 47 15.2031 33.5938C14.474 30.9271 13.6406 27.625 12.7031 23.6875C11.7656 19.7604 10.9948 16.6146 10.3906 14.25C9.79688 11.8854 9.13542 9.5 8.40625 7.09375C7.07292 2.36458 5.77083 0 4.5 0C3.57292 0 2.58854 0.666667 1.54688 2C0.515625 3.33333 0 4.71354 0 6.14062C0 7.57812 0.713542 11.0312 2.14062 16.5C3.57812 21.9688 5.19792 29.4323 7 38.8906C8.80208 48.3594 10.0365 58.3281 10.7031 68.7969C10.901 70.8594 11.6667 71.8906 13 71.8906C14.4688 71.8906 16.0521 70.9583 17.75 69.0938C19.4479 67.2292 20.2969 65.6615 20.2969 64.3906Z" transform="translate(31.5714 225.807) scale(0.12 -0.12)" fill="#360C90"/>
<path opacity="0.1" d="M0 304.6V0" transform="translate(52.8696 57.1)" stroke="#360C90" stroke-dasharray="3 3"/>
<path d="M0 0V3.5Z" transform="translate(52.8696 209.4)" fill="#360C90"/>
<path d="M0 0V3.5" transform="translate(52.8696 209.4)" stroke="#360C90" stroke-width="0.8"/>
<path d="M55.0938 8.20312C55.0938 5.79688 49.4583 3.82812 38.1875 2.29688C26.9271 0.765625 16.2656 0 6.20312 0C4.59896 0 3.16146 0.666667 1.89062 2C0.630208 3.33333 0 4.69792 0 6.09375C0 7.5 0.901042 8.20312 2.70312 8.20312C9.03646 8.20312 13.8854 8.23438 17.25 8.29688C20.6146 8.36979 26.2604 8.73958 34.1875 9.40625C42.125 10.0729 46.7969 10.4062 48.2031 10.4062C52.7969 10.4062 55.0938 9.67188 55.0938 8.20312Z" transform="translate(44.8652 222.531) scale(0.12 -0.12)" fill="#360C90"/>
<path d="M20.2969 64.3906C20.2969 57.2656 18.599 47 15.2031 33.5938C14.474 30.9271 13.6406 27.625 12.7031 23.6875C11.7656 19.7604 10.9948 16.6146 10.3906 14.25C9.79688 11.8854 9.13542 9.5 8.40625 7.09375C7.07292 2.36458 5.77083 0 4.5 0C3.57292 0 2.58854 0.666667 1.54688 2C0.515625 3.33333 0 4.71354 0 6.14062C0 7.57812 0.713542 11.0312 2.14062 16.5C3.57812 21.9688 5.19792 29.4323 7 38.8906C8.80208 48.3594 10.0365 58.3281 10.7031 68.7969C10.901 70.8594 11.6667 71.8906 13 71.8906C14.4688 71.8906 16.0521 70.9583 17.75 69.0938C19.4479 67.2292 20.2969 65.6615 20.2969 64.3906Z" transform="translate(52.4008 225.807) scale(0.12 -0.12)" fill="#360C90"/>
<path d="M32.8906 47C32.8906 57.4688 31.3594 62.7031 28.2969 62.7031C26.901 62.7031 25.1198 61.3177 22.9531 58.5469C20.7865 55.7865 18.6823 52.3385 16.6406 48.2031C14.6094 44.0677 12.875 39.349 11.4375 34.0469C10.0104 28.7552 9.29688 23.875 9.29688 19.4062C9.29688 11.7396 11.3281 7.90625 15.3906 7.90625C17.3281 7.90625 19.6771 10.0365 22.4375 14.2969C25.2083 18.5677 27.6406 23.8333 29.7344 30.0938C31.8385 36.3646 32.8906 42 32.8906 47ZM41.8906 37.7031C36.7656 22.901 32.0677 12.9167 27.7969 7.75C23.526 2.58333 19.3385 0 15.2344 0C11.1406 0 7.57812 1.88021 4.54688 5.64062C1.51562 9.41146 0 13.6302 0 18.2969C0 26.3698 1.47917 34.5365 4.4375 42.7969C7.40625 51.0677 11.1406 57.8177 15.6406 63.0469C20.1406 68.2865 24.4896 70.9062 28.6875 70.9062C32.8958 70.9062 36.1458 68.9219 38.4375 64.9531C40.7396 60.9844 41.8906 55.4479 41.8906 48.3438C41.8906 41.25 39.3281 30.3021 34.2031 15.5L41.8906 37.7031Z" transform="translate(55.9775 225.676) scale(0.12 -0.12)" fill="#360C90"/>
<path opacity="0.1" d="M0 304.6V0" transform="translate(78.5826 57.1)" stroke="#360C90" stroke-dasharray="3 3"/>
<path d="M0 0V3.5Z" transform="translate(78.5826 209.4)" fill="#360C90"/>
<path d="M0 0V3.5" transform="translate(78.5826 209.4)" stroke="#360C90" stroke-width="0.8"/>
<path d="M55.0938 8.20312C55.0938 5.79688 49.4583 3.82812 38.1875 2.29688C26.9271 0.765625 16.2656 0 6.20312 0C4.59896 0 3.16146 0.666667 1.89062 2C0.630208 3.33333 0 4.69792 0 6.09375C0 7.5 0.901042 8.20312 2.70312 8.20312C9.03646 8.20312 13.8854 8.23438 17.25 8.29688C20.6146 8.36979 26.2604 8.73958 34.1875 9.40625C42.125 10.0729 46.7969 10.4062 48.2031 10.4062C52.7969 10.4062 55.0938 9.67188 55.0938 8.20312Z" transform="translate(72.5348 222.531) scale(0.12 -0.12)" fill="#360C90"/>
<path d="M40.0938 50.4062C40.0938 49.0729 39.2448 46.2031 37.5469 41.7969C35.849 37.401 34.4792 33.6354 33.4375 30.5C32.4062 27.3646 31.2708 22.9479 30.0312 17.25C28.8021 11.5521 27.8021 7.25 27.0312 4.34375C26.2708 1.44792 25.4583 0 24.5938 0C22.3229 0 21.1875 2.66667 21.1875 8C21.1875 13.3333 22.9896 21.8333 26.5938 33.5C21.7292 29.7708 17.4635 27.9062 13.7969 27.9062C10.1302 27.9062 6.91146 29.3385 4.14062 32.2031C1.38021 35.0677 0 38.3646 0 42.0938C0 45.8333 1.29688 50.0833 3.89062 54.8438C6.49479 59.6146 9.88021 63.6823 14.0469 67.0469C18.2135 70.4115 22.1615 72.0938 25.8906 72.0938C29.6302 72.0938 32.5 70.8438 34.5 68.3438C36.5 65.8438 37.5 63.2917 37.5 60.6875C37.5 58.0938 37.2656 56.0625 36.7969 54.5938C38.9948 54.1979 40.0938 52.8021 40.0938 50.4062ZM28.8906 51.9062L29.7969 58.5938C29.7969 60.0625 29.4427 61.2812 28.7344 62.25C28.0365 63.2188 27.0573 63.7031 25.7969 63.7031C22.2656 63.7031 18.3958 60.901 14.1875 55.2969C9.98958 49.7031 7.89062 44.9375 7.89062 41C7.89062 39.3333 8.47396 38 9.64062 37C10.8073 36 12.0052 35.5 13.2344 35.5C14.474 35.5 15.4948 35.599 16.2969 35.7969C17.099 35.9948 17.8958 36.3125 18.6875 36.75C19.4896 37.1875 20.2083 37.6042 20.8438 38C21.4792 38.3958 22.1771 38.9948 22.9375 39.7969C23.7083 40.599 24.3281 41.2344 24.7969 41.7031C25.2656 42.1719 25.8802 42.9062 26.6406 43.9062C27.4115 44.9062 27.9635 45.6042 28.2969 46C29.5573 47.7292 30.5208 49.0938 31.1875 50.0938C29.6562 50.3021 28.8906 50.9062 28.8906 51.9062Z" transform="translate(80.0836 225.831) scale(0.12 -0.12)" fill="#360C90"/>
<path opacity="0.1" d="M0 304.6V0" transform="translate(104.296 57.1)" stroke="#360C90" stroke-dasharray="3 3"/>
<path d="M0 0V3.5Z" transform="translate(104.296 209.4)" fill="#360C90"/>
<path d="M0 0V3.5" transform="translate(104.296 209.4)" stroke="#360C90" stroke-width="0.8"/>
<path d="M55.0938 8.20312C55.0938 5.79688 49.4583 3.82812 38.1875 2.29688C26.9271 0.765625 16.2656 0 6.20312 0C4.59896 0 3.16146 0.666667 1.89062 2C0.630208 3.33333 0 4.69792 0 6.09375C0 7.5 0.901042 8.20312 2.70312 8.20312C9.03646 8.20312 13.8854 8.23438 17.25 8.29688C20.6146 8.36979 26.2604 8.73958 34.1875 9.40625C42.125 10.0729 46.7969 10.4062 48.2031 10.4062C52.7969 10.4062 55.0938 9.67188 55.0938 8.20312Z" transform="translate(97.5635 222.531) scale(0.12 -0.12)" fill="#360C90"/>
<path d="M27.5 70.7031C37.9062 70.7031 44.4427 69.6354 47.1094 67.5C49.776 65.3646 51.1094 62.5104 51.1094 58.9375C51.1094 55.375 49.375 51.6406 45.9062 47.7344C42.4375 43.8385 37.6042 39.4271 31.4062 34.5C37.6042 28.6354 40.7031 23.6354 40.7031 19.5C40.7031 16.2292 39.25 13.0417 36.3438 9.9375C33.4479 6.84375 29.9479 4.41146 25.8438 2.64062C21.75 0.880208 18.0365 0 14.7031 0C11.3698 0 8.08333 1.21354 4.84375 3.64062C1.61458 6.07812 0 8.82812 0 11.8906C0 14.9635 1.63542 18.3802 4.90625 22.1406C8.17708 25.9115 12.7083 30.1615 18.5 34.8906C8.83333 42.3594 3.16667 47.3281 1.5 49.7969C0.572917 51.1302 0.109375 52.3802 0.109375 53.5469C0.109375 54.7135 0.291667 55.8802 0.65625 57.0469C1.02083 58.2135 1.50521 58.7969 2.10938 58.7969C2.70312 58.7969 3.53125 58.2448 4.59375 57.1406C5.66667 56.0469 6.65104 55.0625 7.54688 54.1875C8.45312 53.3229 9.92188 52.0573 11.9531 50.3906C13.9844 48.724 16.3021 46.8906 18.9062 44.8906C21.5104 42.8906 23.5104 41.2917 24.9062 40.0938C28.8438 43.2292 31.8125 45.6615 33.8125 47.3906C35.8125 49.1302 37.7292 51.099 39.5625 53.2969C41.3958 55.4948 42.3125 57.3281 42.3125 58.7969C42.3125 61.3281 40.625 62.5938 37.25 62.5938C33.8854 62.5938 30.0365 61.776 25.7031 60.1406C21.3698 58.5156 18.7344 57.7031 17.7969 57.7031C16.8698 57.7031 15.6875 58.2031 14.25 59.2031C12.8229 60.2031 12.1094 61.1667 12.1094 62.0938C12.1094 64.0938 14.6719 66.026 19.7969 67.8906C24.9323 69.7656 32.7031 70.7031 43.1094 70.7031H27.5ZM31.7031 20.7969C31.7031 22.6615 29.5052 25.5625 25.1094 29.5C21.5052 26.6354 18.7344 24.3854 16.7969 22.75C14.8698 21.1146 13.0729 19.2969 11.4062 17.2969C9.73958 15.2969 8.90625 13.6771 8.90625 12.4375C8.90625 11.2083 9.48958 10.0938 10.6562 9.09375C11.8229 8.09375 13.1042 7.59375 14.5 7.59375C18.1667 7.59375 21.9479 8.94271 25.8438 11.6406C29.75 14.349 31.7031 17.401 31.7031 20.7969Z" transform="translate(105.375 225.627) scale(0.12 -0.12)" fill="#360C90"/>
<path opacity="0.1" d="M0 304.6V0" transform="translate(130.009 57.1)" stroke="#360C90" stroke-dasharray="3 3"/>
<path d="M0 0V3.5Z" transform="translate(130.009 209.4)" fill="#360C90"/>
<path d="M0 0V3.5" transform="translate(130.009 209.4)" stroke="#360C90" stroke-width="0.8"/>
<path d="M55.0938 8.20312C55.0938 5.79688 49.4583 3.82812 38.1875 2.29688C26.9271 0.765625 16.2656 0 6.20312 0C4.59896 0 3.16146 0.666667 1.89062 2C0.630208 3.33333 0 4.69792 0 6.09375C0 7.5 0.901042 8.20312 2.70312 8.20312C9.03646 8.20312 13.8854 8.23438 17.25 8.29688C20.6146 8.36979 26.2604 8.73958 34.1875 9.40625C42.125 10.0729 46.7969 10.4062 48.2031 10.4062C52.7969 10.4062 55.0938 9.67188 55.0938 8.20312Z" transform="translate(124.123 222.531) scale(0.12 -0.12)" fill="#360C90"/>
<path d="M0 67.2031C0 67.8698 2.75 68.6042 8.25 69.4062C13.75 70.2083 19.1458 70.6094 24.4375 70.6094C29.7396 70.6094 33.0938 70.1406 34.5 69.2031C35.625 68.3385 36.6042 66.9531 37.4375 65.0469C38.2708 63.151 38.6875 61.6042 38.6875 60.4062C38.6875 59.2083 38.3698 57.8594 37.7344 56.3594C37.1094 54.8594 36.1927 53.0573 34.9844 50.9531C33.7865 48.849 32.6042 46.849 31.4375 44.9531C30.2708 43.0573 28.8854 40.8229 27.2812 38.25C25.6875 35.6875 24.1562 33.1562 22.6875 30.6562C21.2292 28.1562 18.7812 23.7396 15.3438 17.4062C11.9062 11.0729 9.36979 6.58854 7.73438 3.95312C6.10938 1.31771 4.85938 0 3.98438 0C3.11979 0 2.28646 0.614583 1.48438 1.84375C0.692708 3.08333 0.296875 4.30208 0.296875 5.5C0.296875 7.69792 2.76042 12.9792 7.6875 21.3438C12.625 29.7188 17.5781 37.9531 22.5469 46.0469C27.5156 54.151 30 58.901 30 60.2969C30 61.5052 28.8802 62.1094 26.6406 62.1094C24.4115 62.1094 20.8438 61.7396 15.9375 61C11.0417 60.2708 7.92708 59.9062 6.59375 59.9062C5.26042 59.9062 3.82812 60.8229 2.29688 62.6562C0.765625 64.4896 0 66.0052 0 67.2031Z" transform="translate(132.032 225.736) scale(0.12 -0.12)" fill="#360C90"/>
<path opacity="0.1" d="M0 304.6V0" transform="translate(155.722 57.1)" stroke="#360C90" stroke-dasharray="3 3"/>
<path d="M0 0V3.5Z" transform="translate(155.722 209.4)" fill="#360C90"/>
<path d="M0 0V3.5" transform="translate(155.722 209.4)" stroke="#360C90" stroke-width="0.8"/>
<path d="M55.0938 8.20312C55.0938 5.79688 49.4583 3.82812 38.1875 2.29688C26.9271 0.765625 16.2656 0 6.20312 0C4.59896 0 3.16146 0.666667 1.89062 2C0.630208 3.33333 0 4.69792 0 6.09375C0 7.5 0.901042 8.20312 2.70312 8.20312C9.03646 8.20312 13.8854 8.23438 17.25 8.29688C20.6146 8.36979 26.2604 8.73958 34.1875 9.40625C42.125 10.0729 46.7969 10.4062 48.2031 10.4062C52.7969 10.4062 55.0938 9.67188 55.0938 8.20312Z" transform="translate(149.266 222.531) scale(0.12 -0.12)" fill="#360C90"/>
<path d="M44.3906 23.7031C44.3906 18.099 41.1562 12.7448 34.6875 7.64062C28.2292 2.54688 21.4635 0 14.3906 0C10.1927 0 6.74479 1.41667 4.04688 4.25C1.34896 7.08333 0 10.9167 0 15.75C0 20.5833 1.58333 26.3646 4.75 33.0938C7.91667 39.8333 11.5312 45.8333 15.5938 51.0938C19.6667 56.3646 23.5833 60.8333 27.3438 64.5C31.1146 68.1667 33.6823 70 35.0469 70C36.4115 70 37.7604 69.651 39.0938 68.9531C40.4271 68.2552 41.0938 67.5521 41.0938 66.8438C41.0938 66.1458 39.9635 64.599 37.7031 62.2031C28.7031 52.6719 22.3333 45.2031 18.5938 39.7969C26 39.1302 32.151 37.1771 37.0469 33.9375C41.9427 30.7083 44.3906 27.2969 44.3906 23.7031ZM15.2969 8.09375C19.6927 8.09375 24.0052 9.66146 28.2344 12.7969C32.474 15.9323 34.5938 19.3021 34.5938 22.9062C34.5938 25.4375 32.8073 27.7656 29.2344 29.8906C25.6719 32.026 20.9271 33.4635 15 34.2031C10.9271 27.0677 8.89062 20.6354 8.89062 14.9062C8.89062 12.6354 9.47396 10.9323 10.6406 9.79688C11.8073 8.66146 13.3594 8.09375 15.2969 8.09375Z" transform="translate(156.55 225.651) scale(0.12 -0.12)" fill="#360C90"/>
<path opacity="0.1" d="M0 304.6V0" transform="translate(181.435 57.1)" stroke="#360C90" stroke-dasharray="3 3"/>
<path d="M0 0V3.5Z" transform="translate(181.435 209.4)" fill="#360C90"/>
<path d="M0 0V3.5" transform="translate(181.435 209.4)" stroke="#360C90" stroke-width="0.8"/>
<path d="M55.0938 8.20312C55.0938 5.79688 49.4583 3.82812 38.1875 2.29688C26.9271 0.765625 16.2656 0 6.20312 0C4.59896 0 3.16146 0.666667 1.89062 2C0.630208 3.33333 0 4.69792 0 6.09375C0 7.5 0.901042 8.20312 2.70312 8.20312C9.03646 8.20312 13.8854 8.23438 17.25 8.29688C20.6146 8.36979 26.2604 8.73958 34.1875 9.40625C42.125 10.0729 46.7969 10.4062 48.2031 10.4062C52.7969 10.4062 55.0938 9.67188 55.0938 8.20312Z" transform="translate(175.093 222.531) scale(0.12 -0.12)" fill="#360C90"/>
<path d="M41.5 69.5938C51.2292 69.5938 56.0938 68.5625 56.0938 66.5C56.0938 65.0312 50.3594 63.3958 38.8906 61.5938C33.8281 60.8021 30.6458 60.2552 29.3438 59.9531C28.0417 59.651 26.5052 57.8802 24.7344 54.6406C22.974 51.4115 22.0938 49.0781 22.0938 47.6406C22.0938 46.2135 22.7917 44.7135 24.1875 43.1406C25.5938 41.5781 27.3125 40.0469 29.3438 38.5469C31.375 37.0469 33.4271 35.5 35.5 33.9062C40.2917 30.1042 42.6875 26.401 42.6875 22.7969C42.6875 17.2031 40.0208 12.0052 34.6875 7.20312C29.3542 2.40104 23.7552 0 17.8906 0C13.2969 0 9.16667 1.56771 5.5 4.70312C1.83333 7.83854 0 10.9375 0 14C0 15.9375 0.53125 16.9062 1.59375 16.9062C1.98958 16.9062 2.95833 16.1354 4.5 14.5938C9.03125 10.0625 12.9792 7.79688 16.3438 7.79688C19.7083 7.79688 23.375 9.36458 27.3438 12.5C31.3125 15.6354 33.2969 18.7708 33.2969 21.9062C33.2969 24.7708 30.8281 27.901 25.8906 31.2969C23.8906 32.7031 21.875 34.1562 19.8438 35.6562C17.8125 37.1562 16.0781 38.9375 14.6406 41C13.2135 43.0625 12.5 45.4427 12.5 48.1406C12.5 50.849 14.0312 54.6823 17.0938 59.6406C20.1562 64.6094 22.6875 67.3281 24.6875 67.7969C28.8229 68.9948 34.4271 69.5938 41.5 69.5938Z" transform="translate(182.161 225.651) scale(0.12 -0.12)" fill="#360C90"/>
<path opacity="0.1" d="M0 304.6V0" transform="translate(207.148 57.1)" stroke="#360C90" stroke-dasharray="3 3"/>
<path d="M0 0V3.5Z" transform="translate(207.148 209.4)" fill="#360C90"/>
<path d="M0 0V3.5" transform="translate(207.148 209.4)" stroke="#360C90" stroke-width="0.8"/>
<path d="M55.0938 8.20312C55.0938 5.79688 49.4583 3.82812 38.1875 2.29688C26.9271 0.765625 16.2656 0 6.20312 0C4.59896 0 3.16146 0.666667 1.89062 2C0.630208 3.33333 0 4.69792 0 6.09375C0 7.5 0.901042 8.20312 2.70312 8.20312C9.03646 8.20312 13.8854 8.23438 17.25 8.29688C20.6146 8.36979 26.2604 8.73958 34.1875 9.40625C42.125 10.0729 46.7969 10.4062 48.2031 10.4062C52.7969 10.4062 55.0938 9.67188 55.0938 8.20312Z" transform="translate(200.722 222.531) scale(0.12 -0.12)" fill="#360C90"/>
<path d="M36.8906 54.4062C37.9635 54.4062 39.3646 53.6198 41.0938 52.0469C42.8333 50.4844 43.7031 49.0365 43.7031 47.7031C43.7031 41.7031 41.7656 32.25 37.8906 19.3438C34.026 6.44792 30.9948 0 28.7969 0C28.0677 0 27.349 0.484375 26.6406 1.45312C25.9427 2.42188 25.5938 3.45312 25.5938 4.54688C25.5938 5.65104 25.8906 7.23438 26.4844 9.29688C27.0885 11.3698 27.9427 14.1042 29.0469 17.5C30.151 20.9062 31.0677 24.0729 31.7969 27C25.4635 24.1354 19.4323 22.7031 13.7031 22.7031C9.82812 22.7031 6.57292 23.8542 3.9375 26.1562C1.3125 28.4583 0 31.6406 0 35.7031C0 38.6406 1.11458 42.3594 3.34375 46.8594C5.58333 51.3594 8.13542 55.526 11 59.3594C13.8646 63.1927 16.6979 66.526 19.5 69.3594C22.3021 72.1927 24.25 73.6094 25.3438 73.6094C26.4479 73.6094 27.5156 73.2083 28.5469 72.4062C29.5781 71.6042 30.0938 70.7188 30.0938 69.75C30.0938 68.7812 28.3281 66.2135 24.7969 62.0469C21.2656 57.8802 17.7292 53.2656 14.1875 48.2031C10.6562 43.1406 8.89062 39.1094 8.89062 36.1094C8.89062 32.4427 10.7604 30.6094 14.5 30.6094C17.6979 30.6094 21.6458 31.474 26.3438 33.2031C31.0417 34.9323 33.4583 35.8333 33.5938 35.9062C34.3958 41.3021 34.7969 46.401 34.7969 51.2031C34.7969 53.3385 35.4948 54.4062 36.8906 54.4062Z" transform="translate(208.307 226.036) scale(0.12 -0.12)" fill="#360C90"/>
<path opacity="0.1" d="M0 304.6V0" transform="translate(232.861 57.1)" stroke="#360C90" stroke-dasharray="3 3"/>
<path d="M0 0V3.5Z" transform="translate(232.861 209.4)" fill="#360C90"/>
<path d="M0 0V3.5" transform="translate(232.861 209.4)" stroke="#360C90" stroke-width="0.8"/>
<path d="M55.0938 8.20312C55.0938 5.79688 49.4583 3.82812 38.1875 2.29688C26.9271 0.765625 16.2656 0 6.20312 0C4.59896 0 3.16146 0.666667 1.89062 2C0.630208 3.33333 0 4.69792 0 6.09375C0 7.5 0.901042 8.20312 2.70312 8.20312C9.03646 8.20312 13.8854 8.23438 17.25 8.29688C20.6146 8.36979 26.2604 8.73958 34.1875 9.40625C42.125 10.0729 46.7969 10.4062 48.2031 10.4062C52.7969 10.4062 55.0938 9.67188 55.0938 8.20312Z" transform="translate(226.315 222.531) scale(0.12 -0.12)" fill="#360C90"/>
<path d="M29.3906 35.3125C35.4635 34.5104 40.2969 33.0052 43.8906 30.7969C47.4948 28.599 49.2969 25.6823 49.2969 22.0469C49.2969 18.4219 47.1771 14.8385 42.9375 11.2969C38.7083 7.76562 33.5781 5 27.5469 3C21.5156 1 15.4167 0 9.25 0C3.08333 0 0 1.13542 0 3.40625C0 4.01042 1.97917 4.79167 5.9375 5.75C9.90625 6.71875 14.2552 7.75 18.9844 8.84375C23.724 9.94792 28.0781 11.7188 32.0469 14.1562C36.0156 16.5938 38 19.4115 38 22.6094C38 24.3385 36.7969 25.75 34.3906 26.8438C31.9948 27.9479 29.3281 28.7344 26.3906 29.2031C18.6615 30.3385 14.7969 31.6719 14.7969 33.2031C14.7969 33.7344 14.8958 34.1354 15.0938 34.4062C15.625 35.3438 17.3229 36.6458 20.1875 38.3125C23.0625 39.9792 25.9792 41.6094 28.9375 43.2031C31.9062 44.8073 34.625 46.9062 37.0938 49.5C39.5625 52.1042 40.7969 54.7396 40.7969 57.4062C40.7969 60.5417 39.0938 62.1094 35.6875 62.1094C32.9583 62.1094 29.4948 61.026 25.2969 58.8594C21.099 56.6927 18.7135 55.6094 18.1406 55.6094C17.5781 55.6094 16.526 56.3229 14.9844 57.75C13.4531 59.1875 12.6875 60.2708 12.6875 61C12.6875 63 15.4062 65.0677 20.8438 67.2031C26.2812 69.3385 31.099 70.4062 35.2969 70.4062C39.4948 70.4062 43.0417 68.974 45.9375 66.1094C48.8438 63.2448 50.2969 59.9583 50.2969 56.25C50.2969 52.5521 48.1927 48.7865 43.9844 44.9531C39.7865 41.1198 34.9219 37.9062 29.3906 35.3125Z" transform="translate(233.444 225.7) scale(0.12 -0.12)" fill="#360C90"/>
<path opacity="0.1" d="M0 304.6V0" transform="translate(258.574 57.1)" stroke="#360C90" stroke-dasharray="3 3"/>
<path d="M0 0V3.5Z" transform="translate(258.574 209.4)" fill="#360C90"/>
<path d="M0 0V3.5" transform="translate(258.574 209.4)" stroke="#360C90" stroke-width="0.8"/>
<path d="M55.0938 8.20312C55.0938 5.79688 49.4583 3.82812 38.1875 2.29688C26.9271 0.765625 16.2656 0 6.20312 0C4.59896 0 3.16146 0.666667 1.89062 2C0.630208 3.33333 0 4.69792 0 6.09375C0 7.5 0.901042 8.20312 2.70312 8.20312C9.03646 8.20312 13.8854 8.23438 17.25 8.29688C20.6146 8.36979 26.2604 8.73958 34.1875 9.40625C42.125 10.0729 46.7969 10.4062 48.2031 10.4062C52.7969 10.4062 55.0938 9.67188 55.0938 8.20312Z" transform="translate(251.968 222.531) scale(0.12 -0.12)" fill="#360C90"/>
<path d="M11.3125 8.20312C21.6458 9.80729 28.7604 10.875 32.6562 11.4062C36.5521 11.9375 39.4167 12.2031 41.25 12.2031C43.0833 12.2031 44.4844 12.0521 45.4531 11.75C46.4219 11.4583 46.9062 10.8438 46.9062 9.90625C46.9062 8.04167 41.8906 5.92188 31.8594 3.54688C21.8281 1.18229 14.4792 0 9.8125 0C7.73958 0 5.58333 0.916667 3.34375 2.75C1.11458 4.58333 0 6.5 0 8.5C0 10.1042 3.20312 13.3073 9.60938 18.1094C15.6094 22.5052 21.5104 27.6354 27.3125 33.5C30.0417 36.3021 32.3229 39.3854 34.1562 42.75C35.9896 46.125 36.9062 49.2292 36.9062 52.0625C36.9062 54.8958 36.2708 57.1094 35 58.7031C33.7396 60.3073 32.0052 61.1094 29.7969 61.1094C27.599 61.1094 25.5312 60.4427 23.5938 59.1094C21.6667 57.776 20.1042 56.4583 18.9062 55.1562C17.7083 53.8542 16.9427 53.2031 16.6094 53.2031C15.474 53.2031 14.1406 53.7031 12.6094 54.7031C11.0781 55.7031 10.3125 56.7031 10.3125 57.7031C10.3125 60.1719 12.3594 62.9062 16.4531 65.9062C20.5573 68.9062 24.9427 70.4062 29.6094 70.4062C34.276 70.4062 38.1562 68.7552 41.25 65.4531C44.3542 62.151 45.9062 58.0677 45.9062 53.2031C45.9062 38.8073 33.5729 23.7083 8.90625 7.90625C10.5104 8.10417 16.4792 9.00521 26.8125 10.6094L11.3125 8.20312Z" transform="translate(259.18 225.64) scale(0.12 -0.12)" fill="#360C90"/>
<path opacity="0.1" d="M0 304.6V0" transform="translate(284.287 57.1)" stroke="#360C90" stroke-dasharray="3 3"/>
<path d="M0 0V3.5Z" transform="translate(284.287 209.4)" fill="#360C90"/>
<path d="M0 0V3.5" transform="translate(284.287 209.4)" stroke="#360C90" stroke-width="0.8"/>
<path d="M55.0938 8.20312C55.0938 5.79688 49.4583 3.82812 38.1875 2.29688C26.9271 0.765625 16.2656 0 6.20312 0C4.59896 0 3.16146 0.666667 1.89062 2C0.630208 3.33333 0 4.69792 0 6.09375C0 7.5 0.901042 8.20312 2.70312 8.20312C9.03646 8.20312 13.8854 8.23438 17.25 8.29688C20.6146 8.36979 26.2604 8.73958 34.1875 9.40625C42.125 10.0729 46.7969 10.4062 48.2031 10.4062C52.7969 10.4062 55.0938 9.67188 55.0938 8.20312Z" transform="translate(279.283 222.531) scale(0.12 -0.12)" fill="#360C90"/>
<path d="M20.2969 64.3906C20.2969 57.2656 18.599 47 15.2031 33.5938C14.474 30.9271 13.6406 27.625 12.7031 23.6875C11.7656 19.7604 10.9948 16.6146 10.3906 14.25C9.79688 11.8854 9.13542 9.5 8.40625 7.09375C7.07292 2.36458 5.77083 0 4.5 0C3.57292 0 2.58854 0.666667 1.54688 2C0.515625 3.33333 0 4.71354 0 6.14062C0 7.57812 0.713542 11.0312 2.14062 16.5C3.57812 21.9688 5.19792 29.4323 7 38.8906C8.80208 48.3594 10.0365 58.3281 10.7031 68.7969C10.901 70.8594 11.6667 71.8906 13 71.8906C14.4688 71.8906 16.0521 70.9583 17.75 69.0938C19.4479 67.2292 20.2969 65.6615 20.2969 64.3906Z" transform="translate(286.818 225.807) scale(0.12 -0.12)" fill="#360C90"/>
<path opacity="0.1" d="M0 304.6V0" transform="translate(310 57.1)" stroke="#360C90" stroke-dasharray="3 3"/>
<path d="M0 0V3.5Z" transform="translate(310 209.4)" fill="#360C90"/>
<path d="M0 0V3.5" transform="translate(310 209.4)" stroke="#360C90" stroke-width="0.8"/>
<path d="M32.8906 47C32.8906 57.4688 31.3594 62.7031 28.2969 62.7031C26.901 62.7031 25.1198 61.3177 22.9531 58.5469C20.7865 55.7865 18.6823 52.3385 16.6406 48.2031C14.6094 44.0677 12.875 39.349 11.4375 34.0469C10.0104 28.7552 9.29688 23.875 9.29688 19.4062C9.29688 11.7396 11.3281 7.90625 15.3906 7.90625C17.3281 7.90625 19.6771 10.0365 22.4375 14.2969C25.2083 18.5677 27.6406 23.8333 29.7344 30.0938C31.8385 36.3646 32.8906 42 32.8906 47ZM41.8906 37.7031C36.7656 22.901 32.0677 12.9167 27.7969 7.75C23.526 2.58333 19.3385 0 15.2344 0C11.1406 0 7.57812 1.88021 4.54688 5.64062C1.51562 9.41146 0 13.6302 0 18.2969C0 26.3698 1.47917 34.5365 4.4375 42.7969C7.40625 51.0677 11.1406 57.8177 15.6406 63.0469C20.1406 68.2865 24.4896 70.9062 28.6875 70.9062C32.8958 70.9062 36.1458 68.9219 38.4375 64.9531C40.7396 60.9844 41.8906 55.4479 41.8906 48.3438C41.8906 41.25 39.3281 30.3021 34.2031 15.5L41.8906 37.7031Z" transform="translate(307.624 225.676) scale(0.12 -0.12)" fill="#360C90"/>
<path opacity="0.1" d="M0 304.6V0" transform="translate(335.713 57.1)" stroke="#360C90" stroke-dasharray="3 3"/>
<path d="M0 0V3.5Z" transform="translate(335.713 209.4)" fill="#360C90"/>
<path d="M0 0V3.5" transform="translate(335.713 209.4)" stroke="#360C90" stroke-width="0.8"/>
<path d="M20.2969 64.3906C20.2969 57.2656 18.599 47 15.2031 33.5938C14.474 30.9271 13.6406 27.625 12.7031 23.6875C11.7656 19.7604 10.9948 16.6146 10.3906 14.25C9.79688 11.8854 9.13542 9.5 8.40625 7.09375C7.07292 2.36458 5.77083 0 4.5 0C3.57292 0 2.58854 0.666667 1.54688 2C0.515625 3.33333 0 4.71354 0 6.14062C0 7.57812 0.713542 11.0312 2.14062 16.5C3.57812 21.9688 5.19792 29.4323 7 38.8906C8.80208 48.3594 10.0365 58.3281 10.7031 68.7969C10.901 70.8594 11.6667 71.8906 13 71.8906C14.4688 71.8906 16.0521 70.9583 17.75 69.0938C19.4479 67.2292 20.2969 65.6615 20.2969 64.3906Z" transform="translate(334.644 225.807) scale(0.12 -0.12)" fill="#360C90"/>
<path opacity="0.1" d="M0 304.6V0" transform="translate(361.426 57.1)" stroke="#360C90" stroke-dasharray="3 3"/>
<path d="M0 0V3.5Z" transform="translate(361.426 209.4)" fill="#360C90"/>
<path d="M0 0V3.5" transform="translate(361.426 209.4)" stroke="#360C90" stroke-width="0.8"/>
<path d="M11.3125 8.20312C21.6458 9.80729 28.7604 10.875 32.6562 11.4062C36.5521 11.9375 39.4167 12.2031 41.25 12.2031C43.0833 12.2031 44.4844 12.0521 45.4531 11.75C46.4219 11.4583 46.9062 10.8438 46.9062 9.90625C46.9062 8.04167 41.8906 5.92188 31.8594 3.54688C21.8281 1.18229 14.4792 0 9.8125 0C7.73958 0 5.58333 0.916667 3.34375 2.75C1.11458 4.58333 0 6.5 0 8.5C0 10.1042 3.20312 13.3073 9.60938 18.1094C15.6094 22.5052 21.5104 27.6354 27.3125 33.5C30.0417 36.3021 32.3229 39.3854 34.1562 42.75C35.9896 46.125 36.9062 49.2292 36.9062 52.0625C36.9062 54.8958 36.2708 57.1094 35 58.7031C33.7396 60.3073 32.0052 61.1094 29.7969 61.1094C27.599 61.1094 25.5312 60.4427 23.5938 59.1094C21.6667 57.776 20.1042 56.4583 18.9062 55.1562C17.7083 53.8542 16.9427 53.2031 16.6094 53.2031C15.474 53.2031 14.1406 53.7031 12.6094 54.7031C11.0781 55.7031 10.3125 56.7031 10.3125 57.7031C10.3125 60.1719 12.3594 62.9062 16.4531 65.9062C20.5573 68.9062 24.9427 70.4062 29.6094 70.4062C34.276 70.4062 38.1562 68.7552 41.25 65.4531C44.3542 62.151 45.9062 58.0677 45.9062 53.2031C45.9062 38.8073 33.5729 23.7083 8.90625 7.90625C10.5104 8.10417 16.4792 9.00521 26.8125 10.6094L11.3125 8.20312Z" transform="translate(358.432 225.64) scale(0.12 -0.12)" fill="#360C90"/>
<path opacity="0.1" d="M0 304.6V0" transform="translate(387.139 57.1)" stroke="#360C90" stroke-dasharray="3 3"/>
<path d="M0 0V3.5Z" transform="translate(387.139 209.4)" fill="#360C90"/>
<path d="M0 0V3.5" transform="translate(387.139 209.4)" stroke="#360C90" stroke-width="0.8"/>
<path d="M29.3906 35.3125C35.4635 34.5104 40.2969 33.0052 43.8906 30.7969C47.4948 28.599 49.2969 25.6823 49.2969 22.0469C49.2969 18.4219 47.1771 14.8385 42.9375 11.2969C38.7083 7.76562 33.5781 5 27.5469 3C21.5156 1 15.4167 0 9.25 0C3.08333 0 0 1.13542 0 3.40625C0 4.01042 1.97917 4.79167 5.9375 5.75C9.90625 6.71875 14.2552 7.75 18.9844 8.84375C23.724 9.94792 28.0781 11.7188 32.0469 14.1562C36.0156 16.5938 38 19.4115 38 22.6094C38 24.3385 36.7969 25.75 34.3906 26.8438C31.9948 27.9479 29.3281 28.7344 26.3906 29.2031C18.6615 30.3385 14.7969 31.6719 14.7969 33.2031C14.7969 33.7344 14.8958 34.1354 15.0938 34.4062C15.625 35.3438 17.3229 36.6458 20.1875 38.3125C23.0625 39.9792 25.9792 41.6094 28.9375 43.2031C31.9062 44.8073 34.625 46.9062 37.0938 49.5C39.5625 52.1042 40.7969 54.7396 40.7969 57.4062C40.7969 60.5417 39.0938 62.1094 35.6875 62.1094C32.9583 62.1094 29.4948 61.026 25.2969 58.8594C21.099 56.6927 18.7135 55.6094 18.1406 55.6094C17.5781 55.6094 16.526 56.3229 14.9844 57.75C13.4531 59.1875 12.6875 60.2708 12.6875 61C12.6875 63 15.4062 65.0677 20.8438 67.2031C26.2812 69.3385 31.099 70.4062 35.2969 70.4062C39.4948 70.4062 43.0417 68.974 45.9375 66.1094C48.8438 63.2448 50.2969 59.9583 50.2969 56.25C50.2969 52.5521 48.1927 48.7865 43.9844 44.9531C39.7865 41.1198 34.9219 37.9062 29.3906 35.3125Z" transform="translate(384.122 225.7) scale(0.12 -0.12)" fill="#360C90"/>
<path opacity="0.1" d="M0 304.6V0" transform="translate(412.852 57.1)" stroke="#360C90" stroke-dasharray="3 3"/>
<path d="M0 0V3.5Z" transform="translate(412.852 209.4)" fill="#360C90"/>
<path d="M0 0V3.5" transform="translate(412.852 209.4)" stroke="#360C90" stroke-width="0.8"/>
<path d="M36.8906 54.4062C37.9635 54.4062 39.3646 53.6198 41.0938 52.0469C42.8333 50.4844 43.7031 49.0365 43.7031 47.7031C43.7031 41.7031 41.7656 32.25 37.8906 19.3438C34.026 6.44792 30.9948 0 28.7969 0C28.0677 0 27.349 0.484375 26.6406 1.45312C25.9427 2.42188 25.5938 3.45312 25.5938 4.54688C25.5938 5.65104 25.8906 7.23438 26.4844 9.29688C27.0885 11.3698 27.9427 14.1042 29.0469 17.5C30.151 20.9062 31.0677 24.0729 31.7969 27C25.4635 24.1354 19.4323 22.7031 13.7031 22.7031C9.82812 22.7031 6.57292 23.8542 3.9375 26.1562C1.3125 28.4583 0 31.6406 0 35.7031C0 38.6406 1.11458 42.3594 3.34375 46.8594C5.58333 51.3594 8.13542 55.526 11 59.3594C13.8646 63.1927 16.6979 66.526 19.5 69.3594C22.3021 72.1927 24.25 73.6094 25.3438 73.6094C26.4479 73.6094 27.5156 73.2083 28.5469 72.4062C29.5781 71.6042 30.0938 70.7188 30.0938 69.75C30.0938 68.7812 28.3281 66.2135 24.7969 62.0469C21.2656 57.8802 17.7292 53.2656 14.1875 48.2031C10.6562 43.1406 8.89062 39.1094 8.89062 36.1094C8.89062 32.4427 10.7604 30.6094 14.5 30.6094C17.6979 30.6094 21.6458 31.474 26.3438 33.2031C31.0417 34.9323 33.4583 35.8333 33.5938 35.9062C34.3958 41.3021 34.7969 46.401 34.7969 51.2031C34.7969 53.3385 35.4948 54.4062 36.8906 54.4062Z" transform="translate(410.411 226.036) scale(0.12 -0.12)" fill="#360C90"/>
<path opacity="0.1" d="M0 304.6V0" transform="translate(438.565 57.1)" stroke="#360C90" stroke-dasharray="3 3"/>
<path d="M0 0V3.5Z" transform="translate(438.565 209.4)" fill="#360C90"/>
<path d="M0 0V3.5" transform="translate(438.565 209.4)" stroke="#360C90" stroke-width="0.8"/>
<path d="M41.5 69.5938C51.2292 69.5938 56.0938 68.5625 56.0938 66.5C56.0938 65.0312 50.3594 63.3958 38.8906 61.5938C33.8281 60.8021 30.6458 60.2552 29.3438 59.9531C28.0417 59.651 26.5052 57.8802 24.7344 54.6406C22.974 51.4115 22.0938 49.0781 22.0938 47.6406C22.0938 46.2135 22.7917 44.7135 24.1875 43.1406C25.5938 41.5781 27.3125 40.0469 29.3438 38.5469C31.375 37.0469 33.4271 35.5 35.5 33.9062C40.2917 30.1042 42.6875 26.401 42.6875 22.7969C42.6875 17.2031 40.0208 12.0052 34.6875 7.20312C29.3542 2.40104 23.7552 0 17.8906 0C13.2969 0 9.16667 1.56771 5.5 4.70312C1.83333 7.83854 0 10.9375 0 14C0 15.9375 0.53125 16.9062 1.59375 16.9062C1.98958 16.9062 2.95833 16.1354 4.5 14.5938C9.03125 10.0625 12.9792 7.79688 16.3438 7.79688C19.7083 7.79688 23.375 9.36458 27.3438 12.5C31.3125 15.6354 33.2969 18.7708 33.2969 21.9062C33.2969 24.7708 30.8281 27.901 25.8906 31.2969C23.8906 32.7031 21.875 34.1562 19.8438 35.6562C17.8125 37.1562 16.0781 38.9375 14.6406 41C13.2135 43.0625 12.5 45.4427 12.5 48.1406C12.5 50.849 14.0312 54.6823 17.0938 59.6406C20.1562 64.6094 22.6875 67.3281 24.6875 67.7969C28.8229 68.9948 34.4271 69.5938 41.5 69.5938Z" transform="translate(435.692 225.651) scale(0.12 -0.12)" fill="#360C90"/>
<path opacity="0.1" d="M0 304.6V0" transform="translate(464.278 57.1)" stroke="#360C90" stroke-dasharray="3 3"/>
<path d="M0 0V3.5Z" transform="translate(464.278 209.4)" fill="#360C90"/>
<path d="M0 0V3.5" transform="translate(464.278 209.4)" stroke="#360C90" stroke-width="0.8"/>
<path d="M44.3906 23.7031C44.3906 18.099 41.1562 12.7448 34.6875 7.64062C28.2292 2.54688 21.4635 0 14.3906 0C10.1927 0 6.74479 1.41667 4.04688 4.25C1.34896 7.08333 0 10.9167 0 15.75C0 20.5833 1.58333 26.3646 4.75 33.0938C7.91667 39.8333 11.5312 45.8333 15.5938 51.0938C19.6667 56.3646 23.5833 60.8333 27.3438 64.5C31.1146 68.1667 33.6823 70 35.0469 70C36.4115 70 37.7604 69.651 39.0938 68.9531C40.4271 68.2552 41.0938 67.5521 41.0938 66.8438C41.0938 66.1458 39.9635 64.599 37.7031 62.2031C28.7031 52.6719 22.3333 45.2031 18.5938 39.7969C26 39.1302 32.151 37.1771 37.0469 33.9375C41.9427 30.7083 44.3906 27.2969 44.3906 23.7031ZM15.2969 8.09375C19.6927 8.09375 24.0052 9.66146 28.2344 12.7969C32.474 15.9323 34.5938 19.3021 34.5938 22.9062C34.5938 25.4375 32.8073 27.7656 29.2344 29.8906C25.6719 32.026 20.9271 33.4635 15 34.2031C10.9271 27.0677 8.89062 20.6354 8.89062 14.9062C8.89062 12.6354 9.47396 10.9323 10.6406 9.79688C11.8073 8.66146 13.3594 8.09375 15.2969 8.09375Z" transform="translate(461.507 225.651) scale(0.12 -0.12)" fill="#360C90"/>
<path opacity="0.1" d="M0 304.6V0" transform="translate(489.991 57.1)" stroke="#360C90" stroke-dasharray="3 3"/>
<path d="M0 0V3.5Z" transform="translate(489.991 209.4)" fill="#360C90"/>
<path d="M0 0V3.5" transform="translate(489.991 209.4)" stroke="#360C90" stroke-width="0.8"/>
<path d="M0 67.2031C0 67.8698 2.75 68.6042 8.25 69.4062C13.75 70.2083 19.1458 70.6094 24.4375 70.6094C29.7396 70.6094 33.0938 70.1406 34.5 69.2031C35.625 68.3385 36.6042 66.9531 37.4375 65.0469C38.2708 63.151 38.6875 61.6042 38.6875 60.4062C38.6875 59.2083 38.3698 57.8594 37.7344 56.3594C37.1094 54.8594 36.1927 53.0573 34.9844 50.9531C33.7865 48.849 32.6042 46.849 31.4375 44.9531C30.2708 43.0573 28.8854 40.8229 27.2812 38.25C25.6875 35.6875 24.1562 33.1562 22.6875 30.6562C21.2292 28.1562 18.7812 23.7396 15.3438 17.4062C11.9062 11.0729 9.36979 6.58854 7.73438 3.95312C6.10938 1.31771 4.85938 0 3.98438 0C3.11979 0 2.28646 0.614583 1.48438 1.84375C0.692708 3.08333 0.296875 4.30208 0.296875 5.5C0.296875 7.69792 2.76042 12.9792 7.6875 21.3438C12.625 29.7188 17.5781 37.9531 22.5469 46.0469C27.5156 54.151 30 58.901 30 60.2969C30 61.5052 28.8802 62.1094 26.6406 62.1094C24.4115 62.1094 20.8438 61.7396 15.9375 61C11.0417 60.2708 7.92708 59.9062 6.59375 59.9062C5.26042 59.9062 3.82812 60.8229 2.29688 62.6562C0.765625 64.4896 0 66.0052 0 67.2031Z" transform="translate(488.414 225.736) scale(0.12 -0.12)" fill="#360C90"/>
<path opacity="0.1" d="M0 304.6V0" transform="translate(515.704 57.1)" stroke="#360C90" stroke-dasharray="3 3"/>
<path d="M0 0V3.5Z" transform="translate(515.704 209.4)" fill="#360C90"/>
<path d="M0 0V3.5" transform="translate(515.704 209.4)" stroke="#360C90" stroke-width="0.8"/>
<path d="M27.5 70.7031C37.9062 70.7031 44.4427 69.6354 47.1094 67.5C49.776 65.3646 51.1094 62.5104 51.1094 58.9375C51.1094 55.375 49.375 51.6406 45.9062 47.7344C42.4375 43.8385 37.6042 39.4271 31.4062 34.5C37.6042 28.6354 40.7031 23.6354 40.7031 19.5C40.7031 16.2292 39.25 13.0417 36.3438 9.9375C33.4479 6.84375 29.9479 4.41146 25.8438 2.64062C21.75 0.880208 18.0365 0 14.7031 0C11.3698 0 8.08333 1.21354 4.84375 3.64062C1.61458 6.07812 0 8.82812 0 11.8906C0 14.9635 1.63542 18.3802 4.90625 22.1406C8.17708 25.9115 12.7083 30.1615 18.5 34.8906C8.83333 42.3594 3.16667 47.3281 1.5 49.7969C0.572917 51.1302 0.109375 52.3802 0.109375 53.5469C0.109375 54.7135 0.291667 55.8802 0.65625 57.0469C1.02083 58.2135 1.50521 58.7969 2.10938 58.7969C2.70312 58.7969 3.53125 58.2448 4.59375 57.1406C5.66667 56.0469 6.65104 55.0625 7.54688 54.1875C8.45312 53.3229 9.92188 52.0573 11.9531 50.3906C13.9844 48.724 16.3021 46.8906 18.9062 44.8906C21.5104 42.8906 23.5104 41.2917 24.9062 40.0938C28.8438 43.2292 31.8125 45.6615 33.8125 47.3906C35.8125 49.1302 37.7292 51.099 39.5625 53.2969C41.3958 55.4948 42.3125 57.3281 42.3125 58.7969C42.3125 61.3281 40.625 62.5938 37.25 62.5938C33.8854 62.5938 30.0365 61.776 25.7031 60.1406C21.3698 58.5156 18.7344 57.7031 17.7969 57.7031C16.8698 57.7031 15.6875 58.2031 14.25 59.2031C12.8229 60.2031 12.1094 61.1667 12.1094 62.0938C12.1094 64.0938 14.6719 66.026 19.7969 67.8906C24.9323 69.7656 32.7031 70.7031 43.1094 70.7031H27.5ZM31.7031 20.7969C31.7031 22.6615 29.5052 25.5625 25.1094 29.5C21.5052 26.6354 18.7344 24.3854 16.7969 22.75C14.8698 21.1146 13.0729 19.2969 11.4062 17.2969C9.73958 15.2969 8.90625 13.6771 8.90625 12.4375C8.90625 11.2083 9.48958 10.0938 10.6562 9.09375C11.8229 8.09375 13.1042 7.59375 14.5 7.59375C18.1667 7.59375 21.9479 8.94271 25.8438 11.6406C29.75 14.349 31.7031 17.401 31.7031 20.7969Z" transform="translate(513.183 225.627) scale(0.12 -0.12)" fill="#360C90"/>
<path opacity="0.1" d="M0 304.6V0" transform="translate(541.417 57.1)" stroke="#360C90" stroke-dasharray="3 3"/>
<path d="M0 0V3.5Z" transform="translate(541.417 209.4)" fill="#360C90"/>
<path d="M0 0V3.5" transform="translate(541.417 209.4)" stroke="#360C90" stroke-width="0.8"/>
<path d="M40.0938 50.4062C40.0938 49.0729 39.2448 46.2031 37.5469 41.7969C35.849 37.401 34.4792 33.6354 33.4375 30.5C32.4062 27.3646 31.2708 22.9479 30.0312 17.25C28.8021 11.5521 27.8021 7.25 27.0312 4.34375C26.2708 1.44792 25.4583 0 24.5938 0C22.3229 0 21.1875 2.66667 21.1875 8C21.1875 13.3333 22.9896 21.8333 26.5938 33.5C21.7292 29.7708 17.4635 27.9062 13.7969 27.9062C10.1302 27.9062 6.91146 29.3385 4.14062 32.2031C1.38021 35.0677 0 38.3646 0 42.0938C0 45.8333 1.29688 50.0833 3.89062 54.8438C6.49479 59.6146 9.88021 63.6823 14.0469 67.0469C18.2135 70.4115 22.1615 72.0938 25.8906 72.0938C29.6302 72.0938 32.5 70.8438 34.5 68.3438C36.5 65.8438 37.5 63.2917 37.5 60.6875C37.5 58.0938 37.2656 56.0625 36.7969 54.5938C38.9948 54.1979 40.0938 52.8021 40.0938 50.4062ZM28.8906 51.9062L29.7969 58.5938C29.7969 60.0625 29.4427 61.2812 28.7344 62.25C28.0365 63.2188 27.0573 63.7031 25.7969 63.7031C22.2656 63.7031 18.3958 60.901 14.1875 55.2969C9.98958 49.7031 7.89062 44.9375 7.89062 41C7.89062 39.3333 8.47396 38 9.64062 37C10.8073 36 12.0052 35.5 13.2344 35.5C14.474 35.5 15.4948 35.599 16.2969 35.7969C17.099 35.9948 17.8958 36.3125 18.6875 36.75C19.4896 37.1875 20.2083 37.6042 20.8438 38C21.4792 38.3958 22.1771 38.9948 22.9375 39.7969C23.7083 40.599 24.3281 41.2344 24.7969 41.7031C25.2656 42.1719 25.8802 42.9062 26.6406 43.9062C27.4115 44.9062 27.9635 45.6042 28.2969 46C29.5573 47.7292 30.5208 49.0938 31.1875 50.0938C29.6562 50.3021 28.8906 50.9062 28.8906 51.9062Z" transform="translate(539.318 225.831) scale(0.12 -0.12)" fill="#360C90"/>
<path opacity="0.1" d="M0 304.6V0" transform="translate(567.13 57.1)" stroke="#360C90" stroke-dasharray="3 3"/>
<path d="M0 0V3.5Z" transform="translate(567.13 209.4)" fill="#360C90"/>
<path d="M0 0V3.5" transform="translate(567.13 209.4)" stroke="#360C90" stroke-width="0.8"/>
<path d="M20.2969 64.3906C20.2969 57.2656 18.599 47 15.2031 33.5938C14.474 30.9271 13.6406 27.625 12.7031 23.6875C11.7656 19.7604 10.9948 16.6146 10.3906 14.25C9.79688 11.8854 9.13542 9.5 8.40625 7.09375C7.07292 2.36458 5.77083 0 4.5 0C3.57292 0 2.58854 0.666667 1.54688 2C0.515625 3.33333 0 4.71354 0 6.14062C0 7.57812 0.713542 11.0312 2.14062 16.5C3.57812 21.9688 5.19792 29.4323 7 38.8906C8.80208 48.3594 10.0365 58.3281 10.7031 68.7969C10.901 70.8594 11.6667 71.8906 13 71.8906C14.4688 71.8906 16.0521 70.9583 17.75 69.0938C19.4479 67.2292 20.2969 65.6615 20.2969 64.3906Z" transform="translate(563.062 225.807) scale(0.12 -0.12)" fill="#360C90"/>
<path d="M32.8906 47C32.8906 57.4688 31.3594 62.7031 28.2969 62.7031C26.901 62.7031 25.1198 61.3177 22.9531 58.5469C20.7865 55.7865 18.6823 52.3385 16.6406 48.2031C14.6094 44.0677 12.875 39.349 11.4375 34.0469C10.0104 28.7552 9.29688 23.875 9.29688 19.4062C9.29688 11.7396 11.3281 7.90625 15.3906 7.90625C17.3281 7.90625 19.6771 10.0365 22.4375 14.2969C25.2083 18.5677 27.6406 23.8333 29.7344 30.0938C31.8385 36.3646 32.8906 42 32.8906 47ZM41.8906 37.7031C36.7656 22.901 32.0677 12.9167 27.7969 7.75C23.526 2.58333 19.3385 0 15.2344 0C11.1406 0 7.57812 1.88021 4.54688 5.64062C1.51562 9.41146 0 13.6302 0 18.2969C0 26.3698 1.47917 34.5365 4.4375 42.7969C7.40625 51.0677 11.1406 57.8177 15.6406 63.0469C20.1406 68.2865 24.4896 70.9062 28.6875 70.9062C32.8958 70.9062 36.1458 68.9219 38.4375 64.9531C40.7396 60.9844 41.8906 55.4479 41.8906 48.3438C41.8906 41.25 39.3281 30.3021 34.2031 15.5L41.8906 37.7031Z" transform="translate(566.638 225.676) scale(0.12 -0.12)" fill="#360C90"/>
<path opacity="0.1" d="M0 304.6V0" transform="translate(592.844 57.1)" stroke="#360C90" stroke-dasharray="3 3"/>
<path d="M0 0V3.5Z" transform="translate(592.844 209.4)" fill="#360C90"/>
<path d="M0 0V3.5" transform="translate(592.844 209.4)" stroke="#360C90" stroke-width="0.8"/>
<path d="M20.2969 64.3906C20.2969 57.2656 18.599 47 15.2031 33.5938C14.474 30.9271 13.6406 27.625 12.7031 23.6875C11.7656 19.7604 10.9948 16.6146 10.3906 14.25C9.79688 11.8854 9.13542 9.5 8.40625 7.09375C7.07292 2.36458 5.77083 0 4.5 0C3.57292 0 2.58854 0.666667 1.54688 2C0.515625 3.33333 0 4.71354 0 6.14062C0 7.57812 0.713542 11.0312 2.14062 16.5C3.57812 21.9688 5.19792 29.4323 7 38.8906C8.80208 48.3594 10.0365 58.3281 10.7031 68.7969C10.901 70.8594 11.6667 71.8906 13 71.8906C14.4688 71.8906 16.0521 70.9583 17.75 69.0938C19.4479 67.2292 20.2969 65.6615 20.2969 64.3906Z" transform="translate(589.89 225.807) scale(0.12 -0.12)" fill="#360C90"/>
<path d="M20.2969 64.3906C20.2969 57.2656 18.599 47 15.2031 33.5938C14.474 30.9271 13.6406 27.625 12.7031 23.6875C11.7656 19.7604 10.9948 16.6146 10.3906 14.25C9.79688 11.8854 9.13542 9.5 8.40625 7.09375C7.07292 2.36458 5.77083 0 4.5 0C3.57292 0 2.58854 0.666667 1.54688 2C0.515625 3.33333 0 4.71354 0 6.14062C0 7.57812 0.713542 11.0312 2.14062 16.5C3.57812 21.9688 5.19792 29.4323 7 38.8906C8.80208 48.3594 10.0365 58.3281 10.7031 68.7969C10.901 70.8594 11.6667 71.8906 13 71.8906C14.4688 71.8906 16.0521 70.9583 17.75 69.0938C19.4479 67.2292 20.2969 65.6615 20.2969 64.3906Z" transform="translate(593.658 225.807) scale(0.12 -0.12)" fill="#360C90"/>
<path opacity="0.1" d="M0 0H591.4" transform="translate(14.3 361.7)" stroke="#360C90" stroke-dasharray="3 3"/>
<path d="M3.5 0H0Z" transform="translate(306.5 361.7)" fill="#360C90"/>
<path d="M3.5 0H0" transform="translate(306.5 361.7)" stroke="#360C90" stroke-width="0.8"/>
<path d="M55.0938 8.20312C55.0938 5.79688 49.4583 3.82812 38.1875 2.29688C26.9271 0.765625 16.2656 0 6.20312 0C4.59896 0 3.16146 0.666667 1.89062 2C0.630208 3.33333 0 4.69792 0 6.09375C0 7.5 0.901042 8.20312 2.70312 8.20312C9.03646 8.20312 13.8854 8.23438 17.25 8.29688C20.6146 8.36979 26.2604 8.73958 34.1875 9.40625C42.125 10.0729 46.7969 10.4062 48.2031 10.4062C52.7969 10.4062 55.0938 9.67188 55.0938 8.20312Z" transform="translate(289.609 363.086) scale(0.12 -0.12)" fill="#360C90"/>
<path d="M44.3906 23.7031C44.3906 18.099 41.1562 12.7448 34.6875 7.64062C28.2292 2.54688 21.4635 0 14.3906 0C10.1927 0 6.74479 1.41667 4.04688 4.25C1.34896 7.08333 0 10.9167 0 15.75C0 20.5833 1.58333 26.3646 4.75 33.0938C7.91667 39.8333 11.5312 45.8333 15.5938 51.0938C19.6667 56.3646 23.5833 60.8333 27.3438 64.5C31.1146 68.1667 33.6823 70 35.0469 70C36.4115 70 37.7604 69.651 39.0938 68.9531C40.4271 68.2552 41.0938 67.5521 41.0938 66.8438C41.0938 66.1458 39.9635 64.599 37.7031 62.2031C28.7031 52.6719 22.3333 45.2031 18.5938 39.7969C26 39.1302 32.151 37.1771 37.0469 33.9375C41.9427 30.7083 44.3906 27.2969 44.3906 23.7031ZM15.2969 8.09375C19.6927 8.09375 24.0052 9.66146 28.2344 12.7969C32.474 15.9323 34.5938 19.3021 34.5938 22.9062C34.5938 25.4375 32.8073 27.7656 29.2344 29.8906C25.6719 32.026 20.9271 33.4635 15 34.2031C10.9271 27.0677 8.89062 20.6354 8.89062 14.9062C8.89062 12.6354 9.47396 10.9323 10.6406 9.79688C11.8073 8.66146 13.3594 8.09375 15.2969 8.09375Z" transform="translate(296.893 366.206) scale(0.12 -0.12)" fill="#360C90"/>
<path opacity="0.1" d="M0 0H591.4" transform="translate(14.3 336.317)" stroke="#360C90" stroke-dasharray="3 3"/>
<path d="M3.5 0H0Z" transform="translate(306.5 336.317)" fill="#360C90"/>
<path d="M3.5 0H0" transform="translate(306.5 336.317)" stroke="#360C90" stroke-width="0.8"/>
<path d="M55.0938 8.20312C55.0938 5.79688 49.4583 3.82812 38.1875 2.29688C26.9271 0.765625 16.2656 0 6.20312 0C4.59896 0 3.16146 0.666667 1.89062 2C0.630208 3.33333 0 4.69792 0 6.09375C0 7.5 0.901042 8.20312 2.70312 8.20312C9.03646 8.20312 13.8854 8.23438 17.25 8.29688C20.6146 8.36979 26.2604 8.73958 34.1875 9.40625C42.125 10.0729 46.7969 10.4062 48.2031 10.4062C52.7969 10.4062 55.0938 9.67188 55.0938 8.20312Z" transform="translate(289.836 337.702) scale(0.12 -0.12)" fill="#360C90"/>
<path d="M41.5 69.5938C51.2292 69.5938 56.0938 68.5625 56.0938 66.5C56.0938 65.0312 50.3594 63.3958 38.8906 61.5938C33.8281 60.8021 30.6458 60.2552 29.3438 59.9531C28.0417 59.651 26.5052 57.8802 24.7344 54.6406C22.974 51.4115 22.0938 49.0781 22.0938 47.6406C22.0938 46.2135 22.7917 44.7135 24.1875 43.1406C25.5938 41.5781 27.3125 40.0469 29.3438 38.5469C31.375 37.0469 33.4271 35.5 35.5 33.9062C40.2917 30.1042 42.6875 26.401 42.6875 22.7969C42.6875 17.2031 40.0208 12.0052 34.6875 7.20312C29.3542 2.40104 23.7552 0 17.8906 0C13.2969 0 9.16667 1.56771 5.5 4.70312C1.83333 7.83854 0 10.9375 0 14C0 15.9375 0.53125 16.9062 1.59375 16.9062C1.98958 16.9062 2.95833 16.1354 4.5 14.5938C9.03125 10.0625 12.9792 7.79688 16.3438 7.79688C19.7083 7.79688 23.375 9.36458 27.3438 12.5C31.3125 15.6354 33.2969 18.7708 33.2969 21.9062C33.2969 24.7708 30.8281 27.901 25.8906 31.2969C23.8906 32.7031 21.875 34.1562 19.8438 35.6562C17.8125 37.1562 16.0781 38.9375 14.6406 41C13.2135 43.0625 12.5 45.4427 12.5 48.1406C12.5 50.849 14.0312 54.6823 17.0938 59.6406C20.1562 64.6094 22.6875 67.3281 24.6875 67.7969C28.8229 68.9948 34.4271 69.5938 41.5 69.5938Z" transform="translate(296.904 340.822) scale(0.12 -0.12)" fill="#360C90"/>
<path opacity="0.1" d="M0 0H591.4" transform="translate(14.3 310.933)" stroke="#360C90" stroke-dasharray="3 3"/>
<path d="M3.5 0H0Z" transform="translate(306.5 310.933)" fill="#360C90"/>
<path d="M3.5 0H0" transform="translate(306.5 310.933)" stroke="#360C90" stroke-width="0.8"/>
<path d="M55.0938 8.20312C55.0938 5.79688 49.4583 3.82812 38.1875 2.29688C26.9271 0.765625 16.2656 0 6.20312 0C4.59896 0 3.16146 0.666667 1.89062 2C0.630208 3.33333 0 4.69792 0 6.09375C0 7.5 0.901042 8.20312 2.70312 8.20312C9.03646 8.20312 13.8854 8.23438 17.25 8.29688C20.6146 8.36979 26.2604 8.73958 34.1875 9.40625C42.125 10.0729 46.7969 10.4062 48.2031 10.4062C52.7969 10.4062 55.0938 9.67188 55.0938 8.20312Z" transform="translate(289.669 312.319) scale(0.12 -0.12)" fill="#360C90"/>
<path d="M36.8906 54.4062C37.9635 54.4062 39.3646 53.6198 41.0938 52.0469C42.8333 50.4844 43.7031 49.0365 43.7031 47.7031C43.7031 41.7031 41.7656 32.25 37.8906 19.3438C34.026 6.44792 30.9948 0 28.7969 0C28.0677 0 27.349 0.484375 26.6406 1.45312C25.9427 2.42188 25.5938 3.45312 25.5938 4.54688C25.5938 5.65104 25.8906 7.23438 26.4844 9.29688C27.0885 11.3698 27.9427 14.1042 29.0469 17.5C30.151 20.9062 31.0677 24.0729 31.7969 27C25.4635 24.1354 19.4323 22.7031 13.7031 22.7031C9.82812 22.7031 6.57292 23.8542 3.9375 26.1562C1.3125 28.4583 0 31.6406 0 35.7031C0 38.6406 1.11458 42.3594 3.34375 46.8594C5.58333 51.3594 8.13542 55.526 11 59.3594C13.8646 63.1927 16.6979 66.526 19.5 69.3594C22.3021 72.1927 24.25 73.6094 25.3438 73.6094C26.4479 73.6094 27.5156 73.2083 28.5469 72.4062C29.5781 71.6042 30.0938 70.7188 30.0938 69.75C30.0938 68.7812 28.3281 66.2135 24.7969 62.0469C21.2656 57.8802 17.7292 53.2656 14.1875 48.2031C10.6562 43.1406 8.89062 39.1094 8.89062 36.1094C8.89062 32.4427 10.7604 30.6094 14.5 30.6094C17.6979 30.6094 21.6458 31.474 26.3438 33.2031C31.0417 34.9323 33.4583 35.8333 33.5938 35.9062C34.3958 41.3021 34.7969 46.401 34.7969 51.2031C34.7969 53.3385 35.4948 54.4062 36.8906 54.4062Z" transform="translate(297.253 315.823) scale(0.12 -0.12)" fill="#360C90"/>
<path opacity="0.1" d="M0 0H591.4" transform="translate(14.3 285.55)" stroke="#360C90" stroke-dasharray="3 3"/>
<path d="M3.5 0H0Z" transform="translate(306.5 285.55)" fill="#360C90"/>
<path d="M3.5 0H0" transform="translate(306.5 285.55)" stroke="#360C90" stroke-width="0.8"/>
<path d="M55.0938 8.20312C55.0938 5.79688 49.4583 3.82812 38.1875 2.29688C26.9271 0.765625 16.2656 0 6.20312 0C4.59896 0 3.16146 0.666667 1.89062 2C0.630208 3.33333 0 4.69792 0 6.09375C0 7.5 0.901042 8.20312 2.70312 8.20312C9.03646 8.20312 13.8854 8.23438 17.25 8.29688C20.6146 8.36979 26.2604 8.73958 34.1875 9.40625C42.125 10.0729 46.7969 10.4062 48.2031 10.4062C52.7969 10.4062 55.0938 9.67188 55.0938 8.20312Z" transform="translate(289.429 286.936) scale(0.12 -0.12)" fill="#360C90"/>
<path d="M29.3906 35.3125C35.4635 34.5104 40.2969 33.0052 43.8906 30.7969C47.4948 28.599 49.2969 25.6823 49.2969 22.0469C49.2969 18.4219 47.1771 14.8385 42.9375 11.2969C38.7083 7.76562 33.5781 5 27.5469 3C21.5156 1 15.4167 0 9.25 0C3.08333 0 0 1.13542 0 3.40625C0 4.01042 1.97917 4.79167 5.9375 5.75C9.90625 6.71875 14.2552 7.75 18.9844 8.84375C23.724 9.94792 28.0781 11.7188 32.0469 14.1562C36.0156 16.5938 38 19.4115 38 22.6094C38 24.3385 36.7969 25.75 34.3906 26.8438C31.9948 27.9479 29.3281 28.7344 26.3906 29.2031C18.6615 30.3385 14.7969 31.6719 14.7969 33.2031C14.7969 33.7344 14.8958 34.1354 15.0938 34.4062C15.625 35.3438 17.3229 36.6458 20.1875 38.3125C23.0625 39.9792 25.9792 41.6094 28.9375 43.2031C31.9062 44.8073 34.625 46.9062 37.0938 49.5C39.5625 52.1042 40.7969 54.7396 40.7969 57.4062C40.7969 60.5417 39.0938 62.1094 35.6875 62.1094C32.9583 62.1094 29.4948 61.026 25.2969 58.8594C21.099 56.6927 18.7135 55.6094 18.1406 55.6094C17.5781 55.6094 16.526 56.3229 14.9844 57.75C13.4531 59.1875 12.6875 60.2708 12.6875 61C12.6875 63 15.4062 65.0677 20.8438 67.2031C26.2812 69.3385 31.099 70.4062 35.2969 70.4062C39.4948 70.4062 43.0417 68.974 45.9375 66.1094C48.8438 63.2448 50.2969 59.9583 50.2969 56.25C50.2969 52.5521 48.1927 48.7865 43.9844 44.9531C39.7865 41.1198 34.9219 37.9062 29.3906 35.3125Z" transform="translate(296.557 290.104) scale(0.12 -0.12)" fill="#360C90"/>
<path opacity="0.1" d="M0 0H591.4" transform="translate(14.3 260.167)" stroke="#360C90" stroke-dasharray="3 3"/>
<path d="M3.5 0H0Z" transform="translate(306.5 260.167)" fill="#360C90"/>
<path d="M3.5 0H0" transform="translate(306.5 260.167)" stroke="#360C90" stroke-width="0.8"/>
<path d="M55.0938 8.20312C55.0938 5.79688 49.4583 3.82812 38.1875 2.29688C26.9271 0.765625 16.2656 0 6.20312 0C4.59896 0 3.16146 0.666667 1.89062 2C0.630208 3.33333 0 4.69792 0 6.09375C0 7.5 0.901042 8.20312 2.70312 8.20312C9.03646 8.20312 13.8854 8.23438 17.25 8.29688C20.6146 8.36979 26.2604 8.73958 34.1875 9.40625C42.125 10.0729 46.7969 10.4062 48.2031 10.4062C52.7969 10.4062 55.0938 9.67188 55.0938 8.20312Z" transform="translate(289.309 261.552) scale(0.12 -0.12)" fill="#360C90"/>
<path d="M11.3125 8.20312C21.6458 9.80729 28.7604 10.875 32.6562 11.4062C36.5521 11.9375 39.4167 12.2031 41.25 12.2031C43.0833 12.2031 44.4844 12.0521 45.4531 11.75C46.4219 11.4583 46.9062 10.8438 46.9062 9.90625C46.9062 8.04167 41.8906 5.92188 31.8594 3.54688C21.8281 1.18229 14.4792 0 9.8125 0C7.73958 0 5.58333 0.916667 3.34375 2.75C1.11458 4.58333 0 6.5 0 8.5C0 10.1042 3.20312 13.3073 9.60938 18.1094C15.6094 22.5052 21.5104 27.6354 27.3125 33.5C30.0417 36.3021 32.3229 39.3854 34.1562 42.75C35.9896 46.125 36.9062 49.2292 36.9062 52.0625C36.9062 54.8958 36.2708 57.1094 35 58.7031C33.7396 60.3073 32.0052 61.1094 29.7969 61.1094C27.599 61.1094 25.5312 60.4427 23.5938 59.1094C21.6667 57.776 20.1042 56.4583 18.9062 55.1562C17.7083 53.8542 16.9427 53.2031 16.6094 53.2031C15.474 53.2031 14.1406 53.7031 12.6094 54.7031C11.0781 55.7031 10.3125 56.7031 10.3125 57.7031C10.3125 60.1719 12.3594 62.9062 16.4531 65.9062C20.5573 68.9062 24.9427 70.4062 29.6094 70.4062C34.276 70.4062 38.1562 68.7552 41.25 65.4531C44.3542 62.151 45.9062 58.0677 45.9062 53.2031C45.9062 38.8073 33.5729 23.7083 8.90625 7.90625C10.5104 8.10417 16.4792 9.00521 26.8125 10.6094L11.3125 8.20312Z" transform="translate(296.52 264.661) scale(0.12 -0.12)" fill="#360C90"/>
<path opacity="0.1" d="M0 0H591.4" transform="translate(14.3 234.783)" stroke="#360C90" stroke-dasharray="3 3"/>
<path d="M3.5 0H0Z" transform="translate(306.5 234.783)" fill="#360C90"/>
<path d="M3.5 0H0" transform="translate(306.5 234.783)" stroke="#360C90" stroke-width="0.8"/>
<path d="M55.0938 8.20312C55.0938 5.79688 49.4583 3.82812 38.1875 2.29688C26.9271 0.765625 16.2656 0 6.20312 0C4.59896 0 3.16146 0.666667 1.89062 2C0.630208 3.33333 0 4.69792 0 6.09375C0 7.5 0.901042 8.20312 2.70312 8.20312C9.03646 8.20312 13.8854 8.23438 17.25 8.29688C20.6146 8.36979 26.2604 8.73958 34.1875 9.40625C42.125 10.0729 46.7969 10.4062 48.2031 10.4062C52.7969 10.4062 55.0938 9.67188 55.0938 8.20312Z" transform="translate(292.511 236.169) scale(0.12 -0.12)" fill="#360C90"/>
<path d="M20.2969 64.3906C20.2969 57.2656 18.599 47 15.2031 33.5938C14.474 30.9271 13.6406 27.625 12.7031 23.6875C11.7656 19.7604 10.9948 16.6146 10.3906 14.25C9.79688 11.8854 9.13542 9.5 8.40625 7.09375C7.07292 2.36458 5.77083 0 4.5 0C3.57292 0 2.58854 0.666667 1.54688 2C0.515625 3.33333 0 4.71354 0 6.14062C0 7.57812 0.713542 11.0312 2.14062 16.5C3.57812 21.9688 5.19792 29.4323 7 38.8906C8.80208 48.3594 10.0365 58.3281 10.7031 68.7969C10.901 70.8594 11.6667 71.8906 13 71.8906C14.4688 71.8906 16.0521 70.9583 17.75 69.0938C19.4479 67.2292 20.2969 65.6615 20.2969 64.3906Z" transform="translate(300.047 239.445) scale(0.12 -0.12)" fill="#360C90"/>
<path opacity="0.1" d="M0 0H591.4" transform="translate(14.3 209.4)" stroke="#360C90" stroke-dasharray="3 3"/>
<path d="M3.5 0H0Z" transform="translate(306.5 209.4)" fill="#360C90"/>
<path d="M3.5 0H0" transform="translate(306.5 209.4)" stroke="#360C90" stroke-width="0.8"/>
<path d="M32.8906 47C32.8906 57.4688 31.3594 62.7031 28.2969 62.7031C26.901 62.7031 25.1198 61.3177 22.9531 58.5469C20.7865 55.7865 18.6823 52.3385 16.6406 48.2031C14.6094 44.0677 12.875 39.349 11.4375 34.0469C10.0104 28.7552 9.29688 23.875 9.29688 19.4062C9.29688 11.7396 11.3281 7.90625 15.3906 7.90625C17.3281 7.90625 19.6771 10.0365 22.4375 14.2969C25.2083 18.5677 27.6406 23.8333 29.7344 30.0938C31.8385 36.3646 32.8906 42 32.8906 47ZM41.8906 37.7031C36.7656 22.901 32.0677 12.9167 27.7969 7.75C23.526 2.58333 19.3385 0 15.2344 0C11.1406 0 7.57812 1.88021 4.54688 5.64062C1.51562 9.41146 0 13.6302 0 18.2969C0 26.3698 1.47917 34.5365 4.4375 42.7969C7.40625 51.0677 11.1406 57.8177 15.6406 63.0469C20.1406 68.2865 24.4896 70.9062 28.6875 70.9062C32.8958 70.9062 36.1458 68.9219 38.4375 64.9531C40.7396 60.9844 41.8906 55.4479 41.8906 48.3438C41.8906 41.25 39.3281 30.3021 34.2031 15.5L41.8906 37.7031Z" transform="translate(297.624 213.93) scale(0.12 -0.12)" fill="#360C90"/>
<path opacity="0.1" d="M0 0H591.4" transform="translate(14.3 184.017)" stroke="#360C90" stroke-dasharray="3 3"/>
<path d="M3.5 0H0Z" transform="translate(306.5 184.017)" fill="#360C90"/>
<path d="M3.5 0H0" transform="translate(306.5 184.017)" stroke="#360C90" stroke-width="0.8"/>
<path d="M20.2969 64.3906C20.2969 57.2656 18.599 47 15.2031 33.5938C14.474 30.9271 13.6406 27.625 12.7031 23.6875C11.7656 19.7604 10.9948 16.6146 10.3906 14.25C9.79688 11.8854 9.13542 9.5 8.40625 7.09375C7.07292 2.36458 5.77083 0 4.5 0C3.57292 0 2.58854 0.666667 1.54688 2C0.515625 3.33333 0 4.71354 0 6.14062C0 7.57812 0.713542 11.0312 2.14062 16.5C3.57812 21.9688 5.19792 29.4323 7 38.8906C8.80208 48.3594 10.0365 58.3281 10.7031 68.7969C10.901 70.8594 11.6667 71.8906 13 71.8906C14.4688 71.8906 16.0521 70.9583 17.75 69.0938C19.4479 67.2292 20.2969 65.6615 20.2969 64.3906Z" transform="translate(300.047 188.678) scale(0.12 -0.12)" fill="#360C90"/>
<path opacity="0.1" d="M0 0H591.4" transform="translate(14.3 158.633)" stroke="#360C90" stroke-dasharray="3 3"/>
<path d="M3.5 0H0Z" transform="translate(306.5 158.633)" fill="#360C90"/>
<path d="M3.5 0H0" transform="translate(306.5 158.633)" stroke="#360C90" stroke-width="0.8"/>
<path d="M11.3125 8.20312C21.6458 9.80729 28.7604 10.875 32.6562 11.4062C36.5521 11.9375 39.4167 12.2031 41.25 12.2031C43.0833 12.2031 44.4844 12.0521 45.4531 11.75C46.4219 11.4583 46.9062 10.8438 46.9062 9.90625C46.9062 8.04167 41.8906 5.92188 31.8594 3.54688C21.8281 1.18229 14.4792 0 9.8125 0C7.73958 0 5.58333 0.916667 3.34375 2.75C1.11458 4.58333 0 6.5 0 8.5C0 10.1042 3.20312 13.3073 9.60938 18.1094C15.6094 22.5052 21.5104 27.6354 27.3125 33.5C30.0417 36.3021 32.3229 39.3854 34.1562 42.75C35.9896 46.125 36.9062 49.2292 36.9062 52.0625C36.9062 54.8958 36.2708 57.1094 35 58.7031C33.7396 60.3073 32.0052 61.1094 29.7969 61.1094C27.599 61.1094 25.5312 60.4427 23.5938 59.1094C21.6667 57.776 20.1042 56.4583 18.9062 55.1562C17.7083 53.8542 16.9427 53.2031 16.6094 53.2031C15.474 53.2031 14.1406 53.7031 12.6094 54.7031C11.0781 55.7031 10.3125 56.7031 10.3125 57.7031C10.3125 60.1719 12.3594 62.9062 16.4531 65.9062C20.5573 68.9062 24.9427 70.4062 29.6094 70.4062C34.276 70.4062 38.1562 68.7552 41.25 65.4531C44.3542 62.151 45.9062 58.0677 45.9062 53.2031C45.9062 38.8073 33.5729 23.7083 8.90625 7.90625C10.5104 8.10417 16.4792 9.00521 26.8125 10.6094L11.3125 8.20312Z" transform="translate(296.52 163.128) scale(0.12 -0.12)" fill="#360C90"/>
<path opacity="0.1" d="M0 0H591.4" transform="translate(14.3 133.25)" stroke="#360C90" stroke-dasharray="3 3"/>
<path d="M3.5 0H0Z" transform="translate(306.5 133.25)" fill="#360C90"/>
<path d="M3.5 0H0" transform="translate(306.5 133.25)" stroke="#360C90" stroke-width="0.8"/>
<path d="M29.3906 35.3125C35.4635 34.5104 40.2969 33.0052 43.8906 30.7969C47.4948 28.599 49.2969 25.6823 49.2969 22.0469C49.2969 18.4219 47.1771 14.8385 42.9375 11.2969C38.7083 7.76562 33.5781 5 27.5469 3C21.5156 1 15.4167 0 9.25 0C3.08333 0 0 1.13542 0 3.40625C0 4.01042 1.97917 4.79167 5.9375 5.75C9.90625 6.71875 14.2552 7.75 18.9844 8.84375C23.724 9.94792 28.0781 11.7188 32.0469 14.1562C36.0156 16.5938 38 19.4115 38 22.6094C38 24.3385 36.7969 25.75 34.3906 26.8438C31.9948 27.9479 29.3281 28.7344 26.3906 29.2031C18.6615 30.3385 14.7969 31.6719 14.7969 33.2031C14.7969 33.7344 14.8958 34.1354 15.0938 34.4062C15.625 35.3438 17.3229 36.6458 20.1875 38.3125C23.0625 39.9792 25.9792 41.6094 28.9375 43.2031C31.9062 44.8073 34.625 46.9062 37.0938 49.5C39.5625 52.1042 40.7969 54.7396 40.7969 57.4062C40.7969 60.5417 39.0938 62.1094 35.6875 62.1094C32.9583 62.1094 29.4948 61.026 25.2969 58.8594C21.099 56.6927 18.7135 55.6094 18.1406 55.6094C17.5781 55.6094 16.526 56.3229 14.9844 57.75C13.4531 59.1875 12.6875 60.2708 12.6875 61C12.6875 63 15.4062 65.0677 20.8438 67.2031C26.2812 69.3385 31.099 70.4062 35.2969 70.4062C39.4948 70.4062 43.0417 68.974 45.9375 66.1094C48.8438 63.2448 50.2969 59.9583 50.2969 56.25C50.2969 52.5521 48.1927 48.7865 43.9844 44.9531C39.7865 41.1198 34.9219 37.9062 29.3906 35.3125Z" transform="translate(296.557 137.804) scale(0.12 -0.12)" fill="#360C90"/>
<path opacity="0.1" d="M0 0H591.4" transform="translate(14.3 107.867)" stroke="#360C90" stroke-dasharray="3 3"/>
<path d="M3.5 0H0Z" transform="translate(306.5 107.867)" fill="#360C90"/>
<path d="M3.5 0H0" transform="translate(306.5 107.867)" stroke="#360C90" stroke-width="0.8"/>
<path d="M36.8906 54.4062C37.9635 54.4062 39.3646 53.6198 41.0938 52.0469C42.8333 50.4844 43.7031 49.0365 43.7031 47.7031C43.7031 41.7031 41.7656 32.25 37.8906 19.3438C34.026 6.44792 30.9948 0 28.7969 0C28.0677 0 27.349 0.484375 26.6406 1.45312C25.9427 2.42188 25.5938 3.45312 25.5938 4.54688C25.5938 5.65104 25.8906 7.23438 26.4844 9.29688C27.0885 11.3698 27.9427 14.1042 29.0469 17.5C30.151 20.9062 31.0677 24.0729 31.7969 27C25.4635 24.1354 19.4323 22.7031 13.7031 22.7031C9.82812 22.7031 6.57292 23.8542 3.9375 26.1562C1.3125 28.4583 0 31.6406 0 35.7031C0 38.6406 1.11458 42.3594 3.34375 46.8594C5.58333 51.3594 8.13542 55.526 11 59.3594C13.8646 63.1927 16.6979 66.526 19.5 69.3594C22.3021 72.1927 24.25 73.6094 25.3438 73.6094C26.4479 73.6094 27.5156 73.2083 28.5469 72.4062C29.5781 71.6042 30.0938 70.7188 30.0938 69.75C30.0938 68.7812 28.3281 66.2135 24.7969 62.0469C21.2656 57.8802 17.7292 53.2656 14.1875 48.2031C10.6562 43.1406 8.89062 39.1094 8.89062 36.1094C8.89062 32.4427 10.7604 30.6094 14.5 30.6094C17.6979 30.6094 21.6458 31.474 26.3438 33.2031C31.0417 34.9323 33.4583 35.8333 33.5938 35.9062C34.3958 41.3021 34.7969 46.401 34.7969 51.2031C34.7969 53.3385 35.4948 54.4062 36.8906 54.4062Z" transform="translate(297.253 112.757) scale(0.12 -0.12)" fill="#360C90"/>
<path opacity="0.1" d="M0 0H591.4" transform="translate(14.3 82.4833)" stroke="#360C90" stroke-dasharray="3 3"/>
<path d="M3.5 0H0Z" transform="translate(306.5 82.4833)" fill="#360C90"/>
<path d="M3.5 0H0" transform="translate(306.5 82.4833)" stroke="#360C90" stroke-width="0.8"/>
<path d="M41.5 69.5938C51.2292 69.5938 56.0938 68.5625 56.0938 66.5C56.0938 65.0312 50.3594 63.3958 38.8906 61.5938C33.8281 60.8021 30.6458 60.2552 29.3438 59.9531C28.0417 59.651 26.5052 57.8802 24.7344 54.6406C22.974 51.4115 22.0938 49.0781 22.0938 47.6406C22.0938 46.2135 22.7917 44.7135 24.1875 43.1406C25.5938 41.5781 27.3125 40.0469 29.3438 38.5469C31.375 37.0469 33.4271 35.5 35.5 33.9062C40.2917 30.1042 42.6875 26.401 42.6875 22.7969C42.6875 17.2031 40.0208 12.0052 34.6875 7.20312C29.3542 2.40104 23.7552 0 17.8906 0C13.2969 0 9.16667 1.56771 5.5 4.70312C1.83333 7.83854 0 10.9375 0 14C0 15.9375 0.53125 16.9062 1.59375 16.9062C1.98958 16.9062 2.95833 16.1354 4.5 14.5938C9.03125 10.0625 12.9792 7.79688 16.3438 7.79688C19.7083 7.79688 23.375 9.36458 27.3438 12.5C31.3125 15.6354 33.2969 18.7708 33.2969 21.9062C33.2969 24.7708 30.8281 27.901 25.8906 31.2969C23.8906 32.7031 21.875 34.1562 19.8438 35.6562C17.8125 37.1562 16.0781 38.9375 14.6406 41C13.2135 43.0625 12.5 45.4427 12.5 48.1406C12.5 50.849 14.0312 54.6823 17.0938 59.6406C20.1562 64.6094 22.6875 67.3281 24.6875 67.7969C28.8229 68.9948 34.4271 69.5938 41.5 69.5938Z" transform="translate(296.904 86.989) scale(0.12 -0.12)" fill="#360C90"/>
<path opacity="0.1" d="M0 0H591.4" transform="translate(14.3 57.1)" stroke="#360C90" stroke-dasharray="3 3"/>
<path d="M3.5 0H0Z" transform="translate(306.5 57.1)" fill="#360C90"/>
<path d="M3.5 0H0" transform="translate(306.5 57.1)" stroke="#360C90" stroke-width="0.8"/>
<path d="M44.3906 23.7031C44.3906 18.099 41.1562 12.7448 34.6875 7.64062C28.2292 2.54688 21.4635 0 14.3906 0C10.1927 0 6.74479 1.41667 4.04688 4.25C1.34896 7.08333 0 10.9167 0 15.75C0 20.5833 1.58333 26.3646 4.75 33.0938C7.91667 39.8333 11.5312 45.8333 15.5938 51.0938C19.6667 56.3646 23.5833 60.8333 27.3438 64.5C31.1146 68.1667 33.6823 70 35.0469 70C36.4115 70 37.7604 69.651 39.0938 68.9531C40.4271 68.2552 41.0938 67.5521 41.0938 66.8438C41.0938 66.1458 39.9635 64.599 37.7031 62.2031C28.7031 52.6719 22.3333 45.2031 18.5938 39.7969C26 39.1302 32.151 37.1771 37.0469 33.9375C41.9427 30.7083 44.3906 27.2969 44.3906 23.7031ZM15.2969 8.09375C19.6927 8.09375 24.0052 9.66146 28.2344 12.7969C32.474 15.9323 34.5938 19.3021 34.5938 22.9062C34.5938 25.4375 32.8073 27.7656 29.2344 29.8906C25.6719 32.026 20.9271 33.4635 15 34.2031C10.9271 27.0677 8.89062 20.6354 8.89062 14.9062C8.89062 12.6354 9.47396 10.9323 10.6406 9.79688C11.8073 8.66146 13.3594 8.09375 15.2969 8.09375Z" transform="translate(296.893 61.6057) scale(0.12 -0.12)" fill="#360C90"/>
<path d="M0 0L411.409 205.338" transform="translate(104.296 106.731)" stroke="#FF0000" stroke-width="1.5" stroke-linecap="square"/>
<path d="M0 304.6V0" transform="translate(310 57.1)" stroke="#360C90" stroke-width="0.8" stroke-linecap="square"/>
<path d="M0 0H591.4" transform="translate(14.3 209.4)" stroke="#360C90" stroke-width="0.8" stroke-linecap="square"/>
<path d="M0 0H32" transform="translate(86.08 26.773)" stroke="#FF0000" stroke-width="1.5" stroke-linecap="square"/>
<path d="M32.8906 47C32.8906 57.4688 31.3594 62.7031 28.2969 62.7031C26.901 62.7031 25.1198 61.3177 22.9531 58.5469C20.7865 55.7865 18.6823 52.3385 16.6406 48.2031C14.6094 44.0677 12.875 39.349 11.4375 34.0469C10.0104 28.7552 9.29688 23.875 9.29688 19.4062C9.29688 11.7396 11.3281 7.90625 15.3906 7.90625C17.3281 7.90625 19.6771 10.0365 22.4375 14.2969C25.2083 18.5677 27.6406 23.8333 29.7344 30.0938C31.8385 36.3646 32.8906 42 32.8906 47ZM41.8906 37.7031C36.7656 22.901 32.0677 12.9167 27.7969 7.75C23.526 2.58333 19.3385 0 15.2344 0C11.1406 0 7.57812 1.88021 4.54688 5.64062C1.51562 9.41146 0 13.6302 0 18.2969C0 26.3698 1.47917 34.5365 4.4375 42.7969C7.40625 51.0677 11.1406 57.8177 15.6406 63.0469C20.1406 68.2865 24.4896 70.9062 28.6875 70.9062C32.8958 70.9062 36.1458 68.9219 38.4375 64.9531C40.7396 60.9844 41.8906 55.4479 41.8906 48.3438C41.8906 41.25 39.3281 30.3021 34.2031 15.5L41.8906 37.7031Z" transform="translate(131.712 32.0705) scale(0.16 -0.16)" fill="#360C90"/>
<path d="M8.90625 0C7.23958 0 5.33854 1.08333 3.20312 3.25C1.06771 5.41667 0 7.21354 0 8.64062C0 10.0781 0.583333 11.5104 1.75 12.9375C2.91667 14.375 4.11458 15.0938 5.34375 15.0938C6.58333 15.0938 8.02083 13.4583 9.65625 10.1875C11.2917 6.92708 12.1094 4.46354 12.1094 2.79688C12.1094 2.26562 11.7396 1.66667 11 1C10.2708 0.333333 9.57292 0 8.90625 0Z" transform="translate(139.775 32.453) scale(0.16 -0.16)" fill="#360C90"/>
<path d="M32.8906 47C32.8906 57.4688 31.3594 62.7031 28.2969 62.7031C26.901 62.7031 25.1198 61.3177 22.9531 58.5469C20.7865 55.7865 18.6823 52.3385 16.6406 48.2031C14.6094 44.0677 12.875 39.349 11.4375 34.0469C10.0104 28.7552 9.29688 23.875 9.29688 19.4062C9.29688 11.7396 11.3281 7.90625 15.3906 7.90625C17.3281 7.90625 19.6771 10.0365 22.4375 14.2969C25.2083 18.5677 27.6406 23.8333 29.7344 30.0938C31.8385 36.3646 32.8906 42 32.8906 47ZM41.8906 37.7031C36.7656 22.901 32.0677 12.9167 27.7969 7.75C23.526 2.58333 19.3385 0 15.2344 0C11.1406 0 7.57812 1.88021 4.54688 5.64062C1.51562 9.41146 0 13.6302 0 18.2969C0 26.3698 1.47917 34.5365 4.4375 42.7969C7.40625 51.0677 11.1406 57.8177 15.6406 63.0469C20.1406 68.2865 24.4896 70.9062 28.6875 70.9062C32.8958 70.9062 36.1458 68.9219 38.4375 64.9531C40.7396 60.9844 41.8906 55.4479 41.8906 48.3438C41.8906 41.25 39.3281 30.3021 34.2031 15.5L41.8906 37.7031Z" transform="translate(143.504 32.0705) scale(0.16 -0.16)" fill="#360C90"/>
<path d="M40.0938 50.4062C40.0938 49.0729 39.2448 46.2031 37.5469 41.7969C35.849 37.401 34.4792 33.6354 33.4375 30.5C32.4062 27.3646 31.2708 22.9479 30.0312 17.25C28.8021 11.5521 27.8021 7.25 27.0312 4.34375C26.2708 1.44792 25.4583 0 24.5938 0C22.3229 0 21.1875 2.66667 21.1875 8C21.1875 13.3333 22.9896 21.8333 26.5938 33.5C21.7292 29.7708 17.4635 27.9062 13.7969 27.9062C10.1302 27.9062 6.91146 29.3385 4.14062 32.2031C1.38021 35.0677 0 38.3646 0 42.0938C0 45.8333 1.29688 50.0833 3.89062 54.8438C6.49479 59.6146 9.88021 63.6823 14.0469 67.0469C18.2135 70.4115 22.1615 72.0938 25.8906 72.0938C29.6302 72.0938 32.5 70.8438 34.5 68.3438C36.5 65.8438 37.5 63.2917 37.5 60.6875C37.5 58.0938 37.2656 56.0625 36.7969 54.5938C38.9948 54.1979 40.0938 52.8021 40.0938 50.4062ZM28.8906 51.9062L29.7969 58.5938C29.7969 60.0625 29.4427 61.2812 28.7344 62.25C28.0365 63.2188 27.0573 63.7031 25.7969 63.7031C22.2656 63.7031 18.3958 60.901 14.1875 55.2969C9.98958 49.7031 7.89062 44.9375 7.89062 41C7.89062 39.3333 8.47396 38 9.64062 37C10.8073 36 12.0052 35.5 13.2344 35.5C14.474 35.5 15.4948 35.599 16.2969 35.7969C17.099 35.9948 17.8958 36.3125 18.6875 36.75C19.4896 37.1875 20.2083 37.6042 20.8438 38C21.4792 38.3958 22.1771 38.9948 22.9375 39.7969C23.7083 40.599 24.3281 41.2344 24.7969 41.7031C25.2656 42.1719 25.8802 42.9062 26.6406 43.9062C27.4115 44.9062 27.9635 45.6042 28.2969 46C29.5573 47.7292 30.5208 49.0938 31.1875 50.0938C29.6562 50.3021 28.8906 50.9062 28.8906 51.9062Z" transform="translate(151.777 32.278) scale(0.16 -0.16)" fill="#360C90"/>
<path d="M11.3125 8.20312C21.6458 9.80729 28.7604 10.875 32.6562 11.4062C36.5521 11.9375 39.4167 12.2031 41.25 12.2031C43.0833 12.2031 44.4844 12.0521 45.4531 11.75C46.4219 11.4583 46.9062 10.8438 46.9062 9.90625C46.9062 8.04167 41.8906 5.92188 31.8594 3.54688C21.8281 1.18229 14.4792 0 9.8125 0C7.73958 0 5.58333 0.916667 3.34375 2.75C1.11458 4.58333 0 6.5 0 8.5C0 10.1042 3.20312 13.3073 9.60938 18.1094C15.6094 22.5052 21.5104 27.6354 27.3125 33.5C30.0417 36.3021 32.3229 39.3854 34.1562 42.75C35.9896 46.125 36.9062 49.2292 36.9062 52.0625C36.9062 54.8958 36.2708 57.1094 35 58.7031C33.7396 60.3073 32.0052 61.1094 29.7969 61.1094C27.599 61.1094 25.5312 60.4427 23.5938 59.1094C21.6667 57.776 20.1042 56.4583 18.9062 55.1562C17.7083 53.8542 16.9427 53.2031 16.6094 53.2031C15.474 53.2031 14.1406 53.7031 12.6094 54.7031C11.0781 55.7031 10.3125 56.7031 10.3125 57.7031C10.3125 60.1719 12.3594 62.9062 16.4531 65.9062C20.5573 68.9062 24.9427 70.4062 29.6094 70.4062C34.276 70.4062 38.1562 68.7552 41.25 65.4531C44.3542 62.151 45.9062 58.0677 45.9062 53.2031C45.9062 38.8073 33.5729 23.7083 8.90625 7.90625C10.5104 8.10417 16.4792 9.00521 26.8125 10.6094L11.3125 8.20312Z" transform="translate(159.135 32.0229) scale(0.16 -0.16)" fill="#360C90"/>
<path d="M62.6094 54.6875L37.5 27.875L52.8906 0H42.5781L31.0156 21.6875L10.8906 0H0L26.9062 28.8125L12.6094 54.6875H22.9062L33.4062 34.9062L51.7188 54.6875H62.6094Z" transform="translate(167.361 32.358) scale(0.16 -0.16)" fill="#360C90"/>
<path d="M1.42188 8.29688H17.5312V63.9219L0 60.4062V69.3906L17.4375 72.9062H27.2969V8.29688H43.4062V0H1.42188V8.29688Z" transform="translate(178.475 34.983) scale(0.112 -0.112)" fill="#360C90"/>
<path d="M62.6094 54.6875L37.5 27.875L52.8906 0H42.5781L31.0156 21.6875L10.8906 0H0L26.9062 28.8125L12.6094 54.6875H22.9062L33.4062 34.9062L51.7188 54.6875H62.6094Z" transform="translate(593 197.75) scale(0.16 -0.16)" fill="#360C90"/>
<path d="M1.42188 8.29688H17.5312V63.9219L0 60.4062V69.3906L17.4375 72.9062H27.2969V8.29688H43.4062V0H1.42188V8.29688Z" transform="translate(604.114 200.375) scale(0.112 -0.112)" fill="#360C90"/>
<path d="M55.0938 29.2031C55.0938 26.2656 46.6979 23.9635 29.9062 22.2969C27.4375 10.3698 25.9688 3.67188 25.5 2.20312C25.0312 0.734375 24.4323 0 23.7031 0C22.7656 0 21.7604 0.651042 20.6875 1.95312C19.625 3.25521 19.0938 4.42188 19.0938 5.45312C19.0938 6.48438 19.1927 7.58333 19.3906 8.75C19.599 9.91667 19.9167 11.7135 20.3438 14.1406C20.7812 16.5781 21.1979 19.0625 21.5938 21.5938C15.8646 21.1979 10.7344 21 6.20312 21C4.59896 21 3.16146 21.6667 1.89062 23C0.630208 24.3333 0 25.6979 0 27.0938C0 28.5 0.932292 29.2031 2.79688 29.2031C12.6615 29.2031 19.2969 29.3333 22.7031 29.5938C23.2969 34.5938 23.8958 40.6302 24.5 47.7031C24.5625 49.7031 25.2292 50.7031 26.5 50.7031C27.7708 50.7031 29.3542 49.7656 31.25 47.8906C33.1458 46.026 34.0938 44.4115 34.0938 43.0469C34.0938 41.6823 33.2969 37.401 31.7031 30.2031C41.1719 31.0052 46.6719 31.4062 48.2031 31.4062C52.7969 31.4062 55.0938 30.6719 55.0938 29.2031Z" transform="translate(192.104 31.238) scale(0.16 -0.16)" fill="#360C90"/>
<path d="M32.8906 47C32.8906 57.4688 31.3594 62.7031 28.2969 62.7031C26.901 62.7031 25.1198 61.3177 22.9531 58.5469C20.7865 55.7865 18.6823 52.3385 16.6406 48.2031C14.6094 44.0677 12.875 39.349 11.4375 34.0469C10.0104 28.7552 9.29688 23.875 9.29688 19.4062C9.29688 11.7396 11.3281 7.90625 15.3906 7.90625C17.3281 7.90625 19.6771 10.0365 22.4375 14.2969C25.2083 18.5677 27.6406 23.8333 29.7344 30.0938C31.8385 36.3646 32.8906 42 32.8906 47ZM41.8906 37.7031C36.7656 22.901 32.0677 12.9167 27.7969 7.75C23.526 2.58333 19.3385 0 15.2344 0C11.1406 0 7.57812 1.88021 4.54688 5.64062C1.51562 9.41146 0 13.6302 0 18.2969C0 26.3698 1.47917 34.5365 4.4375 42.7969C7.40625 51.0677 11.1406 57.8177 15.6406 63.0469C20.1406 68.2865 24.4896 70.9062 28.6875 70.9062C32.8958 70.9062 36.1458 68.9219 38.4375 64.9531C40.7396 60.9844 41.8906 55.4479 41.8906 48.3438C41.8906 41.25 39.3281 30.3021 34.2031 15.5L41.8906 37.7031Z" transform="translate(208.073 32.0705) scale(0.16 -0.16)" fill="#360C90"/>
<path d="M8.90625 0C7.23958 0 5.33854 1.08333 3.20312 3.25C1.06771 5.41667 0 7.21354 0 8.64062C0 10.0781 0.583333 11.5104 1.75 12.9375C2.91667 14.375 4.11458 15.0938 5.34375 15.0938C6.58333 15.0938 8.02083 13.4583 9.65625 10.1875C11.2917 6.92708 12.1094 4.46354 12.1094 2.79688C12.1094 2.26562 11.7396 1.66667 11 1C10.2708 0.333333 9.57292 0 8.90625 0Z" transform="translate(216.135 32.453) scale(0.16 -0.16)" fill="#360C90"/>
<path d="M20.2969 64.3906C20.2969 57.2656 18.599 47 15.2031 33.5938C14.474 30.9271 13.6406 27.625 12.7031 23.6875C11.7656 19.7604 10.9948 16.6146 10.3906 14.25C9.79688 11.8854 9.13542 9.5 8.40625 7.09375C7.07292 2.36458 5.77083 0 4.5 0C3.57292 0 2.58854 0.666667 1.54688 2C0.515625 3.33333 0 4.71354 0 6.14062C0 7.57812 0.713542 11.0312 2.14062 16.5C3.57812 21.9688 5.19792 29.4323 7 38.8906C8.80208 48.3594 10.0365 58.3281 10.7031 68.7969C10.901 70.8594 11.6667 71.8906 13 71.8906C14.4688 71.8906 16.0521 70.9583 17.75 69.0938C19.4479 67.2292 20.2969 65.6615 20.2969 64.3906Z" transform="translate(220.119 32.2455) scale(0.16 -0.16)" fill="#360C90"/>
<path d="M27.5 70.7031C37.9062 70.7031 44.4427 69.6354 47.1094 67.5C49.776 65.3646 51.1094 62.5104 51.1094 58.9375C51.1094 55.375 49.375 51.6406 45.9062 47.7344C42.4375 43.8385 37.6042 39.4271 31.4062 34.5C37.6042 28.6354 40.7031 23.6354 40.7031 19.5C40.7031 16.2292 39.25 13.0417 36.3438 9.9375C33.4479 6.84375 29.9479 4.41146 25.8438 2.64062C21.75 0.880208 18.0365 0 14.7031 0C11.3698 0 8.08333 1.21354 4.84375 3.64062C1.61458 6.07812 0 8.82812 0 11.8906C0 14.9635 1.63542 18.3802 4.90625 22.1406C8.17708 25.9115 12.7083 30.1615 18.5 34.8906C8.83333 42.3594 3.16667 47.3281 1.5 49.7969C0.572917 51.1302 0.109375 52.3802 0.109375 53.5469C0.109375 54.7135 0.291667 55.8802 0.65625 57.0469C1.02083 58.2135 1.50521 58.7969 2.10938 58.7969C2.70312 58.7969 3.53125 58.2448 4.59375 57.1406C5.66667 56.0469 6.65104 55.0625 7.54688 54.1875C8.45312 53.3229 9.92188 52.0573 11.9531 50.3906C13.9844 48.724 16.3021 46.8906 18.9062 44.8906C21.5104 42.8906 23.5104 41.2917 24.9062 40.0938C28.8438 43.2292 31.8125 45.6615 33.8125 47.3906C35.8125 49.1302 37.7292 51.099 39.5625 53.2969C41.3958 55.4948 42.3125 57.3281 42.3125 58.7969C42.3125 61.3281 40.625 62.5938 37.25 62.5938C33.8854 62.5938 30.0365 61.776 25.7031 60.1406C21.3698 58.5156 18.7344 57.7031 17.7969 57.7031C16.8698 57.7031 15.6875 58.2031 14.25 59.2031C12.8229 60.2031 12.1094 61.1667 12.1094 62.0938C12.1094 64.0938 14.6719 66.026 19.7969 67.8906C24.9323 69.7656 32.7031 70.7031 43.1094 70.7031H27.5ZM31.7031 20.7969C31.7031 22.6615 29.5052 25.5625 25.1094 29.5C21.5052 26.6354 18.7344 24.3854 16.7969 22.75C14.8698 21.1146 13.0729 19.2969 11.4062 17.2969C9.73958 15.2969 8.90625 13.6771 8.90625 12.4375C8.90625 11.2083 9.48958 10.0938 10.6562 9.09375C11.8229 8.09375 13.1042 7.59375 14.5 7.59375C18.1667 7.59375 21.9479 8.94271 25.8438 11.6406C29.75 14.349 31.7031 17.401 31.7031 20.7969Z" transform="translate(225.511 32.0055) scale(0.16 -0.16)" fill="#360C90"/>
<path d="M29.3906 35.3125C35.4635 34.5104 40.2969 33.0052 43.8906 30.7969C47.4948 28.599 49.2969 25.6823 49.2969 22.0469C49.2969 18.4219 47.1771 14.8385 42.9375 11.2969C38.7083 7.76562 33.5781 5 27.5469 3C21.5156 1 15.4167 0 9.25 0C3.08333 0 0 1.13542 0 3.40625C0 4.01042 1.97917 4.79167 5.9375 5.75C9.90625 6.71875 14.2552 7.75 18.9844 8.84375C23.724 9.94792 28.0781 11.7188 32.0469 14.1562C36.0156 16.5938 38 19.4115 38 22.6094C38 24.3385 36.7969 25.75 34.3906 26.8438C31.9948 27.9479 29.3281 28.7344 26.3906 29.2031C18.6615 30.3385 14.7969 31.6719 14.7969 33.2031C14.7969 33.7344 14.8958 34.1354 15.0938 34.4062C15.625 35.3438 17.3229 36.6458 20.1875 38.3125C23.0625 39.9792 25.9792 41.6094 28.9375 43.2031C31.9062 44.8073 34.625 46.9062 37.0938 49.5C39.5625 52.1042 40.7969 54.7396 40.7969 57.4062C40.7969 60.5417 39.0938 62.1094 35.6875 62.1094C32.9583 62.1094 29.4948 61.026 25.2969 58.8594C21.099 56.6927 18.7135 55.6094 18.1406 55.6094C17.5781 55.6094 16.526 56.3229 14.9844 57.75C13.4531 59.1875 12.6875 60.2708 12.6875 61C12.6875 63 15.4062 65.0677 20.8438 67.2031C26.2812 69.3385 31.099 70.4062 35.2969 70.4062C39.4948 70.4062 43.0417 68.974 45.9375 66.1094C48.8438 63.2448 50.2969 59.9583 50.2969 56.25C50.2969 52.5521 48.1927 48.7865 43.9844 44.9531C39.7865 41.1198 34.9219 37.9062 29.3906 35.3125Z" transform="translate(234.233 32.103) scale(0.16 -0.16)" fill="#360C90"/>
<path d="M62.6094 54.6875L37.5 27.875L52.8906 0H42.5781L31.0156 21.6875L10.8906 0H0L26.9062 28.8125L12.6094 54.6875H22.9062L33.4062 34.9062L51.7188 54.6875H62.6094Z" transform="translate(242.409 32.358) scale(0.16 -0.16)" fill="#360C90"/>
<path d="M11.8594 8.29688H46.2812V0H0V8.29688C3.73958 12.1719 8.83854 17.3698 15.2969 23.8906C21.7656 30.4219 25.8281 34.6354 27.4844 36.5312C30.6406 40.0729 32.8438 43.0729 34.0938 45.5312C35.3542 47.9896 35.9844 50.4062 35.9844 52.7812C35.9844 56.6562 34.625 59.8125 31.9062 62.25C29.1875 64.6979 25.6458 65.9219 21.2812 65.9219C18.1875 65.9219 14.9219 65.3854 11.4844 64.3125C8.05729 63.2396 4.39062 61.6094 0.484375 59.4219V69.3906C4.45312 70.9844 8.16146 72.1875 11.6094 73C15.0677 73.8125 18.2292 74.2188 21.0938 74.2188C28.6458 74.2188 34.6667 72.3281 39.1562 68.5469C43.6458 64.776 45.8906 59.7344 45.8906 53.4219C45.8906 50.4219 45.3281 47.5781 44.2031 44.8906C43.0885 42.2135 41.0469 39.0521 38.0781 35.4062C37.2656 34.4583 34.6771 31.7292 30.3125 27.2188C25.9583 22.7083 19.8073 16.401 11.8594 8.29688Z" transform="translate(253.113 34.983) scale(0.112 -0.112)" fill="#360C90"/>
<path d="M62.6094 54.6875L37.5 27.875L52.8906 0H42.5781L31.0156 21.6875L10.8906 0H0L26.9062 28.8125L12.6094 54.6875H22.9062L33.4062 34.9062L51.7188 54.6875H62.6094Z" transform="translate(318 61.75) scale(0.16 -0.16)" fill="#360C90"/>
<path d="M11.8594 8.29688H46.2812V0H0V8.29688C3.73958 12.1719 8.83854 17.3698 15.2969 23.8906C21.7656 30.4219 25.8281 34.6354 27.4844 36.5312C30.6406 40.0729 32.8438 43.0729 34.0938 45.5312C35.3542 47.9896 35.9844 50.4062 35.9844 52.7812C35.9844 56.6562 34.625 59.8125 31.9062 62.25C29.1875 64.6979 25.6458 65.9219 21.2812 65.9219C18.1875 65.9219 14.9219 65.3854 11.4844 64.3125C8.05729 63.2396 4.39062 61.6094 0.484375 59.4219V69.3906C4.45312 70.9844 8.16146 72.1875 11.6094 73C15.0677 73.8125 18.2292 74.2188 21.0938 74.2188C28.6458 74.2188 34.6667 72.3281 39.1562 68.5469C43.6458 64.776 45.8906 59.7344 45.8906 53.4219C45.8906 50.4219 45.3281 47.5781 44.2031 44.8906C43.0885 42.2135 41.0469 39.0521 38.0781 35.4062C37.2656 34.4583 34.6771 31.7292 30.3125 27.2188C25.9583 22.7083 19.8073 16.401 11.8594 8.29688Z" transform="translate(328.704 64.375) scale(0.112 -0.112)" fill="#360C90"/>
<path d="M0 5.29688C0 6.43229 6.33333 7.72917 19 9.1875C31.6667 10.6562 40.2135 11.3906 44.6406 11.3906C49.0781 11.3906 51.2969 10.5573 51.2969 8.89062C51.2969 6.43229 43.5312 4.16667 28 2.09375C16.8021 0.697917 8.73438 0 3.79688 0C2.93229 0.0625 2.08333 0.744792 1.25 2.04688C0.416667 3.34896 0 4.43229 0 5.29688ZM3.20312 24.8906C3.26562 26.2969 8.44792 27.5312 18.75 28.5938C29.0521 29.6667 37.5 30.2031 44.0938 30.2031C50.6979 30.2031 54 29.1667 54 27.0938C54 25.9583 52.5469 25.0573 49.6406 24.3906C46.7448 23.724 39.8281 22.7552 28.8906 21.4844C17.9635 20.224 10.6979 19.5938 7.09375 19.5938C6.22917 19.5938 5.36458 20.2448 4.5 21.5469C3.63542 22.849 3.20312 23.9635 3.20312 24.8906Z" transform="translate(267.185 29.3655) scale(0.16 -0.16)" fill="#360C90"/>
<path d="M32.8906 47C32.8906 57.4688 31.3594 62.7031 28.2969 62.7031C26.901 62.7031 25.1198 61.3177 22.9531 58.5469C20.7865 55.7865 18.6823 52.3385 16.6406 48.2031C14.6094 44.0677 12.875 39.349 11.4375 34.0469C10.0104 28.7552 9.29688 23.875 9.29688 19.4062C9.29688 11.7396 11.3281 7.90625 15.3906 7.90625C17.3281 7.90625 19.6771 10.0365 22.4375 14.2969C25.2083 18.5677 27.6406 23.8333 29.7344 30.0938C31.8385 36.3646 32.8906 42 32.8906 47ZM41.8906 37.7031C36.7656 22.901 32.0677 12.9167 27.7969 7.75C23.526 2.58333 19.3385 0 15.2344 0C11.1406 0 7.57812 1.88021 4.54688 5.64062C1.51562 9.41146 0 13.6302 0 18.2969C0 26.3698 1.47917 34.5365 4.4375 42.7969C7.40625 51.0677 11.1406 57.8177 15.6406 63.0469C20.1406 68.2865 24.4896 70.9062 28.6875 70.9062C32.8958 70.9062 36.1458 68.9219 38.4375 64.9531C40.7396 60.9844 41.8906 55.4479 41.8906 48.3438C41.8906 41.25 39.3281 30.3021 34.2031 15.5L41.8906 37.7031Z" transform="translate(283.617 32.0705) scale(0.16 -0.16)" fill="#360C90"/>
<path d="M2.5 5C3.16301 5 3.79895 4.73658 4.26777 4.26777C4.73658 3.79895 5 3.16301 5 2.5C5 1.83699 4.73658 1.20105 4.26777 0.732233C3.79895 0.263416 3.16301 0 2.5 0C1.83699 0 1.20105 0.263416 0.732233 0.732233C0.263416 1.20105 0 1.83699 0 2.5C0 3.16301 0.263416 3.79895 0.732233 4.26777C1.20105 4.73658 1.83699 5 2.5 5Z" transform="translate(336.38 25.673)" fill="#FF9649" stroke="#FF9649"/>
<path d="M27.2969 15.7188C23.1302 8.71875 19.7344 4.34896 17.1094 2.60938C14.4844 0.869792 11.1406 0 7.07812 0H0L1.5 7.51562H6.6875C9.1875 7.51562 11.3177 8.19792 13.0781 9.5625C14.8385 10.9271 16.8073 13.599 18.9844 17.5781L21.7656 22.7969L9.65625 75.4844H19.1875L28.2656 33.5938L53.3594 75.4844H62.7812L27.2969 15.7188Z" transform="translate(367.282 35.6355) scale(0.16 -0.16)" fill="#360C90"/>
<path d="M14.7969 75.9844H23.7812L21.5781 64.5938H12.5938L14.7969 75.9844ZM10.6875 54.6875H19.6719L8.98438 0H0L10.6875 54.6875Z" transform="translate(377.542 34.933) scale(0.112 -0.112)" fill="#360C90"/>
<path d="M0 5.29688C0 6.43229 6.33333 7.72917 19 9.1875C31.6667 10.6562 40.2135 11.3906 44.6406 11.3906C49.0781 11.3906 51.2969 10.5573 51.2969 8.89062C51.2969 6.43229 43.5312 4.16667 28 2.09375C16.8021 0.697917 8.73438 0 3.79688 0C2.93229 0.0625 2.08333 0.744792 1.25 2.04688C0.416667 3.34896 0 4.43229 0 5.29688ZM3.20312 24.8906C3.26562 26.2969 8.44792 27.5312 18.75 28.5938C29.0521 29.6667 37.5 30.2031 44.0938 30.2031C50.6979 30.2031 54 29.1667 54 27.0938C54 25.9583 52.5469 25.0573 49.6406 24.3906C46.7448 23.724 39.8281 22.7552 28.8906 21.4844C17.9635 20.224 10.6979 19.5938 7.09375 19.5938C6.22917 19.5938 5.36458 20.2448 4.5 21.5469C3.63542 22.849 3.20312 23.9635 3.20312 24.8906Z" transform="translate(388.026 29.3155) scale(0.16 -0.16)" fill="#360C90"/>
<path d="M36.9062 8.59375C36.9062 7.53125 35.8229 6.66667 33.6562 6C31.4896 5.33333 26.2552 4.16667 17.9531 2.5C9.65104 0.833333 5.11458 0 4.34375 0C3.58333 0 2.66667 0.5625 1.59375 1.6875C0.53125 2.82292 0 3.85938 0 4.79688C0 6.26562 3.76562 7.68229 11.2969 9.04688C18.8385 10.4115 25.375 11.0938 30.9062 11.0938C34.9062 11.0938 36.9062 10.2604 36.9062 8.59375Z" transform="translate(404.473 28.4355) scale(0.16 -0.16)" fill="#360C90"/>
<path d="M20.2969 64.3906C20.2969 57.2656 18.599 47 15.2031 33.5938C14.474 30.9271 13.6406 27.625 12.7031 23.6875C11.7656 19.7604 10.9948 16.6146 10.3906 14.25C9.79688 11.8854 9.13542 9.5 8.40625 7.09375C7.07292 2.36458 5.77083 0 4.5 0C3.57292 0 2.58854 0.666667 1.54688 2C0.515625 3.33333 0 4.71354 0 6.14062C0 7.57812 0.713542 11.0312 2.14062 16.5C3.57812 21.9688 5.19792 29.4323 7 38.8906C8.80208 48.3594 10.0365 58.3281 10.7031 68.7969C10.901 70.8594 11.6667 71.8906 13 71.8906C14.4688 71.8906 16.0521 70.9583 17.75 69.0938C19.4479 67.2292 20.2969 65.6615 20.2969 64.3906Z" transform="translate(412.057 32.1955) scale(0.16 -0.16)" fill="#360C90"/>
<path d="M2.5 5C3.16301 5 3.79895 4.73658 4.26777 4.26777C4.73658 3.79895 5 3.16301 5 2.5C5 1.83699 4.73658 1.20105 4.26777 0.732233C3.79895 0.263416 3.16301 0 2.5 0C1.83699 0 1.20105 0.263416 0.732233 0.732233C0.263416 1.20105 0 1.83699 0 2.5C0 3.16301 0.263416 3.79895 0.732233 4.26777C1.20105 4.73658 1.83699 5 2.5 5Z" transform="translate(461.5 25.673)" fill="#388EF3" stroke="#388EF3"/>
<path d="M27.2969 15.7188C23.1302 8.71875 19.7344 4.34896 17.1094 2.60938C14.4844 0.869792 11.1406 0 7.07812 0H0L1.5 7.51562H6.6875C9.1875 7.51562 11.3177 8.19792 13.0781 9.5625C14.8385 10.9271 16.8073 13.599 18.9844 17.5781L21.7656 22.7969L9.65625 75.4844H19.1875L28.2656 33.5938L53.3594 75.4844H62.7812L27.2969 15.7188Z" transform="translate(492.402 35.6355) scale(0.16 -0.16)" fill="#360C90"/>
<path d="M14.7969 75.9844H23.7812L21.5781 64.5938H12.5938L14.7969 75.9844ZM10.6875 54.6875H19.6719L8.98438 0H0L10.6875 54.6875Z" transform="translate(502.662 34.933) scale(0.112 -0.112)" fill="#360C90"/>
<path d="M0 5.29688C0 6.43229 6.33333 7.72917 19 9.1875C31.6667 10.6562 40.2135 11.3906 44.6406 11.3906C49.0781 11.3906 51.2969 10.5573 51.2969 8.89062C51.2969 6.43229 43.5312 4.16667 28 2.09375C16.8021 0.697917 8.73438 0 3.79688 0C2.93229 0.0625 2.08333 0.744792 1.25 2.04688C0.416667 3.34896 0 4.43229 0 5.29688ZM3.20312 24.8906C3.26562 26.2969 8.44792 27.5312 18.75 28.5938C29.0521 29.6667 37.5 30.2031 44.0938 30.2031C50.6979 30.2031 54 29.1667 54 27.0938C54 25.9583 52.5469 25.0573 49.6406 24.3906C46.7448 23.724 39.8281 22.7552 28.8906 21.4844C17.9635 20.224 10.6979 19.5938 7.09375 19.5938C6.22917 19.5938 5.36458 20.2448 4.5 21.5469C3.63542 22.849 3.20312 23.9635 3.20312 24.8906Z" transform="translate(513.146 29.3155) scale(0.16 -0.16)" fill="#360C90"/>
<path d="M20.2969 64.3906C20.2969 57.2656 18.599 47 15.2031 33.5938C14.474 30.9271 13.6406 27.625 12.7031 23.6875C11.7656 19.7604 10.9948 16.6146 10.3906 14.25C9.79688 11.8854 9.13542 9.5 8.40625 7.09375C7.07292 2.36458 5.77083 0 4.5 0C3.57292 0 2.58854 0.666667 1.54688 2C0.515625 3.33333 0 4.71354 0 6.14062C0 7.57812 0.713542 11.0312 2.14062 16.5C3.57812 21.9688 5.19792 29.4323 7 38.8906C8.80208 48.3594 10.0365 58.3281 10.7031 68.7969C10.901 70.8594 11.6667 71.8906 13 71.8906C14.4688 71.8906 16.0521 70.9583 17.75 69.0938C19.4479 67.2292 20.2969 65.6615 20.2969 64.3906Z" transform="translate(529.833 32.1955) scale(0.16 -0.16)" fill="#360C90"/>
</svg>
