<svg width="620" height="380" viewBox="0 0 620 380" fill="none" xmlns="http://www.w3.org/2000/svg">
<g clip-path="url(#clip0)">
<rect width="620" height="380" fill="#D3C8FF"/>
<rect x="0.5" y="0.5" width="79" height="299" transform="translate(280 33)" stroke="#360C90"/>
<rect x="0.5" y="0.5" width="9" height="9" transform="translate(57 53)" fill="#360C90" stroke="#360C90"/>
<rect x="0.5" y="0.5" width="9" height="9" transform="translate(87 93)" fill="#360C90" stroke="#360C90"/>
<rect x="0.5" y="0.5" width="9" height="9" transform="translate(157 123)" fill="#360C90" stroke="#360C90"/>
<rect x="0.5" y="0.5" width="9" height="9" transform="translate(157 174)" fill="#360C90" stroke="#360C90"/>
<rect x="0.5" y="0.5" width="9" height="9" transform="translate(57 163)" fill="#360C90" stroke="#360C90"/>
<rect x="0.5" y="0.5" width="9" height="9" transform="translate(156 223)" fill="#360C90" stroke="#360C90"/>
<rect x="0.5" y="0.5" width="9" height="9" transform="translate(127 53)" fill="#360C90" stroke="#360C90"/>
<rect x="0.5" y="0.5" width="9" height="9" transform="translate(107 194)" fill="#360C90" stroke="#360C90"/>
<rect x="0.5" y="0.5" width="9" height="9" transform="translate(47 123)" fill="#360C90" stroke="#360C90"/>
<rect x="0.5" y="0.5" width="9" height="9" transform="translate(157 73)" fill="#360C90" stroke="#360C90"/>
<rect x="0.5" y="0.5" width="9" height="9" transform="translate(57 243)" fill="#360C90" stroke="#360C90"/>
<rect x="0.5" y="0.5" width="9" height="9" transform="translate(137 273)" fill="#360C90" stroke="#360C90"/>
<rect x="0.5" y="0.5" width="9" height="9" transform="translate(67 313)" fill="#360C90" stroke="#360C90"/>
<rect x="0.5" y="0.5" width="149" height="79" transform="translate(438 140)" stroke="#360C90"/>
<path d="M12.204 9.802C12.564 9.802 12.882 10.054 13.158 10.558C13.446 11.05 13.59 11.614 13.59 12.25C13.59 12.874 13.476 13.69 13.248 14.698C13.032 15.706 12.738 16.63 12.366 17.47C11.994 18.31 11.628 18.73 11.268 18.73C11.016 18.73 10.89 18.568 10.89 18.244C10.89 17.908 11.094 17.098 11.502 15.814C11.922 14.518 12.132 13.492 12.132 12.736C12.132 11.968 12.012 11.584 11.772 11.584C11.472 11.584 11.124 11.848 10.728 12.376C10.344 12.904 9.93 13.54 9.486 14.284C9.042 15.028 8.802 15.43 8.766 15.49C8.73 15.538 8.682 15.61 8.622 15.706C8.574 15.802 8.514 15.904 8.442 16.012C8.382 16.12 8.214 16.444 7.938 16.984C7.674 17.524 7.44 17.95 7.236 18.262C7.032 18.562 6.852 18.712 6.696 18.712C6.552 18.712 6.39 18.616 6.21 18.424C6.03 18.232 5.94 18.052 5.94 17.884C5.94 17.716 6.048 17.368 6.264 16.84C6.888 15.28 7.2 13.828 7.2 12.484C7.2 12.232 7.146 12.022 7.038 11.854C6.93 11.674 6.81 11.584 6.678 11.584C6.546 11.584 6.408 11.644 6.264 11.764C6.12 11.872 5.94 12.076 5.724 12.376C5.508 12.664 5.316 12.94 5.148 13.204C4.98 13.468 4.722 13.882 4.374 14.446C4.038 14.998 3.78 15.412 3.6 15.688C3.432 15.952 3.234 16.264 3.006 16.624C2.778 16.972 2.598 17.242 2.466 17.434C2.346 17.626 2.208 17.836 2.052 18.064C1.728 18.508 1.488 18.73 1.332 18.73C1.188 18.73 0.996 18.598 0.756 18.334C0.516 18.058 0.396 17.854 0.396 17.722C0.396 17.578 0.42 17.404 0.468 17.2C0.516 16.996 0.564 16.798 0.612 16.606C0.672 16.414 0.756 16.132 0.864 15.76C0.984 15.376 1.116 14.932 1.26 14.428C1.416 13.912 1.53 13.21 1.602 12.322C1.686 11.422 1.746 10.768 1.782 10.36C1.818 9.94 1.92 9.73 2.088 9.73C2.352 9.73 2.61 9.868 2.862 10.144C3.126 10.42 3.258 10.696 3.258 10.972C3.258 12.028 2.862 13.768 2.07 16.192C3.414 13.672 4.26 12.178 4.608 11.71C4.956 11.242 5.256 10.864 5.508 10.576C5.976 10.06 6.45 9.802 6.93 9.802C7.218 9.802 7.56 10.054 7.956 10.558C8.364 11.05 8.568 11.548 8.568 12.052C8.568 12.556 8.496 13.18 8.352 13.924C9.768 11.176 11.052 9.802 12.204 9.802ZM20.3202 12.862C20.3202 12.454 20.2542 12.07 20.1222 11.71C19.9902 11.338 19.7982 11.068 19.5462 10.9C18.7182 11.128 18.0042 11.77 17.4042 12.826C16.8162 13.87 16.5222 14.854 16.5222 15.778C16.5222 16.702 16.7502 17.278 17.2062 17.506C18.0702 17.338 18.8022 16.75 19.4022 15.742C20.0142 14.722 20.3202 13.762 20.3202 12.862ZM15.5862 13.024C16.0062 12.088 16.5522 11.32 17.2242 10.72C17.9082 10.108 18.6042 9.802 19.3122 9.802C20.0322 9.802 20.6322 10.108 21.1122 10.72C21.5922 11.32 21.8322 12.058 21.8322 12.934C21.8322 13.798 21.6222 14.686 21.2022 15.598C20.7822 16.498 20.2002 17.248 19.4562 17.848C18.7242 18.436 17.9442 18.73 17.1162 18.73C16.5042 18.73 15.9942 18.448 15.5862 17.884C15.1782 17.32 14.9742 16.606 14.9742 15.742C14.9742 14.866 15.1782 13.96 15.5862 13.024ZM29.2504 9.802C29.4544 9.802 29.6524 9.88 29.8444 10.036C30.0364 10.18 30.1324 10.342 30.1324 10.522C30.1324 10.846 29.6944 11.968 28.8184 13.888C27.9544 15.808 27.3364 17.104 26.9644 17.776C26.6044 18.436 26.2864 18.766 26.0104 18.766C25.8544 18.766 25.6624 18.652 25.4344 18.424C25.2064 18.196 25.0384 17.95 24.9304 17.686C24.6064 16.93 24.2584 15.712 23.8864 14.032C23.5144 12.352 23.3284 11.122 23.3284 10.342C23.3284 9.982 23.4364 9.802 23.6524 9.802C23.9164 9.802 24.1864 9.916 24.4624 10.144C24.7384 10.36 24.9304 10.636 25.0384 10.972C25.0744 11.164 25.1224 11.644 25.1824 12.412C25.3504 14.308 25.6384 15.766 26.0464 16.786C26.3704 16.09 26.7844 15.106 27.2884 13.834C27.7924 12.55 28.2004 11.56 28.5124 10.864C28.8364 10.156 29.0824 9.802 29.2504 9.802ZM32.9382 7.246C32.9382 7.006 33.0342 6.778 33.2262 6.562C33.4182 6.346 33.6102 6.238 33.8022 6.238C34.0062 6.238 34.2462 6.484 34.5222 6.976C34.7982 7.456 34.9362 7.858 34.9362 8.182C34.9362 8.302 34.8822 8.41 34.7742 8.506C34.6662 8.602 34.5522 8.65 34.4322 8.65C34.1442 8.65 33.8202 8.476 33.4602 8.128C33.1122 7.78 32.9382 7.486 32.9382 7.246ZM32.8482 9.802C33.0762 9.802 33.2922 9.94 33.4962 10.216C33.7002 10.492 33.8022 10.762 33.8022 11.026C33.8022 11.29 33.6282 12.082 33.2802 13.402C32.9322 14.71 32.4942 16.18 31.9662 17.812C31.7622 18.412 31.5042 18.712 31.1922 18.712C31.0242 18.712 30.8802 18.646 30.7602 18.514C30.6402 18.37 30.5802 18.214 30.5802 18.046C30.5802 17.866 30.6222 17.59 30.7062 17.218C30.8022 16.834 30.9342 16.33 31.1022 15.706C31.2822 15.07 31.4202 14.554 31.5162 14.158C31.6242 13.762 31.7322 13.318 31.8402 12.826C31.9482 12.322 32.0322 11.92 32.0922 11.62C32.1642 11.308 32.2422 10.996 32.3262 10.684C32.4942 10.096 32.6682 9.802 32.8482 9.802ZM42.1052 12.79C42.1052 13.426 41.7572 13.948 41.0612 14.356C40.3772 14.752 39.5972 14.95 38.7212 14.95C37.8572 14.95 37.0712 14.854 36.3632 14.662C36.1952 15.19 36.1112 15.664 36.1112 16.084C36.1112 16.492 36.2372 16.81 36.4892 17.038C36.7532 17.266 37.1792 17.38 37.7672 17.38C38.3672 17.38 38.9792 17.278 39.6032 17.074C40.2392 16.858 40.5872 16.75 40.6472 16.75C40.9592 16.75 41.1152 16.87 41.1152 17.11C41.1152 17.434 40.7492 17.788 40.0172 18.172C39.2852 18.544 38.5712 18.73 37.8752 18.73C36.9392 18.73 36.1772 18.454 35.5892 17.902C35.0012 17.338 34.7072 16.63 34.7072 15.778C34.7072 14.926 34.9352 14.038 35.3912 13.114C35.8472 12.178 36.4352 11.392 37.1552 10.756C37.8752 10.12 38.5892 9.802 39.2972 9.802C40.0052 9.802 40.6472 10.138 41.2232 10.81C41.8112 11.482 42.1052 12.142 42.1052 12.79ZM39.3872 11.224C38.9432 11.224 38.4812 11.458 38.0012 11.926C37.5212 12.382 37.1132 12.952 36.7772 13.636C37.2572 13.744 37.8032 13.798 38.4152 13.798C39.0272 13.798 39.5612 13.702 40.0172 13.51C40.4732 13.306 40.7012 13.042 40.7012 12.718C40.7012 12.394 40.5512 12.064 40.2512 11.728C39.9632 11.392 39.6752 11.224 39.3872 11.224ZM48.1748 9.802C48.5828 9.802 48.9668 10.03 49.3268 10.486C49.6868 10.93 49.8668 11.32 49.8668 11.656C49.8668 11.86 49.7708 11.962 49.5788 11.962C49.4468 11.962 49.2428 11.86 48.9668 11.656C48.6908 11.44 48.4088 11.332 48.1208 11.332C47.8328 11.332 47.3768 11.5 46.7528 11.836C46.1408 12.172 45.8348 12.526 45.8348 12.898C45.8348 13.174 46.3868 13.648 47.4908 14.32C47.9108 14.584 48.2888 14.926 48.6248 15.346C48.9728 15.754 49.1468 16.198 49.1468 16.678C49.1468 17.146 48.8168 17.608 48.1568 18.064C47.5088 18.508 46.7468 18.73 45.8708 18.73C45.0068 18.73 44.2388 18.52 43.5668 18.1C42.9068 17.68 42.5768 17.284 42.5768 16.912C42.5768 16.756 42.6128 16.636 42.6848 16.552C42.7688 16.456 42.8708 16.408 42.9908 16.408C43.1108 16.408 43.2788 16.486 43.4948 16.642C44.1428 17.11 44.8148 17.344 45.5108 17.344C46.2188 17.344 46.7288 17.266 47.0408 17.11C47.3528 16.942 47.5088 16.726 47.5088 16.462C47.5088 16.186 47.3348 15.898 46.9868 15.598C46.6388 15.286 46.2548 15.01 45.8348 14.77C45.4268 14.53 45.0488 14.236 44.7008 13.888C44.3528 13.54 44.1788 13.186 44.1788 12.826C44.1788 12.19 44.6768 11.53 45.6728 10.846C46.6808 10.15 47.5148 9.802 48.1748 9.802Z" transform="translate(86 8)" fill="#360C90"/>
<path d="M12.204 9.802C12.564 9.802 12.882 10.054 13.158 10.558C13.446 11.05 13.59 11.614 13.59 12.25C13.59 12.874 13.476 13.69 13.248 14.698C13.032 15.706 12.738 16.63 12.366 17.47C11.994 18.31 11.628 18.73 11.268 18.73C11.016 18.73 10.89 18.568 10.89 18.244C10.89 17.908 11.094 17.098 11.502 15.814C11.922 14.518 12.132 13.492 12.132 12.736C12.132 11.968 12.012 11.584 11.772 11.584C11.472 11.584 11.124 11.848 10.728 12.376C10.344 12.904 9.93 13.54 9.486 14.284C9.042 15.028 8.802 15.43 8.766 15.49C8.73 15.538 8.682 15.61 8.622 15.706C8.574 15.802 8.514 15.904 8.442 16.012C8.382 16.12 8.214 16.444 7.938 16.984C7.674 17.524 7.44 17.95 7.236 18.262C7.032 18.562 6.852 18.712 6.696 18.712C6.552 18.712 6.39 18.616 6.21 18.424C6.03 18.232 5.94 18.052 5.94 17.884C5.94 17.716 6.048 17.368 6.264 16.84C6.888 15.28 7.2 13.828 7.2 12.484C7.2 12.232 7.146 12.022 7.038 11.854C6.93 11.674 6.81 11.584 6.678 11.584C6.546 11.584 6.408 11.644 6.264 11.764C6.12 11.872 5.94 12.076 5.724 12.376C5.508 12.664 5.316 12.94 5.148 13.204C4.98 13.468 4.722 13.882 4.374 14.446C4.038 14.998 3.78 15.412 3.6 15.688C3.432 15.952 3.234 16.264 3.006 16.624C2.778 16.972 2.598 17.242 2.466 17.434C2.346 17.626 2.208 17.836 2.052 18.064C1.728 18.508 1.488 18.73 1.332 18.73C1.188 18.73 0.996 18.598 0.756 18.334C0.516 18.058 0.396 17.854 0.396 17.722C0.396 17.578 0.42 17.404 0.468 17.2C0.516 16.996 0.564 16.798 0.612 16.606C0.672 16.414 0.756 16.132 0.864 15.76C0.984 15.376 1.116 14.932 1.26 14.428C1.416 13.912 1.53 13.21 1.602 12.322C1.686 11.422 1.746 10.768 1.782 10.36C1.818 9.94 1.92 9.73 2.088 9.73C2.352 9.73 2.61 9.868 2.862 10.144C3.126 10.42 3.258 10.696 3.258 10.972C3.258 12.028 2.862 13.768 2.07 16.192C3.414 13.672 4.26 12.178 4.608 11.71C4.956 11.242 5.256 10.864 5.508 10.576C5.976 10.06 6.45 9.802 6.93 9.802C7.218 9.802 7.56 10.054 7.956 10.558C8.364 11.05 8.568 11.548 8.568 12.052C8.568 12.556 8.496 13.18 8.352 13.924C9.768 11.176 11.052 9.802 12.204 9.802ZM20.3202 12.862C20.3202 12.454 20.2542 12.07 20.1222 11.71C19.9902 11.338 19.7982 11.068 19.5462 10.9C18.7182 11.128 18.0042 11.77 17.4042 12.826C16.8162 13.87 16.5222 14.854 16.5222 15.778C16.5222 16.702 16.7502 17.278 17.2062 17.506C18.0702 17.338 18.8022 16.75 19.4022 15.742C20.0142 14.722 20.3202 13.762 20.3202 12.862ZM15.5862 13.024C16.0062 12.088 16.5522 11.32 17.2242 10.72C17.9082 10.108 18.6042 9.802 19.3122 9.802C20.0322 9.802 20.6322 10.108 21.1122 10.72C21.5922 11.32 21.8322 12.058 21.8322 12.934C21.8322 13.798 21.6222 14.686 21.2022 15.598C20.7822 16.498 20.2002 17.248 19.4562 17.848C18.7242 18.436 17.9442 18.73 17.1162 18.73C16.5042 18.73 15.9942 18.448 15.5862 17.884C15.1782 17.32 14.9742 16.606 14.9742 15.742C14.9742 14.866 15.1782 13.96 15.5862 13.024ZM29.2504 9.802C29.4544 9.802 29.6524 9.88 29.8444 10.036C30.0364 10.18 30.1324 10.342 30.1324 10.522C30.1324 10.846 29.6944 11.968 28.8184 13.888C27.9544 15.808 27.3364 17.104 26.9644 17.776C26.6044 18.436 26.2864 18.766 26.0104 18.766C25.8544 18.766 25.6624 18.652 25.4344 18.424C25.2064 18.196 25.0384 17.95 24.9304 17.686C24.6064 16.93 24.2584 15.712 23.8864 14.032C23.5144 12.352 23.3284 11.122 23.3284 10.342C23.3284 9.982 23.4364 9.802 23.6524 9.802C23.9164 9.802 24.1864 9.916 24.4624 10.144C24.7384 10.36 24.9304 10.636 25.0384 10.972C25.0744 11.164 25.1224 11.644 25.1824 12.412C25.3504 14.308 25.6384 15.766 26.0464 16.786C26.3704 16.09 26.7844 15.106 27.2884 13.834C27.7924 12.55 28.2004 11.56 28.5124 10.864C28.8364 10.156 29.0824 9.802 29.2504 9.802ZM32.9382 7.246C32.9382 7.006 33.0342 6.778 33.2262 6.562C33.4182 6.346 33.6102 6.238 33.8022 6.238C34.0062 6.238 34.2462 6.484 34.5222 6.976C34.7982 7.456 34.9362 7.858 34.9362 8.182C34.9362 8.302 34.8822 8.41 34.7742 8.506C34.6662 8.602 34.5522 8.65 34.4322 8.65C34.1442 8.65 33.8202 8.476 33.4602 8.128C33.1122 7.78 32.9382 7.486 32.9382 7.246ZM32.8482 9.802C33.0762 9.802 33.2922 9.94 33.4962 10.216C33.7002 10.492 33.8022 10.762 33.8022 11.026C33.8022 11.29 33.6282 12.082 33.2802 13.402C32.9322 14.71 32.4942 16.18 31.9662 17.812C31.7622 18.412 31.5042 18.712 31.1922 18.712C31.0242 18.712 30.8802 18.646 30.7602 18.514C30.6402 18.37 30.5802 18.214 30.5802 18.046C30.5802 17.866 30.6222 17.59 30.7062 17.218C30.8022 16.834 30.9342 16.33 31.1022 15.706C31.2822 15.07 31.4202 14.554 31.5162 14.158C31.6242 13.762 31.7322 13.318 31.8402 12.826C31.9482 12.322 32.0322 11.92 32.0922 11.62C32.1642 11.308 32.2422 10.996 32.3262 10.684C32.4942 10.096 32.6682 9.802 32.8482 9.802ZM42.1052 12.79C42.1052 13.426 41.7572 13.948 41.0612 14.356C40.3772 14.752 39.5972 14.95 38.7212 14.95C37.8572 14.95 37.0712 14.854 36.3632 14.662C36.1952 15.19 36.1112 15.664 36.1112 16.084C36.1112 16.492 36.2372 16.81 36.4892 17.038C36.7532 17.266 37.1792 17.38 37.7672 17.38C38.3672 17.38 38.9792 17.278 39.6032 17.074C40.2392 16.858 40.5872 16.75 40.6472 16.75C40.9592 16.75 41.1152 16.87 41.1152 17.11C41.1152 17.434 40.7492 17.788 40.0172 18.172C39.2852 18.544 38.5712 18.73 37.8752 18.73C36.9392 18.73 36.1772 18.454 35.5892 17.902C35.0012 17.338 34.7072 16.63 34.7072 15.778C34.7072 14.926 34.9352 14.038 35.3912 13.114C35.8472 12.178 36.4352 11.392 37.1552 10.756C37.8752 10.12 38.5892 9.802 39.2972 9.802C40.0052 9.802 40.6472 10.138 41.2232 10.81C41.8112 11.482 42.1052 12.142 42.1052 12.79ZM39.3872 11.224C38.9432 11.224 38.4812 11.458 38.0012 11.926C37.5212 12.382 37.1132 12.952 36.7772 13.636C37.2572 13.744 37.8032 13.798 38.4152 13.798C39.0272 13.798 39.5612 13.702 40.0172 13.51C40.4732 13.306 40.7012 13.042 40.7012 12.718C40.7012 12.394 40.5512 12.064 40.2512 11.728C39.9632 11.392 39.6752 11.224 39.3872 11.224ZM48.1748 9.802C48.5828 9.802 48.9668 10.03 49.3268 10.486C49.6868 10.93 49.8668 11.32 49.8668 11.656C49.8668 11.86 49.7708 11.962 49.5788 11.962C49.4468 11.962 49.2428 11.86 48.9668 11.656C48.6908 11.44 48.4088 11.332 48.1208 11.332C47.8328 11.332 47.3768 11.5 46.7528 11.836C46.1408 12.172 45.8348 12.526 45.8348 12.898C45.8348 13.174 46.3868 13.648 47.4908 14.32C47.9108 14.584 48.2888 14.926 48.6248 15.346C48.9728 15.754 49.1468 16.198 49.1468 16.678C49.1468 17.146 48.8168 17.608 48.1568 18.064C47.5088 18.508 46.7468 18.73 45.8708 18.73C45.0068 18.73 44.2388 18.52 43.5668 18.1C42.9068 17.68 42.5768 17.284 42.5768 16.912C42.5768 16.756 42.6128 16.636 42.6848 16.552C42.7688 16.456 42.8708 16.408 42.9908 16.408C43.1108 16.408 43.2788 16.486 43.4948 16.642C44.1428 17.11 44.8148 17.344 45.5108 17.344C46.2188 17.344 46.7288 17.266 47.0408 17.11C47.3528 16.942 47.5088 16.726 47.5088 16.462C47.5088 16.186 47.3348 15.898 46.9868 15.598C46.6388 15.286 46.2548 15.01 45.8348 14.77C45.4268 14.53 45.0488 14.236 44.7008 13.888C44.3528 13.54 44.1788 13.186 44.1788 12.826C44.1788 12.19 44.6768 11.53 45.6728 10.846C46.6808 10.15 47.5148 9.802 48.1748 9.802Z" transform="translate(487 116)" fill="#360C90"/>
<path d="M12.72 24.36C13.616 24.36 14.432 24.632 15.168 25.176C15.904 25.72 16.496 26.328 16.944 27C18.128 28.792 19.296 29.768 20.448 29.928C21.088 29.832 21.664 29.528 22.176 29.016C22.72 28.504 23.136 27.96 23.424 27.384C24.256 25.912 25.056 25.176 25.824 25.176C26.624 25.176 27.024 25.848 27.024 27.192C27.024 28.504 26.352 29.944 25.008 31.512C23.664 33.048 22.192 33.816 20.592 33.816C18.192 33.816 15.712 31.784 13.152 27.72C12.256 28.104 11.456 28.648 10.752 29.352C10.08 30.024 9.568 30.648 9.216 31.224C8.384 32.696 7.568 33.432 6.768 33.432C5.648 33.432 5.088 32.92 5.088 31.896C5.12 30.328 5.984 28.68 7.68 26.952C9.376 25.224 11.056 24.36 12.72 24.36ZM10.128 35.4C11.024 35.4 11.84 35.672 12.576 36.216C13.312 36.76 13.904 37.368 14.352 38.04C15.568 39.864 16.736 40.856 17.856 41.016C18.496 40.92 19.072 40.616 19.584 40.104C20.128 39.592 20.544 39.064 20.832 38.52C21.664 37.016 22.464 36.264 23.232 36.264C24.032 36.264 24.432 36.936 24.432 38.28C24.432 39.592 23.76 41.032 22.416 42.6C21.072 44.136 19.6 44.904 18 44.904C15.6 44.904 13.12 42.856 10.56 38.76C9.664 39.144 8.864 39.688 8.16 40.392C7.488 41.064 6.976 41.688 6.624 42.264C5.792 43.736 4.976 44.472 4.176 44.472C3.056 44.472 2.496 43.976 2.496 42.984C2.528 41.416 3.392 39.768 5.088 38.04C6.784 36.28 8.464 35.4 10.128 35.4Z" transform="translate(210 147)" fill="#360C90"/>
<path d="M4.8 50.232C4.32 50.232 3.776 49.88 3.168 49.176C2.56 48.472 2.256 47.768 2.256 47.064C2.256 46.328 3.136 42.856 4.896 36.648C6.656 30.44 7.664 25.72 7.92 22.488C7.504 22.232 7.136 21.832 6.816 21.288C6.496 20.744 6.336 20.264 6.336 19.848C6.336 19.112 7.424 18.36 9.6 17.592C11.776 16.792 14.176 16.392 16.8 16.392C19.456 16.392 21.744 17.032 23.664 18.312C25.616 19.56 26.592 21.336 26.592 23.64C26.592 25.208 26.144 26.68 25.248 28.056C24.384 29.4 23.312 30.504 22.032 31.368C20.784 32.232 19.536 33 18.288 33.672C17.04 34.344 15.968 34.904 15.072 35.352C14.208 35.768 13.776 36.072 13.776 36.264C13.776 36.968 14.32 37.88 15.408 39C16.528 40.12 17.312 40.888 17.76 41.304C18.208 41.72 18.8 42.28 19.536 42.984C20.272 43.656 20.96 44.264 21.6 44.808C22.272 45.352 22.8 45.8 23.184 46.152C23.6 46.504 24.016 46.872 24.432 47.256C25.232 47.992 25.632 48.584 25.632 49.032C25.632 49.8 25.104 50.184 24.048 50.184C22.128 50.184 19.392 48.52 15.84 45.192C12.288 41.832 10.112 38.984 9.312 36.648C7.808 41.64 6.944 44.536 6.72 45.336C6.496 46.104 6.24 46.904 5.952 47.736C5.44 49.4 5.056 50.232 4.8 50.232ZM12.048 23.784C12.048 25.864 11.376 29.304 10.032 34.104C10.576 33.688 11.616 33.08 13.152 32.28C14.688 31.448 16.064 30.696 17.28 30.024C18.528 29.32 19.664 28.392 20.688 27.24C21.712 26.088 22.224 24.888 22.224 23.64C22.224 21.656 20.496 20.664 17.04 20.664C15.472 20.664 13.648 21.064 11.568 21.864C11.888 22.568 12.048 23.208 12.048 23.784Z" transform="translate(94 324)" fill="#360C90"/>
<path d="M26.832 24.456C26.832 27.912 25.168 30.84 21.84 33.24C18.544 35.64 14.176 37.368 8.736 38.424C6.4 46.328 5.008 50.28 4.56 50.28C4.112 50.28 3.584 49.928 2.976 49.224C2.368 48.488 2.064 47.768 2.064 47.064C2.064 46.328 2.528 44.408 3.456 41.304C6.336 31.736 7.84 25.064 7.968 21.288C7.2 20.584 6.816 19.944 6.816 19.368C6.816 18.568 7.904 17.8 10.08 17.064C12.256 16.328 14.336 15.96 16.32 15.96C19.392 15.96 21.904 16.744 23.856 18.312C25.84 19.88 26.832 21.928 26.832 24.456ZM22.608 24.744C22.608 23.336 22.064 22.184 20.976 21.288C19.92 20.36 18.64 19.896 17.136 19.896C15.632 19.896 13.808 20.376 11.664 21.336C11.984 22.04 12.144 22.696 12.144 23.304C12.144 25.096 11.36 28.888 9.792 34.68C13.632 33.656 16.72 32.248 19.056 30.456C21.424 28.632 22.608 26.728 22.608 24.744Z" transform="translate(305 323)" fill="#360C90"/>
<path d="M19.008 16.488C21.696 16.488 24.048 17.704 26.064 20.136C28.112 22.568 29.136 25.32 29.136 28.392C29.136 31.432 28.336 34.632 26.736 37.992C25.136 41.32 23.088 44.088 20.592 46.296C21.04 47.544 21.6 49.016 22.272 50.712C22.944 52.376 23.44 53.64 23.76 54.504C24.08 55.4 24.24 56.088 24.24 56.568C24.24 57.304 23.84 57.672 23.04 57.672C21.6 57.672 19.712 54.616 17.376 48.504C15.424 49.528 13.424 50.04 11.376 50.04C9.328 50.04 7.376 49.08 5.52 47.16C3.664 45.24 2.736 43.096 2.736 40.728C2.736 37.752 3.264 34.76 4.32 31.752C5.376 28.744 6.688 26.152 8.256 23.976C9.856 21.768 11.616 19.976 13.536 18.6C15.488 17.192 17.312 16.488 19.008 16.488ZM19.104 41.832C20.736 39.912 22.08 37.784 23.136 35.448C24.224 33.08 24.768 30.76 24.768 28.488C24.768 26.216 24.192 24.312 23.04 22.776C21.888 21.24 20.656 20.472 19.344 20.472C18.832 20.472 18.272 20.6 17.664 20.856C16.928 21.88 16.56 23.432 16.56 25.512C16.56 30.728 17.408 36.168 19.104 41.832ZM6.96 40.392C6.96 42.152 7.472 43.592 8.496 44.712C9.552 45.832 10.688 46.392 11.904 46.392C13.12 46.392 14.496 45.832 16.032 44.712C13.76 37.608 12.624 32.072 12.624 28.104C12.624 26.856 12.736 25.768 12.96 24.84C11.232 26.952 9.792 29.416 8.64 32.232C7.52 35.048 6.96 37.768 6.96 40.392Z" transform="translate(499 212)" fill="#360C90"/>
<path d="M9.936 35.928C12.528 32.44 14.448 29.992 15.696 28.584C16.976 27.176 17.92 26.472 18.528 26.472C19.136 26.472 19.728 26.728 20.304 27.24C20.912 27.752 21.216 28.2 21.216 28.584C21.216 28.936 21.104 29.24 20.88 29.496C20.656 29.72 20.288 30.04 19.776 30.456C19.296 30.872 18.832 31.32 18.384 31.8C17.968 32.248 17.424 32.888 16.752 33.72C16.08 34.52 15.264 35.528 14.304 36.744C13.376 37.928 12.608 38.888 12 39.624C12.192 39.912 12.48 40.392 12.864 41.064C13.28 41.736 13.616 42.296 13.872 42.744C14.16 43.192 14.512 43.768 14.928 44.472C15.376 45.144 15.744 45.704 16.032 46.152C16.32 46.568 16.592 47 16.848 47.448C17.36 48.28 17.616 48.856 17.616 49.176C17.616 49.496 17.504 49.768 17.28 49.992C17.056 50.184 16.784 50.28 16.464 50.28C15.024 50.28 12.72 47.704 9.552 42.552C5.36 47.704 2.816 50.28 1.92 50.28C1.408 50.28 0.88 50.024 0.336 49.512C-0.208 48.968 -0.48 48.472 -0.48 48.024C-0.48 47.864 -0.128 47.432 0.576 46.728C3.68 43.624 6 41.096 7.536 39.144C6.064 36.52 4.816 34.088 3.792 31.848C2.768 29.608 2.256 28.264 2.256 27.816C2.256 27.336 2.272 27.032 2.304 26.904C2.368 26.616 2.72 26.472 3.36 26.472C4 26.472 4.784 26.664 5.712 27.048C6.64 27.432 7.104 27.896 7.104 28.44C7.104 29.784 8.048 32.28 9.936 35.928Z" transform="translate(381 143)" fill="#360C90"/>
<path d="M8.262 4.762C8.454 4.762 8.688 4.942 8.964 5.302C9.252 5.65 9.396 5.98 9.396 6.292C9.396 6.604 9.246 7.492 8.946 8.956C8.646 10.408 8.298 11.914 7.902 13.474C7.038 16.978 6.468 18.73 6.192 18.73C6.024 18.73 5.838 18.628 5.634 18.424C5.442 18.208 5.346 18.022 5.346 17.866C5.346 17.71 5.388 17.398 5.472 16.93C4.296 18.13 3.27 18.73 2.394 18.73C1.866 18.73 1.386 18.49 0.954 18.01C0.534 17.53 0.324 17.032 0.324 16.516C0.324 15.772 0.522 14.89 0.918 13.87C1.326 12.838 1.908 11.902 2.664 11.062C3.42 10.222 4.224 9.802 5.076 9.802C5.928 9.802 6.522 10.312 6.858 11.332C7.47 8.788 7.806 6.778 7.866 5.302C7.866 4.942 7.998 4.762 8.262 4.762ZM6.282 13.6C6.282 12.952 6.168 12.406 5.94 11.962C5.724 11.518 5.46 11.296 5.148 11.296C4.632 11.296 4.104 11.614 3.564 12.25C3.024 12.886 2.592 13.618 2.268 14.446C1.956 15.262 1.8 15.97 1.8 16.57C1.8 16.786 1.878 16.96 2.034 17.092C2.19 17.224 2.376 17.29 2.592 17.29C3.06 17.29 3.69 16.954 4.482 16.282C5.286 15.61 5.868 14.818 6.228 13.906L6.282 13.69V13.6Z" transform="translate(315 7)" fill="#360C90"/>
<path d="M6.93 10.306C6.978 10.114 7.026 9.982 7.074 9.91C7.122 9.838 7.224 9.802 7.38 9.802C7.548 9.802 7.746 9.958 7.974 10.27C8.214 10.582 8.334 10.882 8.334 11.17C8.334 11.326 8.07 12.25 7.542 13.942C7.014 15.634 6.606 16.978 6.318 17.974C6.174 18.478 5.97 18.73 5.706 18.73C5.55 18.73 5.418 18.664 5.31 18.532C5.202 18.4 5.148 18.16 5.148 17.812C5.148 17.464 5.286 16.834 5.562 15.922C5.058 16.738 4.512 17.41 3.924 17.938C3.336 18.466 2.796 18.73 2.304 18.73C1.824 18.73 1.368 18.502 0.936 18.046C0.504 17.59 0.288 17.122 0.288 16.642C0.288 15.502 0.618 14.08 1.278 12.376C1.95 10.66 2.508 9.802 2.952 9.802C3.168 9.802 3.354 9.904 3.51 10.108C3.678 10.3 3.762 10.522 3.762 10.774C3.762 10.882 3.6 11.272 3.276 11.944C2.952 12.604 2.628 13.384 2.304 14.284C1.98 15.172 1.818 15.952 1.818 16.624C1.818 16.816 1.878 16.978 1.998 17.11C2.118 17.23 2.262 17.29 2.43 17.29C2.886 17.29 3.426 16.888 4.05 16.084C4.686 15.28 5.262 14.344 5.778 13.276C6.294 12.208 6.678 11.218 6.93 10.306ZM14.372 9.802C14.78 9.802 15.164 10.03 15.524 10.486C15.884 10.93 16.064 11.32 16.064 11.656C16.064 11.86 15.968 11.962 15.776 11.962C15.644 11.962 15.44 11.86 15.164 11.656C14.888 11.44 14.606 11.332 14.318 11.332C14.03 11.332 13.574 11.5 12.95 11.836C12.338 12.172 12.032 12.526 12.032 12.898C12.032 13.174 12.584 13.648 13.688 14.32C14.108 14.584 14.486 14.926 14.822 15.346C15.17 15.754 15.344 16.198 15.344 16.678C15.344 17.146 15.014 17.608 14.354 18.064C13.706 18.508 12.944 18.73 12.068 18.73C11.204 18.73 10.436 18.52 9.76402 18.1C9.10402 17.68 8.77402 17.284 8.77402 16.912C8.77402 16.756 8.81002 16.636 8.88202 16.552C8.96602 16.456 9.06802 16.408 9.18802 16.408C9.30802 16.408 9.47602 16.486 9.69202 16.642C10.34 17.11 11.012 17.344 11.708 17.344C12.416 17.344 12.926 17.266 13.238 17.11C13.55 16.942 13.706 16.726 13.706 16.462C13.706 16.186 13.532 15.898 13.184 15.598C12.836 15.286 12.452 15.01 12.032 14.77C11.624 14.53 11.246 14.236 10.898 13.888C10.55 13.54 10.376 13.186 10.376 12.826C10.376 12.19 10.874 11.53 11.87 10.846C12.878 10.15 13.712 9.802 14.372 9.802ZM24.0701 12.79C24.0701 13.426 23.7221 13.948 23.0261 14.356C22.3421 14.752 21.5621 14.95 20.6861 14.95C19.8221 14.95 19.0361 14.854 18.3281 14.662C18.1601 15.19 18.0761 15.664 18.0761 16.084C18.0761 16.492 18.2021 16.81 18.4541 17.038C18.7181 17.266 19.1441 17.38 19.7321 17.38C20.3321 17.38 20.9441 17.278 21.5681 17.074C22.2041 16.858 22.5521 16.75 22.6121 16.75C22.9241 16.75 23.0801 16.87 23.0801 17.11C23.0801 17.434 22.7141 17.788 21.9821 18.172C21.2501 18.544 20.5361 18.73 19.8401 18.73C18.9041 18.73 18.1421 18.454 17.5541 17.902C16.9661 17.338 16.6721 16.63 16.6721 15.778C16.6721 14.926 16.9001 14.038 17.3561 13.114C17.8121 12.178 18.4001 11.392 19.1201 10.756C19.8401 10.12 20.5541 9.802 21.2621 9.802C21.9701 9.802 22.6121 10.138 23.1881 10.81C23.7761 11.482 24.0701 12.142 24.0701 12.79ZM21.3521 11.224C20.9081 11.224 20.4461 11.458 19.9661 11.926C19.4861 12.382 19.0781 12.952 18.7421 13.636C19.2221 13.744 19.7681 13.798 20.3801 13.798C20.9921 13.798 21.5261 13.702 21.9821 13.51C22.4381 13.306 22.6661 13.042 22.6661 12.718C22.6661 12.394 22.5161 12.064 22.2161 11.728C21.9281 11.392 21.6401 11.224 21.3521 11.224ZM26.0716 11.998L26.0176 10.648C26.0176 10.084 26.1496 9.802 26.4136 9.802C26.6416 9.802 26.8576 9.952 27.0616 10.252C27.2776 10.54 27.3856 10.888 27.3856 11.296C27.3856 11.692 27.3736 11.992 27.3496 12.196C28.3936 10.612 29.3836 9.82 30.3196 9.82C30.9076 9.82 31.2016 9.964 31.2016 10.252C31.2016 10.396 31.1356 10.528 31.0036 10.648C30.8716 10.768 30.6616 10.906 30.3736 11.062C29.7376 11.338 29.1976 11.764 28.7536 12.34C28.3216 12.904 27.9676 13.546 27.6916 14.266C27.4156 14.986 27.1936 15.592 27.0256 16.084C26.8696 16.576 26.7496 16.96 26.6656 17.236C26.5816 17.512 26.4856 17.782 26.3776 18.046C26.1856 18.526 25.9636 18.766 25.7116 18.766C25.5076 18.766 25.3396 18.652 25.2076 18.424C25.0876 18.184 25.0276 17.956 25.0276 17.74C25.0276 17.512 25.1296 17.068 25.3336 16.408C25.8256 14.896 26.0716 13.426 26.0716 11.998ZM36.0986 9.802C36.5066 9.802 36.8906 10.03 37.2506 10.486C37.6106 10.93 37.7906 11.32 37.7906 11.656C37.7906 11.86 37.6946 11.962 37.5026 11.962C37.3706 11.962 37.1666 11.86 36.8906 11.656C36.6146 11.44 36.3326 11.332 36.0446 11.332C35.7566 11.332 35.3006 11.5 34.6766 11.836C34.0646 12.172 33.7586 12.526 33.7586 12.898C33.7586 13.174 34.3106 13.648 35.4146 14.32C35.8346 14.584 36.2126 14.926 36.5486 15.346C36.8966 15.754 37.0706 16.198 37.0706 16.678C37.0706 17.146 36.7406 17.608 36.0806 18.064C35.4326 18.508 34.6706 18.73 33.7946 18.73C32.9306 18.73 32.1626 18.52 31.4906 18.1C30.8306 17.68 30.5006 17.284 30.5006 16.912C30.5006 16.756 30.5366 16.636 30.6086 16.552C30.6926 16.456 30.7946 16.408 30.9146 16.408C31.0346 16.408 31.2026 16.486 31.4186 16.642C32.0666 17.11 32.7386 17.344 33.4346 17.344C34.1426 17.344 34.6526 17.266 34.9646 17.11C35.2766 16.942 35.4326 16.726 35.4326 16.462C35.4326 16.186 35.2586 15.898 34.9106 15.598C34.5626 15.286 34.1786 15.01 33.7586 14.77C33.3506 14.53 32.9726 14.236 32.6246 13.888C32.2766 13.54 32.1026 13.186 32.1026 12.826C32.1026 12.19 32.6006 11.53 33.5966 10.846C34.6046 10.15 35.4386 9.802 36.0986 9.802Z" transform="translate(10 194) rotate(-90)" fill="#360C90"/>
<path opacity="0.1" d="M0 0H150" transform="translate(37 43)" stroke="#360C90"/>
<path opacity="0.1" d="M0 0H150" transform="translate(37 53)" stroke="#360C90"/>
<path opacity="0.1" d="M0 0H150" transform="translate(37 63)" stroke="#360C90"/>
<path opacity="0.1" d="M0 0H150" transform="translate(37 73)" stroke="#360C90"/>
<path opacity="0.1" d="M0 0H150" transform="translate(37 83)" stroke="#360C90"/>
<path opacity="0.1" d="M0 0H150" transform="translate(37 93)" stroke="#360C90"/>
<path opacity="0.1" d="M0 0H150" transform="translate(37 103)" stroke="#360C90"/>
<path opacity="0.1" d="M0 0H150" transform="translate(37 113)" stroke="#360C90"/>
<path opacity="0.1" d="M0 0H150" transform="translate(37 123)" stroke="#360C90"/>
<path opacity="0.1" d="M0 0H150" transform="translate(37 133)" stroke="#360C90"/>
<path opacity="0.1" d="M0 0H150" transform="translate(37 143)" stroke="#360C90"/>
<path opacity="0.1" d="M0 0H150" transform="translate(37 153)" stroke="#360C90"/>
<path opacity="0.1" d="M0 0H150" transform="translate(37 163)" stroke="#360C90"/>
<path opacity="0.1" d="M0 0H150" transform="translate(37 173)" stroke="#360C90"/>
<path opacity="0.1" d="M0 0H300" transform="translate(177 33) rotate(90)" stroke="#360C90"/>
<path opacity="0.1" d="M0 0H300" transform="translate(167 33) rotate(90)" stroke="#360C90"/>
<path opacity="0.1" d="M0 0H300" transform="translate(157 33) rotate(90)" stroke="#360C90"/>
<path opacity="0.1" d="M0 0H300" transform="translate(147 33) rotate(90)" stroke="#360C90"/>
<path opacity="0.1" d="M0 0H300" transform="translate(137 33) rotate(90)" stroke="#360C90"/>
<path opacity="0.1" d="M0 0H300" transform="translate(127 33) rotate(90)" stroke="#360C90"/>
<path opacity="0.1" d="M0 0H300" transform="translate(117 33) rotate(90)" stroke="#360C90"/>
<path opacity="0.1" d="M0 0H300" transform="translate(107 33) rotate(90)" stroke="#360C90"/>
<path opacity="0.1" d="M0 0H300" transform="translate(97 33) rotate(90)" stroke="#360C90"/>
<path opacity="0.1" d="M0 0H300" transform="translate(87 33) rotate(90)" stroke="#360C90"/>
<path opacity="0.1" d="M0 0H300" transform="translate(77 33) rotate(90)" stroke="#360C90"/>
<path opacity="0.1" d="M0 0H300" transform="translate(67 33) rotate(90)" stroke="#360C90"/>
<path opacity="0.1" d="M0 0H300" transform="translate(57 33) rotate(90)" stroke="#360C90"/>
<path opacity="0.1" d="M0 0H300" transform="translate(47 33) rotate(90)" stroke="#360C90"/>
<path opacity="0.1" d="M0 0H150" transform="translate(37 183)" stroke="#360C90"/>
<path opacity="0.1" d="M0 0H150" transform="translate(37 193)" stroke="#360C90"/>
<path opacity="0.1" d="M0 0H150" transform="translate(37 203)" stroke="#360C90"/>
<path opacity="0.1" d="M0 0H150" transform="translate(37 213)" stroke="#360C90"/>
<path opacity="0.1" d="M0 0H150" transform="translate(37 223)" stroke="#360C90"/>
<path opacity="0.1" d="M0 0H150" transform="translate(37 233)" stroke="#360C90"/>
<path opacity="0.1" d="M0 0H150" transform="translate(37 243)" stroke="#360C90"/>
<rect width="43" height="19" transform="translate(91 171)" fill="#D3C8FF"/>
<path d="M4.228 7.972C4.52667 7.972 4.79733 8.13067 5.04 8.448C5.292 8.756 5.418 8.99867 5.418 9.176C5.418 9.344 5.362 9.428 5.25 9.428C5.138 9.428 4.97467 9.32533 4.76 9.12C4.54533 8.91467 4.32133 8.812 4.088 8.812C3.85467 8.812 3.486 8.97533 2.982 9.302C2.478 9.61933 2.226 9.93667 2.226 10.254C2.226 10.478 2.53867 10.7907 3.164 11.192C3.42533 11.36 3.68667 11.542 3.948 11.738C4.57333 12.2047 4.886 12.662 4.886 13.11C4.886 13.558 4.648 13.9453 4.172 14.272C3.696 14.5987 3.14067 14.762 2.506 14.762C1.87133 14.762 1.302 14.6033 0.798 14.286C0.303333 13.9687 0.056 13.684 0.056 13.432C0.056 13.348 0.0793333 13.278 0.126 13.222C0.182 13.166 0.242667 13.138 0.308 13.138C0.382667 13.138 0.504 13.208 0.672 13.348C1.204 13.7587 1.75467 13.964 2.324 13.964C3.42533 13.964 3.976 13.6747 3.976 13.096C3.976 12.844 3.836 12.5967 3.556 12.354C3.28533 12.102 2.98667 11.8873 2.66 11.71C2.33333 11.5327 2.03 11.3087 1.75 11.038C1.47933 10.7673 1.344 10.492 1.344 10.212C1.344 9.72667 1.694 9.232 2.394 8.728C3.10333 8.224 3.71467 7.972 4.228 7.972ZM5.50616 18.332C5.39416 18.332 5.29149 18.262 5.19816 18.122C5.09549 17.9913 5.04416 17.8653 5.04416 17.744C5.04416 17.6227 5.20282 16.932 5.52016 15.672C6.46282 11.9107 6.93416 9.47467 6.93416 8.364C6.93416 8.20533 6.94816 8.098 6.97616 8.042C7.00416 7.97667 7.07416 7.944 7.18616 7.944C7.29816 7.944 7.43349 8.05133 7.59216 8.266C7.76016 8.47133 7.84416 8.672 7.84416 8.868C7.84416 9.064 7.76482 9.498 7.60616 10.17C8.04482 9.442 8.51149 8.882 9.00616 8.49C9.50082 8.098 9.97216 7.902 10.4202 7.902C10.8682 7.902 11.2088 8.13067 11.4422 8.588C11.6848 9.04533 11.8062 9.60533 11.8062 10.268C11.8062 10.9213 11.5448 11.612 11.0222 12.34C10.4995 13.068 9.88349 13.6513 9.17416 14.09C8.46482 14.5287 7.82549 14.748 7.25616 14.748C6.95749 14.748 6.71949 14.6967 6.54216 14.594C6.43949 15.0047 6.35549 15.3687 6.29016 15.686C6.22482 16.0127 6.15949 16.3067 6.09416 16.568C6.03816 16.8387 5.97282 17.1187 5.89816 17.408C5.73949 18.024 5.60882 18.332 5.50616 18.332ZM7.13016 13.936C7.62482 13.936 8.16149 13.7727 8.74016 13.446C9.31882 13.1193 9.82749 12.6573 10.2662 12.06C10.7048 11.4627 10.9242 10.8327 10.9242 10.17C10.9242 9.22733 10.7188 8.756 10.3082 8.756C9.90682 8.756 9.36082 9.12933 8.67016 9.876C7.97949 10.6133 7.44749 11.4487 7.07416 12.382L6.69616 13.894C6.82682 13.922 6.97149 13.936 7.13016 13.936ZM15.7582 7.972C16.2435 7.972 16.6169 8.17267 16.8782 8.574C17.1489 8.97533 17.2842 9.33933 17.2842 9.666C17.2842 9.98333 17.1815 10.282 16.9762 10.562C17.0602 10.6553 17.1022 10.7767 17.1022 10.926C17.1022 11.5233 17.0509 12.088 16.9482 12.62C16.8549 13.152 16.7942 13.5767 16.7662 13.894C16.7382 14.2113 16.7055 14.4353 16.6682 14.566C16.6402 14.6967 16.5842 14.762 16.5002 14.762C16.3415 14.762 16.2389 14.6127 16.1922 14.314C16.1455 14.006 16.1222 13.5347 16.1222 12.9C15.8329 13.4133 15.4642 13.852 15.0162 14.216C14.5775 14.58 14.1435 14.762 13.7142 14.762C13.2942 14.762 12.8882 14.5987 12.4962 14.272C12.1042 13.9453 11.9082 13.586 11.9082 13.194C11.9082 12.5967 12.1135 11.8873 12.5242 11.066C12.9442 10.2353 13.4669 9.512 14.0922 8.896C14.7175 8.28 15.2729 7.972 15.7582 7.972ZM16.5562 10.394C16.5469 10.3287 16.5422 10.1747 16.5422 9.932C16.5422 9.68 16.4862 9.428 16.3742 9.176C16.2715 8.924 16.1129 8.798 15.8982 8.798C15.5435 8.798 15.1142 9.06867 14.6102 9.61C14.1155 10.142 13.6862 10.7627 13.3222 11.472C12.9582 12.172 12.7762 12.7507 12.7762 13.208C12.7762 13.4133 12.8695 13.586 13.0562 13.726C13.2522 13.866 13.4575 13.936 13.6722 13.936C14.1575 13.936 14.6522 13.6233 15.1562 12.998C15.6602 12.3727 16.0429 11.6027 16.3042 10.688C16.3322 10.5293 16.4162 10.4313 16.5562 10.394ZM19.5279 9.33L19.4999 8.574C19.4999 8.25667 19.5233 8.07933 19.5699 8.042C19.6166 7.99533 19.6633 7.972 19.7099 7.972C19.8406 7.972 19.9713 8.07 20.1019 8.266C20.2326 8.462 20.2979 8.672 20.2979 8.896C20.2979 9.49333 20.2466 10.0907 20.1439 10.688C20.4239 10.1 20.7226 9.596 21.0399 9.176C21.3573 8.74667 21.6513 8.448 21.9219 8.28C22.1926 8.112 22.4353 8.028 22.6499 8.028C23.0606 8.028 23.2659 8.112 23.2659 8.28C23.2659 8.40133 23.1213 8.52267 22.8319 8.644C22.2813 8.85867 21.8379 9.19467 21.5019 9.652C21.1659 10.1 20.8346 10.6833 20.5079 11.402C20.1813 12.1113 19.9293 12.746 19.7519 13.306C19.5839 13.866 19.4579 14.258 19.3739 14.482C19.2899 14.706 19.1826 14.818 19.0519 14.818C18.9493 14.818 18.8606 14.7527 18.7859 14.622C18.7113 14.4913 18.6739 14.3653 18.6739 14.244C18.6739 14.1133 18.7019 13.9453 18.7579 13.74C19.0193 12.8813 19.2106 12.1487 19.3319 11.542C19.4626 10.926 19.5279 10.1887 19.5279 9.33ZM26.8003 7.972C27.0989 7.972 27.3696 8.13067 27.6123 8.448C27.8643 8.756 27.9903 8.99867 27.9903 9.176C27.9903 9.344 27.9343 9.428 27.8223 9.428C27.7103 9.428 27.5469 9.32533 27.3323 9.12C27.1176 8.91467 26.8936 8.812 26.6603 8.812C26.4269 8.812 26.0583 8.97533 25.5543 9.302C25.0503 9.61933 24.7983 9.93667 24.7983 10.254C24.7983 10.478 25.1109 10.7907 25.7363 11.192C25.9976 11.36 26.2589 11.542 26.5203 11.738C27.1456 12.2047 27.4583 12.662 27.4583 13.11C27.4583 13.558 27.2203 13.9453 26.7443 14.272C26.2683 14.5987 25.7129 14.762 25.0783 14.762C24.4436 14.762 23.8743 14.6033 23.3703 14.286C22.8756 13.9687 22.6283 13.684 22.6283 13.432C22.6283 13.348 22.6516 13.278 22.6983 13.222C22.7543 13.166 22.8149 13.138 22.8803 13.138C22.9549 13.138 23.0763 13.208 23.2443 13.348C23.7763 13.7587 24.3269 13.964 24.8963 13.964C25.9976 13.964 26.5483 13.6747 26.5483 13.096C26.5483 12.844 26.4083 12.5967 26.1283 12.354C25.8576 12.102 25.5589 11.8873 25.2323 11.71C24.9056 11.5327 24.6023 11.3087 24.3223 11.038C24.0516 10.7673 23.9163 10.492 23.9163 10.212C23.9163 9.72667 24.2663 9.232 24.9663 8.728C25.6756 8.224 26.2869 7.972 26.8003 7.972ZM33.9304 10.184C33.9304 10.6693 33.6831 11.0567 33.1884 11.346C32.6938 11.626 32.1244 11.766 31.4804 11.766C30.8364 11.766 30.1598 11.6773 29.4504 11.5C29.3011 11.976 29.2264 12.4007 29.2264 12.774C29.2264 13.1473 29.3571 13.4413 29.6184 13.656C29.8798 13.8613 30.2251 13.964 30.6544 13.964C31.0838 13.964 31.5411 13.8753 32.0264 13.698C32.5118 13.5207 32.7871 13.432 32.8524 13.432C33.0204 13.432 33.1044 13.5067 33.1044 13.656C33.1044 13.8427 32.8291 14.076 32.2784 14.356C31.7278 14.6267 31.2238 14.762 30.7664 14.762C30.1224 14.762 29.5718 14.5613 29.1144 14.16C28.6664 13.7493 28.4424 13.222 28.4424 12.578C28.4424 11.9247 28.6104 11.2387 28.9464 10.52C29.2824 9.80133 29.7211 9.19933 30.2624 8.714C30.8038 8.21933 31.3358 7.972 31.8584 7.972C32.3904 7.972 32.8664 8.21933 33.2864 8.714C33.7158 9.19933 33.9304 9.68933 33.9304 10.184ZM31.9704 8.756C31.5504 8.756 31.1304 8.96133 30.7104 9.372C30.2998 9.78267 29.9591 10.296 29.6884 10.912C30.2298 11.0427 30.7664 11.108 31.2984 11.108C31.8398 11.108 32.2784 11.0193 32.6144 10.842C32.9598 10.6553 33.1324 10.4173 33.1324 10.128C33.1324 9.82933 33.0064 9.526 32.7544 9.218C32.5024 8.91 32.2411 8.756 31.9704 8.756Z" transform="translate(95 169)" fill="#360C90"/>
<path opacity="0.1" d="M0 0H150" transform="translate(37 253)" stroke="#360C90"/>
<path opacity="0.1" d="M0 0H150" transform="translate(37 263)" stroke="#360C90"/>
<path opacity="0.1" d="M0 0H150" transform="translate(37 273)" stroke="#360C90"/>
<path opacity="0.1" d="M0 0H150" transform="translate(37 283)" stroke="#360C90"/>
<path opacity="0.1" d="M0 0H150" transform="translate(37 293)" stroke="#360C90"/>
<path opacity="0.1" d="M0 0H150" transform="translate(37 303)" stroke="#360C90"/>
<path opacity="0.1" d="M0 0H150" transform="translate(37 313)" stroke="#360C90"/>
<path opacity="0.1" d="M0 0H150" transform="translate(37 323)" stroke="#360C90"/>
<path opacity="0.1" d="M0 0H79" transform="translate(281 43)" stroke="#360C90"/>
<path opacity="0.1" d="M0 0H79" transform="translate(281 53)" stroke="#360C90"/>
<path opacity="0.1" d="M0 0H79" transform="translate(281 63)" stroke="#360C90"/>
<path opacity="0.1" d="M0 0H79" transform="translate(281 73)" stroke="#360C90"/>
<path opacity="0.1" d="M0 0H79" transform="translate(281 83)" stroke="#360C90"/>
<path opacity="0.1" d="M0 0H79" transform="translate(281 93)" stroke="#360C90"/>
<path opacity="0.1" d="M0 0H79" transform="translate(281 103)" stroke="#360C90"/>
<path opacity="0.1" d="M0 0H79" transform="translate(281 113)" stroke="#360C90"/>
<path opacity="0.1" d="M0 0H79" transform="translate(281 123)" stroke="#360C90"/>
<path opacity="0.1" d="M0 0H79" transform="translate(281 133)" stroke="#360C90"/>
<path opacity="0.1" d="M0 0H79" transform="translate(281 143)" stroke="#360C90"/>
<path opacity="0.1" d="M0 0H79" transform="translate(281 153)" stroke="#360C90"/>
<path opacity="0.1" d="M0 0H79" transform="translate(281 163)" stroke="#360C90"/>
<path opacity="0.1" d="M0 0H79" transform="translate(281 173)" stroke="#360C90"/>
<path opacity="0.1" d="M0 0H79" transform="translate(281 183)" stroke="#360C90"/>
<path opacity="0.1" d="M0 0H79" transform="translate(281 193)" stroke="#360C90"/>
<path opacity="0.1" d="M0 0H79" transform="translate(281 203)" stroke="#360C90"/>
<path opacity="0.1" d="M0 0H79" transform="translate(281 213)" stroke="#360C90"/>
<path opacity="0.1" d="M0 0H79" transform="translate(281 223)" stroke="#360C90"/>
<path opacity="0.1" d="M0 0H79" transform="translate(281 233)" stroke="#360C90"/>
<path opacity="0.1" d="M0 0H79" transform="translate(281 243)" stroke="#360C90"/>
<path opacity="0.1" d="M0 0H79" transform="translate(281 253)" stroke="#360C90"/>
<path opacity="0.1" d="M0 0H79" transform="translate(281 263)" stroke="#360C90"/>
<path opacity="0.1" d="M0 0H79" transform="translate(281 273)" stroke="#360C90"/>
<path opacity="0.1" d="M0 0H79" transform="translate(281 283)" stroke="#360C90"/>
<path opacity="0.1" d="M0 0H79" transform="translate(281 293)" stroke="#360C90"/>
<path opacity="0.1" d="M0 0H79" transform="translate(281 303)" stroke="#360C90"/>
<path opacity="0.1" d="M0 0H79" transform="translate(281 313)" stroke="#360C90"/>
<path opacity="0.1" d="M0 0H79" transform="translate(281 323)" stroke="#360C90"/>
<path opacity="0.1" d="M0 0H79" transform="translate(449 219) rotate(-90)" stroke="#360C90"/>
<path opacity="0.1" d="M0 0H79" transform="translate(459 219) rotate(-90)" stroke="#360C90"/>
<path opacity="0.1" d="M0 0H79" transform="translate(469 219) rotate(-90)" stroke="#360C90"/>
<path opacity="0.1" d="M0 0H79" transform="translate(479 219) rotate(-90)" stroke="#360C90"/>
<path opacity="0.1" d="M0 0H79" transform="translate(489 219) rotate(-90)" stroke="#360C90"/>
<path opacity="0.1" d="M0 0H79" transform="translate(499 219) rotate(-90)" stroke="#360C90"/>
<path opacity="0.1" d="M0 0H79" transform="translate(509 219) rotate(-90)" stroke="#360C90"/>
<path opacity="0.1" d="M0 0H79" transform="translate(519 219) rotate(-90)" stroke="#360C90"/>
<path opacity="0.1" d="M0 0H79" transform="translate(529 219) rotate(-90)" stroke="#360C90"/>
<path opacity="0.1" d="M0 0H79" transform="translate(539 219) rotate(-90)" stroke="#360C90"/>
<path opacity="0.1" d="M0 0H79" transform="translate(549 219) rotate(-90)" stroke="#360C90"/>
<path opacity="0.1" d="M0 0H79" transform="translate(559 219) rotate(-90)" stroke="#360C90"/>
<path opacity="0.1" d="M0 0H79" transform="translate(569 219) rotate(-90)" stroke="#360C90"/>
<path opacity="0.1" d="M0 0H79" transform="translate(579 219) rotate(-90)" stroke="#360C90"/>
<rect x="0.5" y="0.5" width="149" height="299" transform="translate(37 33)" stroke="#360C90"/>
<path d="M8.262 4.762C8.454 4.762 8.688 4.942 8.964 5.302C9.252 5.65 9.396 5.98 9.396 6.292C9.396 6.604 9.246 7.492 8.946 8.956C8.646 10.408 8.298 11.914 7.902 13.474C7.038 16.978 6.468 18.73 6.192 18.73C6.024 18.73 5.838 18.628 5.634 18.424C5.442 18.208 5.346 18.022 5.346 17.866C5.346 17.71 5.388 17.398 5.472 16.93C4.296 18.13 3.27 18.73 2.394 18.73C1.866 18.73 1.386 18.49 0.954 18.01C0.534 17.53 0.324 17.032 0.324 16.516C0.324 15.772 0.522 14.89 0.918 13.87C1.326 12.838 1.908 11.902 2.664 11.062C3.42 10.222 4.224 9.802 5.076 9.802C5.928 9.802 6.522 10.312 6.858 11.332C7.47 8.788 7.806 6.778 7.866 5.302C7.866 4.942 7.998 4.762 8.262 4.762ZM6.282 13.6C6.282 12.952 6.168 12.406 5.94 11.962C5.724 11.518 5.46 11.296 5.148 11.296C4.632 11.296 4.104 11.614 3.564 12.25C3.024 12.886 2.592 13.618 2.268 14.446C1.956 15.262 1.8 15.97 1.8 16.57C1.8 16.786 1.878 16.96 2.034 17.092C2.19 17.224 2.376 17.29 2.592 17.29C3.06 17.29 3.69 16.954 4.482 16.282C5.286 15.61 5.868 14.818 6.228 13.906L6.282 13.69V13.6Z" transform="translate(413 186) rotate(-90)" fill="#360C90"/>
<path d="M6.93 10.306C6.978 10.114 7.026 9.982 7.074 9.91C7.122 9.838 7.224 9.802 7.38 9.802C7.548 9.802 7.746 9.958 7.974 10.27C8.214 10.582 8.334 10.882 8.334 11.17C8.334 11.326 8.07 12.25 7.542 13.942C7.014 15.634 6.606 16.978 6.318 17.974C6.174 18.478 5.97 18.73 5.706 18.73C5.55 18.73 5.418 18.664 5.31 18.532C5.202 18.4 5.148 18.16 5.148 17.812C5.148 17.464 5.286 16.834 5.562 15.922C5.058 16.738 4.512 17.41 3.924 17.938C3.336 18.466 2.796 18.73 2.304 18.73C1.824 18.73 1.368 18.502 0.936 18.046C0.504 17.59 0.288 17.122 0.288 16.642C0.288 15.502 0.618 14.08 1.278 12.376C1.95 10.66 2.508 9.802 2.952 9.802C3.168 9.802 3.354 9.904 3.51 10.108C3.678 10.3 3.762 10.522 3.762 10.774C3.762 10.882 3.6 11.272 3.276 11.944C2.952 12.604 2.628 13.384 2.304 14.284C1.98 15.172 1.818 15.952 1.818 16.624C1.818 16.816 1.878 16.978 1.998 17.11C2.118 17.23 2.262 17.29 2.43 17.29C2.886 17.29 3.426 16.888 4.05 16.084C4.686 15.28 5.262 14.344 5.778 13.276C6.294 12.208 6.678 11.218 6.93 10.306ZM14.372 9.802C14.78 9.802 15.164 10.03 15.524 10.486C15.884 10.93 16.064 11.32 16.064 11.656C16.064 11.86 15.968 11.962 15.776 11.962C15.644 11.962 15.44 11.86 15.164 11.656C14.888 11.44 14.606 11.332 14.318 11.332C14.03 11.332 13.574 11.5 12.95 11.836C12.338 12.172 12.032 12.526 12.032 12.898C12.032 13.174 12.584 13.648 13.688 14.32C14.108 14.584 14.486 14.926 14.822 15.346C15.17 15.754 15.344 16.198 15.344 16.678C15.344 17.146 15.014 17.608 14.354 18.064C13.706 18.508 12.944 18.73 12.068 18.73C11.204 18.73 10.436 18.52 9.76402 18.1C9.10402 17.68 8.77402 17.284 8.77402 16.912C8.77402 16.756 8.81002 16.636 8.88202 16.552C8.96602 16.456 9.06802 16.408 9.18802 16.408C9.30802 16.408 9.47602 16.486 9.69202 16.642C10.34 17.11 11.012 17.344 11.708 17.344C12.416 17.344 12.926 17.266 13.238 17.11C13.55 16.942 13.706 16.726 13.706 16.462C13.706 16.186 13.532 15.898 13.184 15.598C12.836 15.286 12.452 15.01 12.032 14.77C11.624 14.53 11.246 14.236 10.898 13.888C10.55 13.54 10.376 13.186 10.376 12.826C10.376 12.19 10.874 11.53 11.87 10.846C12.878 10.15 13.712 9.802 14.372 9.802ZM24.0701 12.79C24.0701 13.426 23.7221 13.948 23.0261 14.356C22.3421 14.752 21.5621 14.95 20.6861 14.95C19.8221 14.95 19.0361 14.854 18.3281 14.662C18.1601 15.19 18.0761 15.664 18.0761 16.084C18.0761 16.492 18.2021 16.81 18.4541 17.038C18.7181 17.266 19.1441 17.38 19.7321 17.38C20.3321 17.38 20.9441 17.278 21.5681 17.074C22.2041 16.858 22.5521 16.75 22.6121 16.75C22.9241 16.75 23.0801 16.87 23.0801 17.11C23.0801 17.434 22.7141 17.788 21.9821 18.172C21.2501 18.544 20.5361 18.73 19.8401 18.73C18.9041 18.73 18.1421 18.454 17.5541 17.902C16.9661 17.338 16.6721 16.63 16.6721 15.778C16.6721 14.926 16.9001 14.038 17.3561 13.114C17.8121 12.178 18.4001 11.392 19.1201 10.756C19.8401 10.12 20.5541 9.802 21.2621 9.802C21.9701 9.802 22.6121 10.138 23.1881 10.81C23.7761 11.482 24.0701 12.142 24.0701 12.79ZM21.3521 11.224C20.9081 11.224 20.4461 11.458 19.9661 11.926C19.4861 12.382 19.0781 12.952 18.7421 13.636C19.2221 13.744 19.7681 13.798 20.3801 13.798C20.9921 13.798 21.5261 13.702 21.9821 13.51C22.4381 13.306 22.6661 13.042 22.6661 12.718C22.6661 12.394 22.5161 12.064 22.2161 11.728C21.9281 11.392 21.6401 11.224 21.3521 11.224ZM26.0716 11.998L26.0176 10.648C26.0176 10.084 26.1496 9.802 26.4136 9.802C26.6416 9.802 26.8576 9.952 27.0616 10.252C27.2776 10.54 27.3856 10.888 27.3856 11.296C27.3856 11.692 27.3736 11.992 27.3496 12.196C28.3936 10.612 29.3836 9.82 30.3196 9.82C30.9076 9.82 31.2016 9.964 31.2016 10.252C31.2016 10.396 31.1356 10.528 31.0036 10.648C30.8716 10.768 30.6616 10.906 30.3736 11.062C29.7376 11.338 29.1976 11.764 28.7536 12.34C28.3216 12.904 27.9676 13.546 27.6916 14.266C27.4156 14.986 27.1936 15.592 27.0256 16.084C26.8696 16.576 26.7496 16.96 26.6656 17.236C26.5816 17.512 26.4856 17.782 26.3776 18.046C26.1856 18.526 25.9636 18.766 25.7116 18.766C25.5076 18.766 25.3396 18.652 25.2076 18.424C25.0876 18.184 25.0276 17.956 25.0276 17.74C25.0276 17.512 25.1296 17.068 25.3336 16.408C25.8256 14.896 26.0716 13.426 26.0716 11.998ZM36.0986 9.802C36.5066 9.802 36.8906 10.03 37.2506 10.486C37.6106 10.93 37.7906 11.32 37.7906 11.656C37.7906 11.86 37.6946 11.962 37.5026 11.962C37.3706 11.962 37.1666 11.86 36.8906 11.656C36.6146 11.44 36.3326 11.332 36.0446 11.332C35.7566 11.332 35.3006 11.5 34.6766 11.836C34.0646 12.172 33.7586 12.526 33.7586 12.898C33.7586 13.174 34.3106 13.648 35.4146 14.32C35.8346 14.584 36.2126 14.926 36.5486 15.346C36.8966 15.754 37.0706 16.198 37.0706 16.678C37.0706 17.146 36.7406 17.608 36.0806 18.064C35.4326 18.508 34.6706 18.73 33.7946 18.73C32.9306 18.73 32.1626 18.52 31.4906 18.1C30.8306 17.68 30.5006 17.284 30.5006 16.912C30.5006 16.756 30.5366 16.636 30.6086 16.552C30.6926 16.456 30.7946 16.408 30.9146 16.408C31.0346 16.408 31.2026 16.486 31.4186 16.642C32.0666 17.11 32.7386 17.344 33.4346 17.344C34.1426 17.344 34.6526 17.266 34.9646 17.11C35.2766 16.942 35.4326 16.726 35.4326 16.462C35.4326 16.186 35.2586 15.898 34.9106 15.598C34.5626 15.286 34.1786 15.01 33.7586 14.77C33.3506 14.53 32.9726 14.236 32.6246 13.888C32.2766 13.54 32.1026 13.186 32.1026 12.826C32.1026 12.19 32.6006 11.53 33.5966 10.846C34.6046 10.15 35.4386 9.802 36.0986 9.802Z" transform="translate(255 201) rotate(-90)" fill="#360C90"/>
</g>
<defs>
<clipPath id="clip0">
<rect width="620" height="380" fill="white"/>
</clipPath>
</defs>
</svg>
